G04*
G04 #@! TF.GenerationSoftware,Altium Limited,Altium Designer,20.2.6 (244)*
G04*
G04 Layer_Color=8388736*
%FSLAX25Y25*%
%MOIN*%
G70*
G04*
G04 #@! TF.SameCoordinates,311AA1CE-0284-405A-9FC1-4CD4DC225AB5*
G04*
G04*
G04 #@! TF.FilePolarity,Negative*
G04*
G01*
G75*
%ADD36R,0.03162X0.02375*%
%ADD37R,0.02375X0.03162*%
%ADD38R,0.03162X0.07493*%
%ADD39R,0.10642X0.11824*%
%ADD40R,0.09068X0.03950*%
%ADD41R,0.03950X0.09068*%
%ADD42O,0.03950X0.09068*%
%ADD43R,0.05721X0.04737*%
%ADD44R,0.08674X0.06706*%
%ADD45R,0.04658X0.04461*%
%ADD46R,0.05918X0.09855*%
%ADD47R,0.08280X0.08674*%
%ADD48R,0.06115X0.02375*%
%ADD49R,0.06312X0.07099*%
G04:AMPARAMS|DCode=50|XSize=67.06mil|YSize=67.06mil|CornerRadius=33.53mil|HoleSize=0mil|Usage=FLASHONLY|Rotation=0.000|XOffset=0mil|YOffset=0mil|HoleType=Round|Shape=RoundedRectangle|*
%AMROUNDEDRECTD50*
21,1,0.06706,0.00000,0,0,0.0*
21,1,0.00000,0.06706,0,0,0.0*
1,1,0.06706,0.00000,0.00000*
1,1,0.06706,0.00000,0.00000*
1,1,0.06706,0.00000,0.00000*
1,1,0.06706,0.00000,0.00000*
%
%ADD50ROUNDEDRECTD50*%
%ADD51R,0.04461X0.04658*%
%ADD52R,0.03359X0.05328*%
%ADD53R,0.03162X0.05131*%
%ADD54R,0.06706X0.08674*%
%ADD55C,0.12611*%
%ADD56C,0.06706*%
%ADD57R,0.06706X0.06706*%
%ADD58R,0.07493X0.07493*%
%ADD59C,0.07493*%
%ADD60R,0.06706X0.06706*%
D36*
X-23000Y-206331D02*
D03*
Y-198850D02*
D03*
Y-192551D02*
D03*
X-26543Y-190976D02*
D03*
Y-187827D02*
D03*
Y-184677D02*
D03*
X-23000Y-183102D02*
D03*
X-26543Y-181528D02*
D03*
X-23000Y-179953D02*
D03*
X-26543Y-178378D02*
D03*
X-23000Y-176803D02*
D03*
Y-186252D02*
D03*
Y-189402D02*
D03*
Y-202000D02*
D03*
X-59614Y-167354D02*
D03*
Y-170504D02*
D03*
Y-173654D02*
D03*
X-56071Y-175228D02*
D03*
Y-178378D02*
D03*
X-59614Y-176803D02*
D03*
X-56071Y-172079D02*
D03*
X-59614Y-179953D02*
D03*
X-56071Y-181528D02*
D03*
Y-184677D02*
D03*
X-59614Y-186252D02*
D03*
X-56071Y-187827D02*
D03*
X-59614Y-189402D02*
D03*
X-56071Y-190976D02*
D03*
X-59614Y-192551D02*
D03*
X-56071Y-194126D02*
D03*
Y-197276D02*
D03*
X-59614Y-198850D02*
D03*
X-56071Y-200425D02*
D03*
X-59614Y-202000D02*
D03*
X-56071Y-203575D02*
D03*
X-59614Y-206331D02*
D03*
D37*
X-22409Y-163417D02*
D03*
X-25559D02*
D03*
X-28709D02*
D03*
X-31858D02*
D03*
X-35008D02*
D03*
X-38157D02*
D03*
X-41307D02*
D03*
X-44457D02*
D03*
X-47606D02*
D03*
X-36583Y-166961D02*
D03*
X-39732D02*
D03*
X-42882D02*
D03*
X-46031D02*
D03*
X-49181D02*
D03*
X-57055Y-163417D02*
D03*
X-50756D02*
D03*
X-53905D02*
D03*
X-60205D02*
D03*
X-33433Y-166961D02*
D03*
Y-189402D02*
D03*
X-36583D02*
D03*
X-39732D02*
D03*
X-42882D02*
D03*
X-46031D02*
D03*
X-49181D02*
D03*
D38*
X17717Y-40646D02*
D03*
X13780D02*
D03*
X9843D02*
D03*
X5906D02*
D03*
X1969D02*
D03*
X-1969D02*
D03*
X-17717D02*
D03*
X-13780D02*
D03*
X-9843D02*
D03*
X-5906D02*
D03*
D39*
X-28543Y-31000D02*
D03*
X28543D02*
D03*
D40*
X20913Y-77500D02*
D03*
Y-82500D02*
D03*
Y-87500D02*
D03*
Y-92500D02*
D03*
Y-97500D02*
D03*
Y-102500D02*
D03*
Y-107500D02*
D03*
Y-112500D02*
D03*
X-39500Y-117500D02*
D03*
Y-112500D02*
D03*
Y-107500D02*
D03*
Y-102500D02*
D03*
Y-97500D02*
D03*
Y-92500D02*
D03*
Y-87500D02*
D03*
Y-82500D02*
D03*
Y-77500D02*
D03*
X20913Y-117500D02*
D03*
D41*
X11500Y-128000D02*
D03*
X6500D02*
D03*
X1500D02*
D03*
X-3500D02*
D03*
X-8500D02*
D03*
X-13500D02*
D03*
X-18500D02*
D03*
X-23500D02*
D03*
X-28500D02*
D03*
Y-67000D02*
D03*
X-23500D02*
D03*
X-18500D02*
D03*
X-13500D02*
D03*
X-8500D02*
D03*
X-3500D02*
D03*
X1500D02*
D03*
X6500D02*
D03*
D42*
X11500D02*
D03*
D43*
X17693Y-165000D02*
D03*
X29307D02*
D03*
D44*
X20000Y-211000D02*
D03*
X-11231Y-211079D02*
D03*
D45*
X-26500Y-137469D02*
D03*
Y-143532D02*
D03*
X36500Y-214032D02*
D03*
Y-207968D02*
D03*
X29000Y-207968D02*
D03*
Y-214032D02*
D03*
X46000Y-82468D02*
D03*
Y-88532D02*
D03*
Y-101469D02*
D03*
Y-107531D02*
D03*
Y-113969D02*
D03*
Y-120031D02*
D03*
X-33500Y-143532D02*
D03*
Y-137469D02*
D03*
X-40500Y-143532D02*
D03*
Y-137469D02*
D03*
X-47500Y-143532D02*
D03*
Y-137469D02*
D03*
D46*
X62766Y-190264D02*
D03*
Y-160736D02*
D03*
D47*
Y-170579D02*
D03*
Y-180421D02*
D03*
D48*
X52234Y-172941D02*
D03*
Y-175500D02*
D03*
Y-178059D02*
D03*
Y-180618D02*
D03*
Y-170382D02*
D03*
D49*
X53120Y-162902D02*
D03*
Y-188098D02*
D03*
D50*
X-6500Y-165000D02*
D03*
D51*
X42063Y-188402D02*
D03*
X36000D02*
D03*
X42063Y-195402D02*
D03*
X36000D02*
D03*
X-2968Y-181000D02*
D03*
X-9031D02*
D03*
X11032Y-165000D02*
D03*
X4969D02*
D03*
X42031Y-181000D02*
D03*
X35969D02*
D03*
X35969Y-165000D02*
D03*
X42031D02*
D03*
X-9031Y-188000D02*
D03*
X-2968D02*
D03*
X-9031Y-195000D02*
D03*
X-2968D02*
D03*
X10531Y-188000D02*
D03*
X4468D02*
D03*
X10531Y-195000D02*
D03*
X4468D02*
D03*
X42031Y-173000D02*
D03*
X35969D02*
D03*
X-2968Y-174000D02*
D03*
X-9031D02*
D03*
D52*
X26740Y-171193D02*
D03*
X19260D02*
D03*
X23000Y-182807D02*
D03*
D53*
X10740Y-171882D02*
D03*
X7000D02*
D03*
X3260D02*
D03*
Y-182118D02*
D03*
X10740D02*
D03*
X27000Y-200236D02*
D03*
X19520D02*
D03*
Y-190000D02*
D03*
X23260D02*
D03*
X27000D02*
D03*
D54*
X34500Y-126500D02*
D03*
X34421Y-95269D02*
D03*
D55*
X-59181Y-37039D02*
D03*
X58417D02*
D03*
D56*
X67000Y-72000D02*
D03*
X57000D02*
D03*
X67000Y-62000D02*
D03*
X57000D02*
D03*
X67000Y-52000D02*
D03*
X57000D02*
D03*
Y-82000D02*
D03*
X67000D02*
D03*
X57000Y-92000D02*
D03*
X67000D02*
D03*
X57000Y-102000D02*
D03*
X67000D02*
D03*
X57000Y-112000D02*
D03*
X67000D02*
D03*
X57000Y-122000D02*
D03*
X67000D02*
D03*
X57000Y-132000D02*
D03*
X67000D02*
D03*
X57000Y-142000D02*
D03*
X24500Y-52000D02*
D03*
X-45500D02*
D03*
X-35500D02*
D03*
X-25500D02*
D03*
X-15500D02*
D03*
X-5500D02*
D03*
X4500D02*
D03*
X14500D02*
D03*
X34500D02*
D03*
X-68000Y-142000D02*
D03*
X-58000Y-132000D02*
D03*
X-68000D02*
D03*
X-58000Y-122000D02*
D03*
X-68000D02*
D03*
X-58000Y-112000D02*
D03*
X-68000D02*
D03*
X-58000Y-102000D02*
D03*
X-68000D02*
D03*
X-58000Y-92000D02*
D03*
X-68000D02*
D03*
X-58000Y-82000D02*
D03*
X-68000D02*
D03*
X-58000Y-72000D02*
D03*
X-68000D02*
D03*
X-58000Y-62000D02*
D03*
X-68000D02*
D03*
X-58000Y-52000D02*
D03*
X-68000D02*
D03*
D57*
X67000Y-142000D02*
D03*
X-58000D02*
D03*
D58*
X51000Y-208500D02*
D03*
D59*
X61000D02*
D03*
D60*
X44500Y-52000D02*
D03*
M02*
