G04*
G04 #@! TF.GenerationSoftware,Altium Limited,Altium Designer,20.2.6 (244)*
G04*
G04 Layer_Color=8421504*
%FSLAX25Y25*%
%MOIN*%
G70*
G04*
G04 #@! TF.SameCoordinates,311AA1CE-0284-405A-9FC1-4CD4DC225AB5*
G04*
G04*
G04 #@! TF.FilePolarity,Positive*
G04*
G01*
G75*
%ADD17R,0.02362X0.01575*%
%ADD18R,0.01575X0.02362*%
%ADD19R,0.02362X0.06693*%
%ADD20R,0.09843X0.11024*%
%ADD21R,0.08268X0.03150*%
%ADD22R,0.03150X0.08268*%
%ADD23O,0.03150X0.08268*%
%ADD24R,0.04921X0.03937*%
%ADD25R,0.07874X0.05906*%
%ADD26R,0.03858X0.03661*%
%ADD27R,0.05118X0.09055*%
%ADD28R,0.07480X0.07874*%
%ADD29R,0.05315X0.01575*%
%ADD30R,0.05512X0.06299*%
G04:AMPARAMS|DCode=31|XSize=59.06mil|YSize=59.06mil|CornerRadius=29.53mil|HoleSize=0mil|Usage=FLASHONLY|Rotation=0.000|XOffset=0mil|YOffset=0mil|HoleType=Round|Shape=RoundedRectangle|*
%AMROUNDEDRECTD31*
21,1,0.05906,0.00000,0,0,0.0*
21,1,0.00000,0.05906,0,0,0.0*
1,1,0.05906,0.00000,0.00000*
1,1,0.05906,0.00000,0.00000*
1,1,0.05906,0.00000,0.00000*
1,1,0.05906,0.00000,0.00000*
%
%ADD31ROUNDEDRECTD31*%
%ADD32R,0.03661X0.03858*%
%ADD33R,0.02559X0.04528*%
%ADD34R,0.02362X0.04331*%
%ADD35R,0.05906X0.07874*%
D17*
X-23000Y-206331D02*
D03*
Y-198850D02*
D03*
Y-192551D02*
D03*
X-26543Y-190976D02*
D03*
Y-187827D02*
D03*
Y-184677D02*
D03*
X-23000Y-183102D02*
D03*
X-26543Y-181528D02*
D03*
X-23000Y-179953D02*
D03*
X-26543Y-178378D02*
D03*
X-23000Y-176803D02*
D03*
Y-186252D02*
D03*
Y-189402D02*
D03*
Y-202000D02*
D03*
X-59614Y-167354D02*
D03*
Y-170504D02*
D03*
Y-173654D02*
D03*
X-56071Y-175228D02*
D03*
Y-178378D02*
D03*
X-59614Y-176803D02*
D03*
X-56071Y-172079D02*
D03*
X-59614Y-179953D02*
D03*
X-56071Y-181528D02*
D03*
Y-184677D02*
D03*
X-59614Y-186252D02*
D03*
X-56071Y-187827D02*
D03*
X-59614Y-189402D02*
D03*
X-56071Y-190976D02*
D03*
X-59614Y-192551D02*
D03*
X-56071Y-194126D02*
D03*
Y-197276D02*
D03*
X-59614Y-198850D02*
D03*
X-56071Y-200425D02*
D03*
X-59614Y-202000D02*
D03*
X-56071Y-203575D02*
D03*
X-59614Y-206331D02*
D03*
D18*
X-22409Y-163417D02*
D03*
X-25559D02*
D03*
X-28709D02*
D03*
X-31858D02*
D03*
X-35008D02*
D03*
X-38157D02*
D03*
X-41307D02*
D03*
X-44457D02*
D03*
X-47606D02*
D03*
X-36583Y-166961D02*
D03*
X-39732D02*
D03*
X-42882D02*
D03*
X-46031D02*
D03*
X-49181D02*
D03*
X-57055Y-163417D02*
D03*
X-50756D02*
D03*
X-53905D02*
D03*
X-60205D02*
D03*
X-33433Y-166961D02*
D03*
Y-189402D02*
D03*
X-36583D02*
D03*
X-39732D02*
D03*
X-42882D02*
D03*
X-46031D02*
D03*
X-49181D02*
D03*
D19*
X17717Y-40646D02*
D03*
X13780D02*
D03*
X9843D02*
D03*
X5906D02*
D03*
X1969D02*
D03*
X-1969D02*
D03*
X-17717D02*
D03*
X-13780D02*
D03*
X-9843D02*
D03*
X-5906D02*
D03*
D20*
X-28543Y-31000D02*
D03*
X28543D02*
D03*
D21*
X20913Y-77500D02*
D03*
Y-82500D02*
D03*
Y-87500D02*
D03*
Y-92500D02*
D03*
Y-97500D02*
D03*
Y-102500D02*
D03*
Y-107500D02*
D03*
Y-112500D02*
D03*
X-39500Y-117500D02*
D03*
Y-112500D02*
D03*
Y-107500D02*
D03*
Y-102500D02*
D03*
Y-97500D02*
D03*
Y-92500D02*
D03*
Y-87500D02*
D03*
Y-82500D02*
D03*
Y-77500D02*
D03*
X20913Y-117500D02*
D03*
D22*
X11500Y-128000D02*
D03*
X6500D02*
D03*
X1500D02*
D03*
X-3500D02*
D03*
X-8500D02*
D03*
X-13500D02*
D03*
X-18500D02*
D03*
X-23500D02*
D03*
X-28500D02*
D03*
Y-67000D02*
D03*
X-23500D02*
D03*
X-18500D02*
D03*
X-13500D02*
D03*
X-8500D02*
D03*
X-3500D02*
D03*
X1500D02*
D03*
X6500D02*
D03*
D23*
X11500D02*
D03*
D24*
X17693Y-165000D02*
D03*
X29307D02*
D03*
D25*
X20000Y-211000D02*
D03*
X-11231Y-211079D02*
D03*
D26*
X-26500Y-137469D02*
D03*
Y-143532D02*
D03*
X36500Y-214032D02*
D03*
Y-207968D02*
D03*
X29000Y-207968D02*
D03*
Y-214032D02*
D03*
X46000Y-82468D02*
D03*
Y-88532D02*
D03*
Y-101469D02*
D03*
Y-107531D02*
D03*
Y-113969D02*
D03*
Y-120031D02*
D03*
X-33500Y-143532D02*
D03*
Y-137469D02*
D03*
X-40500Y-143532D02*
D03*
Y-137469D02*
D03*
X-47500Y-143532D02*
D03*
Y-137469D02*
D03*
D27*
X62766Y-190264D02*
D03*
Y-160736D02*
D03*
D28*
Y-170579D02*
D03*
Y-180421D02*
D03*
D29*
X52234Y-172941D02*
D03*
Y-175500D02*
D03*
Y-178059D02*
D03*
Y-180618D02*
D03*
Y-170382D02*
D03*
D30*
X53120Y-162902D02*
D03*
Y-188098D02*
D03*
D31*
X-6500Y-165000D02*
D03*
D32*
X42063Y-188402D02*
D03*
X36000D02*
D03*
X42063Y-195402D02*
D03*
X36000D02*
D03*
X-2968Y-181000D02*
D03*
X-9031D02*
D03*
X11032Y-165000D02*
D03*
X4969D02*
D03*
X42031Y-181000D02*
D03*
X35969D02*
D03*
X35969Y-165000D02*
D03*
X42031D02*
D03*
X-9031Y-188000D02*
D03*
X-2968D02*
D03*
X-9031Y-195000D02*
D03*
X-2968D02*
D03*
X10531Y-188000D02*
D03*
X4468D02*
D03*
X10531Y-195000D02*
D03*
X4468D02*
D03*
X42031Y-173000D02*
D03*
X35969D02*
D03*
X-2968Y-174000D02*
D03*
X-9031D02*
D03*
D33*
X26740Y-171193D02*
D03*
X19260D02*
D03*
X23000Y-182807D02*
D03*
D34*
X10740Y-171882D02*
D03*
X7000D02*
D03*
X3260D02*
D03*
Y-182118D02*
D03*
X10740D02*
D03*
X27000Y-200236D02*
D03*
X19520D02*
D03*
Y-190000D02*
D03*
X23260D02*
D03*
X27000D02*
D03*
D35*
X34500Y-126500D02*
D03*
X34421Y-95269D02*
D03*
M02*
