G04*
G04 #@! TF.GenerationSoftware,Altium Limited,Altium Designer,20.2.6 (244)*
G04*
G04 Layer_Physical_Order=1*
G04 Layer_Color=255*
%FSLAX25Y25*%
%MOIN*%
G70*
G04*
G04 #@! TF.SameCoordinates,311AA1CE-0284-405A-9FC1-4CD4DC225AB5*
G04*
G04*
G04 #@! TF.FilePolarity,Positive*
G04*
G01*
G75*
%ADD10C,0.01000*%
%ADD11C,0.00787*%
%ADD17R,0.02362X0.01575*%
%ADD18R,0.01575X0.02362*%
%ADD19R,0.02362X0.06693*%
%ADD20R,0.09843X0.11024*%
%ADD21R,0.08268X0.03150*%
%ADD22R,0.03150X0.08268*%
%ADD23O,0.03150X0.08268*%
%ADD24R,0.04921X0.03937*%
%ADD25R,0.07874X0.05906*%
%ADD26R,0.03858X0.03661*%
%ADD27R,0.05118X0.09055*%
%ADD28R,0.07480X0.07874*%
%ADD29R,0.05315X0.01575*%
%ADD30R,0.05512X0.06299*%
G04:AMPARAMS|DCode=31|XSize=59.06mil|YSize=59.06mil|CornerRadius=29.53mil|HoleSize=0mil|Usage=FLASHONLY|Rotation=0.000|XOffset=0mil|YOffset=0mil|HoleType=Round|Shape=RoundedRectangle|*
%AMROUNDEDRECTD31*
21,1,0.05906,0.00000,0,0,0.0*
21,1,0.00000,0.05906,0,0,0.0*
1,1,0.05906,0.00000,0.00000*
1,1,0.05906,0.00000,0.00000*
1,1,0.05906,0.00000,0.00000*
1,1,0.05906,0.00000,0.00000*
%
%ADD31ROUNDEDRECTD31*%
%ADD32R,0.03661X0.03858*%
%ADD33R,0.02559X0.04528*%
%ADD34R,0.02362X0.04331*%
%ADD35R,0.05906X0.07874*%
%ADD61C,0.01968*%
%ADD62C,0.03150*%
%ADD63C,0.03937*%
%ADD64C,0.01181*%
%ADD65C,0.04724*%
%ADD66C,0.01500*%
%ADD67C,0.00214*%
%ADD68C,0.00027*%
%ADD69C,0.11811*%
%ADD70C,0.05906*%
%ADD71R,0.05906X0.05906*%
%ADD72R,0.06693X0.06693*%
%ADD73C,0.06693*%
%ADD74R,0.05906X0.05906*%
%ADD75C,0.03937*%
%ADD76C,0.03150*%
G36*
X59061Y-25627D02*
X61313Y-26168D01*
X63453Y-27054D01*
X65427Y-28264D01*
X67188Y-29768D01*
X68692Y-31529D01*
X69903Y-33504D01*
X70789Y-35644D01*
X71329Y-37896D01*
X71507Y-40151D01*
X71496Y-40205D01*
Y-85697D01*
X69109D01*
X69043Y-85570D01*
X68977Y-85197D01*
X69668Y-84667D01*
X70267Y-83886D01*
X70644Y-82976D01*
X70707Y-82500D01*
X67000D01*
X63293D01*
X63356Y-82976D01*
X63733Y-83886D01*
X64332Y-84667D01*
X65023Y-85197D01*
X64957Y-85569D01*
X64891Y-85697D01*
X59109Y-85697D01*
X59043Y-85569D01*
X58977Y-85197D01*
X59667Y-84667D01*
X60267Y-83886D01*
X60644Y-82976D01*
X60707Y-82500D01*
X57000D01*
X53293D01*
X53356Y-82976D01*
X53733Y-83886D01*
X54333Y-84667D01*
X55023Y-85197D01*
X54957Y-85569D01*
X54891Y-85697D01*
X48717D01*
X48409Y-85758D01*
X48177Y-85913D01*
X43823D01*
X43591Y-85758D01*
X43284Y-85697D01*
X32056Y-85697D01*
X31983Y-85712D01*
X31909Y-85711D01*
X31831Y-85742D01*
X31749Y-85758D01*
X31687Y-85800D01*
X31618Y-85827D01*
X31201Y-85751D01*
X31066Y-85665D01*
X30966Y-85535D01*
X30390Y-85093D01*
X29719Y-84815D01*
X29000Y-84720D01*
X28281Y-84815D01*
X27613Y-85092D01*
X26240D01*
X25835Y-84862D01*
X25835Y-84592D01*
Y-83000D01*
X20913D01*
X15992D01*
Y-85344D01*
X15639Y-85697D01*
X-34218Y-85697D01*
X-34579Y-85197D01*
Y-85138D01*
X-34579D01*
Y-84862D01*
X-34579D01*
Y-80362D01*
X-34579Y-80138D01*
X-34579D01*
Y-79862D01*
X-34579D01*
Y-75138D01*
X-38187D01*
Y-66500D01*
X-38287Y-65998D01*
X-38572Y-65572D01*
X-53072Y-51072D01*
X-53498Y-50787D01*
X-54000Y-50687D01*
X-54495D01*
X-54733Y-50114D01*
X-55332Y-49332D01*
X-56114Y-48733D01*
X-57024Y-48356D01*
X-58000Y-48228D01*
X-58976Y-48356D01*
X-59886Y-48733D01*
X-60668Y-49332D01*
X-61267Y-50114D01*
X-61644Y-51024D01*
X-61772Y-52000D01*
X-61644Y-52976D01*
X-61267Y-53886D01*
X-60668Y-54668D01*
X-59990Y-55187D01*
X-60091Y-55636D01*
X-60119Y-55687D01*
X-62456D01*
X-64594Y-53550D01*
X-64356Y-52976D01*
X-64228Y-52000D01*
X-64356Y-51024D01*
X-64733Y-50114D01*
X-65333Y-49332D01*
X-66114Y-48733D01*
X-67024Y-48356D01*
X-68000Y-48228D01*
X-68976Y-48356D01*
X-69886Y-48733D01*
X-70667Y-49332D01*
X-71267Y-50114D01*
X-71644Y-51024D01*
X-71772Y-52000D01*
X-71644Y-52976D01*
X-71267Y-53886D01*
X-70667Y-54668D01*
X-69886Y-55267D01*
X-68976Y-55644D01*
X-68000Y-55772D01*
X-67024Y-55644D01*
X-66450Y-55406D01*
X-63928Y-57928D01*
X-63502Y-58213D01*
X-63000Y-58313D01*
X-60119D01*
X-60091Y-58364D01*
X-59990Y-58813D01*
X-60668Y-59333D01*
X-61267Y-60114D01*
X-61644Y-61024D01*
X-61772Y-62000D01*
X-61644Y-62976D01*
X-61267Y-63886D01*
X-60668Y-64667D01*
X-59990Y-65187D01*
X-60091Y-65636D01*
X-60119Y-65687D01*
X-62456D01*
X-64594Y-63550D01*
X-64356Y-62976D01*
X-64228Y-62000D01*
X-64356Y-61024D01*
X-64733Y-60114D01*
X-65333Y-59333D01*
X-66114Y-58733D01*
X-67024Y-58356D01*
X-68000Y-58228D01*
X-68976Y-58356D01*
X-69886Y-58733D01*
X-70667Y-59333D01*
X-71267Y-60114D01*
X-71644Y-61024D01*
X-71772Y-62000D01*
X-71644Y-62976D01*
X-71267Y-63886D01*
X-70667Y-64667D01*
X-69886Y-65267D01*
X-68976Y-65644D01*
X-68000Y-65772D01*
X-67024Y-65644D01*
X-66450Y-65406D01*
X-63928Y-67928D01*
X-63502Y-68213D01*
X-63000Y-68313D01*
X-60119D01*
X-60091Y-68364D01*
X-59990Y-68813D01*
X-60668Y-69332D01*
X-61267Y-70114D01*
X-61644Y-71024D01*
X-61707Y-71500D01*
X-58000D01*
Y-72000D01*
D01*
Y-71500D01*
X-54293D01*
X-54356Y-71024D01*
X-54733Y-70114D01*
X-55332Y-69332D01*
X-56010Y-68813D01*
X-55909Y-68364D01*
X-55881Y-68313D01*
X-55044D01*
X-53313Y-70044D01*
Y-84500D01*
X-53213Y-85002D01*
X-53083Y-85197D01*
X-53350Y-85697D01*
X-55891D01*
X-55957Y-85569D01*
X-56023Y-85197D01*
X-55332Y-84667D01*
X-54733Y-83886D01*
X-54356Y-82976D01*
X-54293Y-82500D01*
X-58000D01*
X-61707D01*
X-61644Y-82976D01*
X-61267Y-83886D01*
X-60668Y-84667D01*
X-59977Y-85197D01*
X-60043Y-85569D01*
X-60109Y-85697D01*
X-65891Y-85697D01*
X-65957Y-85569D01*
X-66023Y-85197D01*
X-65333Y-84667D01*
X-64733Y-83886D01*
X-64356Y-82976D01*
X-64293Y-82500D01*
X-68000D01*
X-71707D01*
X-71644Y-82976D01*
X-71267Y-83886D01*
X-70667Y-84667D01*
X-69977Y-85197D01*
X-70043Y-85569D01*
X-70109Y-85697D01*
X-72496D01*
X-72496Y-85197D01*
Y-40705D01*
X-72496Y-40205D01*
X-72473Y-39715D01*
X-72329Y-37896D01*
X-71789Y-35644D01*
X-70903Y-33504D01*
X-69692Y-31529D01*
X-68188Y-29768D01*
X-66427Y-28264D01*
X-64452Y-27054D01*
X-62313Y-26168D01*
X-60061Y-25627D01*
X-57961Y-25462D01*
X-57752Y-25504D01*
X-34252D01*
Y-30500D01*
X-28543D01*
X-22835D01*
Y-25504D01*
X22835D01*
Y-30500D01*
X28543D01*
X34252D01*
Y-25504D01*
X56752D01*
X56961Y-25462D01*
X59061Y-25627D01*
D02*
G37*
G36*
X71496Y-203752D02*
X71540Y-203971D01*
X71376Y-206061D01*
X70835Y-208314D01*
X69948Y-210454D01*
X68738Y-212429D01*
X67234Y-214190D01*
X65472Y-215695D01*
X63497Y-216905D01*
X61357Y-217792D01*
X59105Y-218332D01*
X56858Y-218509D01*
X56795Y-218496D01*
X27601D01*
X27449Y-217997D01*
X27777Y-217777D01*
X28905Y-216650D01*
X31716D01*
Y-211413D01*
X26283D01*
Y-213109D01*
X26000Y-213341D01*
X25224Y-213496D01*
X24724Y-213206D01*
Y-211500D01*
X20500D01*
Y-214740D01*
X23282D01*
X23693Y-215240D01*
X23591Y-215750D01*
X23775Y-216672D01*
X24297Y-217453D01*
X25078Y-217975D01*
X25185Y-217997D01*
X25135Y-218496D01*
X-17000Y-218496D01*
X-17000Y-207000D01*
X-21032D01*
Y-206831D01*
X-23000D01*
X-24969D01*
Y-207000D01*
X-57646D01*
Y-206831D01*
X-61582D01*
Y-207000D01*
X-72150D01*
X-72376Y-206061D01*
X-72500Y-204480D01*
Y-203770D01*
X-72496Y-203752D01*
X-72496Y-86500D01*
X-51856Y-86500D01*
X-45476Y-92880D01*
X-45050Y-93165D01*
X-44548Y-93265D01*
X-44421Y-93391D01*
X-44421Y-95000D01*
X-44421Y-95362D01*
Y-97000D01*
X-39500D01*
X-34579D01*
Y-95362D01*
X-34579Y-95000D01*
X-34579Y-94638D01*
Y-90138D01*
X-34579D01*
Y-89862D01*
X-34579D01*
Y-86500D01*
X15992Y-86500D01*
X15992Y-90000D01*
X15992Y-90362D01*
Y-94638D01*
X15992Y-95000D01*
X15992Y-95362D01*
Y-99638D01*
X15992Y-100000D01*
X15992Y-100362D01*
Y-104862D01*
X15992Y-104862D01*
Y-105138D01*
X15992D01*
X15992Y-105362D01*
Y-109638D01*
X15992Y-110000D01*
X15992Y-110362D01*
Y-112000D01*
X20913D01*
X25835D01*
Y-110408D01*
X25835Y-110138D01*
X26240Y-109908D01*
X32421D01*
X33342Y-109725D01*
X34124Y-109203D01*
X39450Y-103877D01*
X43284D01*
Y-104087D01*
X48717D01*
Y-98850D01*
X43284D01*
Y-99060D01*
X38452D01*
X38162Y-98822D01*
Y-90544D01*
X30681D01*
Y-99137D01*
X28631Y-101187D01*
X26188D01*
X25835Y-100834D01*
X25835Y-100000D01*
X25835Y-99638D01*
Y-95362D01*
X25835Y-95000D01*
X25835Y-94638D01*
Y-90408D01*
X25835Y-90138D01*
X26240Y-89908D01*
X27613D01*
X28281Y-90185D01*
X29000Y-90280D01*
X29719Y-90185D01*
X30390Y-89907D01*
X30966Y-89465D01*
X31407Y-88890D01*
X31685Y-88219D01*
X31780Y-87500D01*
X31714Y-87000D01*
X32056Y-86500D01*
X43284Y-86500D01*
Y-88032D01*
X46000D01*
X48717D01*
Y-86500D01*
X71496Y-86500D01*
X71496Y-203752D01*
D02*
G37*
%LPC*%
G36*
X12000Y-31720D02*
X11281Y-31815D01*
X10610Y-32093D01*
X10035Y-32535D01*
X9593Y-33110D01*
X9315Y-33781D01*
X9254Y-34243D01*
X9252Y-34258D01*
X8748D01*
X8746Y-34243D01*
X8685Y-33781D01*
X8407Y-33110D01*
X7965Y-32535D01*
X7390Y-32093D01*
X6719Y-31815D01*
X6000Y-31720D01*
X5281Y-31815D01*
X4610Y-32093D01*
X4034Y-32535D01*
X3593Y-33110D01*
X3315Y-33781D01*
X3220Y-34500D01*
X3315Y-35219D01*
X3593Y-35890D01*
X3686Y-36012D01*
X3440Y-36512D01*
X-3440D01*
X-3686Y-36012D01*
X-3593Y-35890D01*
X-3315Y-35219D01*
X-3220Y-34500D01*
X-3315Y-33781D01*
X-3593Y-33110D01*
X-4034Y-32535D01*
X-4610Y-32093D01*
X-5281Y-31815D01*
X-6000Y-31720D01*
X-6719Y-31815D01*
X-7390Y-32093D01*
X-7965Y-32535D01*
X-8407Y-33110D01*
X-8685Y-33781D01*
X-8780Y-34500D01*
X-8685Y-35219D01*
X-8407Y-35890D01*
X-8314Y-36012D01*
X-8560Y-36512D01*
X-10940D01*
X-11186Y-36012D01*
X-11093Y-35890D01*
X-10815Y-35219D01*
X-10720Y-34500D01*
X-10815Y-33781D01*
X-11093Y-33110D01*
X-11535Y-32535D01*
X-12110Y-32093D01*
X-12781Y-31815D01*
X-13500Y-31720D01*
X-14219Y-31815D01*
X-14890Y-32093D01*
X-15465Y-32535D01*
X-15907Y-33110D01*
X-16185Y-33781D01*
X-16280Y-34500D01*
X-16185Y-35219D01*
X-15907Y-35890D01*
X-15814Y-36012D01*
X-16060Y-36512D01*
X-16248Y-36512D01*
X-19685D01*
Y-38833D01*
X-41646D01*
X-42148Y-38933D01*
X-42574Y-39217D01*
X-46428Y-43072D01*
X-46713Y-43498D01*
X-46813Y-44000D01*
Y-48495D01*
X-47386Y-48733D01*
X-48167Y-49332D01*
X-48767Y-50114D01*
X-49144Y-51024D01*
X-49272Y-52000D01*
X-49144Y-52976D01*
X-48767Y-53886D01*
X-48167Y-54668D01*
X-47386Y-55267D01*
X-46476Y-55644D01*
X-45500Y-55772D01*
X-44524Y-55644D01*
X-44444Y-55611D01*
X-38277Y-61777D01*
X-37691Y-62169D01*
X-37000Y-62306D01*
X-33189D01*
X-30862Y-64633D01*
Y-71921D01*
X-26362D01*
X-26000Y-71921D01*
X-25638Y-71921D01*
X-21138D01*
Y-71921D01*
X-20862D01*
Y-71921D01*
X-16362D01*
X-16000Y-71921D01*
X-15638Y-71921D01*
X-11362D01*
X-11000Y-71921D01*
X-10638Y-71921D01*
X-6138D01*
Y-71921D01*
X-5862D01*
Y-71921D01*
X-1138D01*
Y-71921D01*
X-862D01*
Y-71921D01*
X3638D01*
X4000Y-71921D01*
X4362Y-71921D01*
X8862D01*
Y-70763D01*
X9362Y-70612D01*
X9797Y-71262D01*
X10578Y-71784D01*
X11000Y-71868D01*
Y-67000D01*
X11500D01*
Y-66500D01*
X13908D01*
Y-64441D01*
X13725Y-63519D01*
X13249Y-62806D01*
X13389Y-62306D01*
X17500D01*
X18191Y-62169D01*
X18777Y-61777D01*
X24379Y-56176D01*
X24663Y-55751D01*
X25476Y-55644D01*
X26386Y-55267D01*
X27167Y-54668D01*
X27767Y-53886D01*
X28144Y-52976D01*
X28272Y-52000D01*
X28144Y-51024D01*
X27767Y-50114D01*
X27167Y-49332D01*
X26386Y-48733D01*
X25813Y-48495D01*
Y-48000D01*
X25713Y-47498D01*
X25428Y-47072D01*
X23928Y-45572D01*
X23502Y-45287D01*
X23000Y-45187D01*
X19907D01*
X19685Y-44780D01*
X19685Y-44687D01*
Y-41146D01*
X17717D01*
Y-40646D01*
X17217D01*
Y-36512D01*
X16248D01*
X15748Y-36512D01*
X15152Y-36512D01*
X14860Y-36075D01*
X14485Y-35701D01*
X14685Y-35219D01*
X14780Y-34500D01*
X14685Y-33781D01*
X14407Y-33110D01*
X13965Y-32535D01*
X13390Y-32093D01*
X12719Y-31815D01*
X12000Y-31720D01*
D02*
G37*
G36*
X34252Y-31500D02*
X29043D01*
Y-37299D01*
X34252D01*
Y-31500D01*
D02*
G37*
G36*
X28043D02*
X22835D01*
Y-37299D01*
X28043D01*
Y-31500D01*
D02*
G37*
G36*
X-22835D02*
X-28043D01*
Y-37299D01*
X-22835D01*
Y-31500D01*
D02*
G37*
G36*
X-29043D02*
X-34252D01*
Y-37299D01*
X-29043D01*
Y-31500D01*
D02*
G37*
G36*
X18217Y-36512D02*
Y-40146D01*
X19685D01*
Y-36512D01*
X18217D01*
D02*
G37*
G36*
X58417Y-30314D02*
X57105Y-30443D01*
X55844Y-30826D01*
X54681Y-31447D01*
X53662Y-32284D01*
X52825Y-33303D01*
X52204Y-34466D01*
X51821Y-35727D01*
X51692Y-37039D01*
X51821Y-38351D01*
X52204Y-39613D01*
X52825Y-40776D01*
X53662Y-41795D01*
X54681Y-42631D01*
X55844Y-43253D01*
X57105Y-43635D01*
X58417Y-43765D01*
X59729Y-43635D01*
X60991Y-43253D01*
X62154Y-42631D01*
X63173Y-41795D01*
X64009Y-40776D01*
X64631Y-39613D01*
X65013Y-38351D01*
X65143Y-37039D01*
X65013Y-35727D01*
X64631Y-34466D01*
X64009Y-33303D01*
X63173Y-32284D01*
X62154Y-31447D01*
X60991Y-30826D01*
X59729Y-30443D01*
X58417Y-30314D01*
D02*
G37*
G36*
X-59181D02*
X-60493Y-30443D01*
X-61755Y-30826D01*
X-62918Y-31447D01*
X-63937Y-32284D01*
X-64773Y-33303D01*
X-65395Y-34466D01*
X-65777Y-35727D01*
X-65906Y-37039D01*
X-65777Y-38351D01*
X-65395Y-39613D01*
X-64773Y-40776D01*
X-63937Y-41795D01*
X-62918Y-42631D01*
X-61755Y-43253D01*
X-60493Y-43635D01*
X-59181Y-43765D01*
X-57869Y-43635D01*
X-56607Y-43253D01*
X-55445Y-42631D01*
X-54426Y-41795D01*
X-53589Y-40776D01*
X-52968Y-39613D01*
X-52585Y-38351D01*
X-52456Y-37039D01*
X-52585Y-35727D01*
X-52968Y-34466D01*
X-53589Y-33303D01*
X-54426Y-32284D01*
X-55445Y-31447D01*
X-56607Y-30826D01*
X-57869Y-30443D01*
X-59181Y-30314D01*
D02*
G37*
G36*
X48240Y-48260D02*
X45000D01*
Y-51500D01*
X48240D01*
Y-48260D01*
D02*
G37*
G36*
X67500Y-48293D02*
Y-51500D01*
X70707D01*
X70644Y-51024D01*
X70267Y-50114D01*
X69668Y-49332D01*
X68886Y-48733D01*
X67976Y-48356D01*
X67500Y-48293D01*
D02*
G37*
G36*
X57500D02*
Y-51500D01*
X60707D01*
X60644Y-51024D01*
X60267Y-50114D01*
X59667Y-49332D01*
X58886Y-48733D01*
X57976Y-48356D01*
X57500Y-48293D01*
D02*
G37*
G36*
X66500D02*
X66024Y-48356D01*
X65114Y-48733D01*
X64332Y-49332D01*
X63733Y-50114D01*
X63356Y-51024D01*
X63293Y-51500D01*
X66500D01*
Y-48293D01*
D02*
G37*
G36*
X56500D02*
X56024Y-48356D01*
X55114Y-48733D01*
X54333Y-49332D01*
X53733Y-50114D01*
X53356Y-51024D01*
X53293Y-51500D01*
X56500D01*
Y-48293D01*
D02*
G37*
G36*
X44000Y-48260D02*
X40760D01*
Y-51500D01*
X44000D01*
Y-48260D01*
D02*
G37*
G36*
X70707Y-52500D02*
X67500D01*
Y-55707D01*
X67976Y-55644D01*
X68886Y-55267D01*
X69668Y-54668D01*
X70267Y-53886D01*
X70644Y-52976D01*
X70707Y-52500D01*
D02*
G37*
G36*
X60707D02*
X57500D01*
Y-55707D01*
X57976Y-55644D01*
X58886Y-55267D01*
X59667Y-54668D01*
X60267Y-53886D01*
X60644Y-52976D01*
X60707Y-52500D01*
D02*
G37*
G36*
X66500D02*
X63293D01*
X63356Y-52976D01*
X63733Y-53886D01*
X64332Y-54668D01*
X65114Y-55267D01*
X66024Y-55644D01*
X66500Y-55707D01*
Y-52500D01*
D02*
G37*
G36*
X56500D02*
X53293D01*
X53356Y-52976D01*
X53733Y-53886D01*
X54333Y-54668D01*
X55114Y-55267D01*
X56024Y-55644D01*
X56500Y-55707D01*
Y-52500D01*
D02*
G37*
G36*
X48240D02*
X45000D01*
Y-55740D01*
X48240D01*
Y-52500D01*
D02*
G37*
G36*
X44000D02*
X40760D01*
Y-55740D01*
X44000D01*
Y-52500D01*
D02*
G37*
G36*
X34500Y-48228D02*
X33524Y-48356D01*
X32614Y-48733D01*
X31833Y-49332D01*
X31233Y-50114D01*
X30856Y-51024D01*
X30728Y-52000D01*
X30856Y-52976D01*
X31233Y-53886D01*
X31833Y-54668D01*
X32614Y-55267D01*
X33524Y-55644D01*
X34500Y-55772D01*
X35476Y-55644D01*
X36386Y-55267D01*
X37168Y-54668D01*
X37767Y-53886D01*
X38144Y-52976D01*
X38272Y-52000D01*
X38144Y-51024D01*
X37767Y-50114D01*
X37168Y-49332D01*
X36386Y-48733D01*
X35476Y-48356D01*
X34500Y-48228D01*
D02*
G37*
G36*
X67500Y-58293D02*
Y-61500D01*
X70707D01*
X70644Y-61024D01*
X70267Y-60114D01*
X69668Y-59333D01*
X68886Y-58733D01*
X67976Y-58356D01*
X67500Y-58293D01*
D02*
G37*
G36*
X57500D02*
Y-61500D01*
X60707D01*
X60644Y-61024D01*
X60267Y-60114D01*
X59667Y-59333D01*
X58886Y-58733D01*
X57976Y-58356D01*
X57500Y-58293D01*
D02*
G37*
G36*
X66500D02*
X66024Y-58356D01*
X65114Y-58733D01*
X64332Y-59333D01*
X63733Y-60114D01*
X63356Y-61024D01*
X63293Y-61500D01*
X66500D01*
Y-58293D01*
D02*
G37*
G36*
X56500D02*
X56024Y-58356D01*
X55114Y-58733D01*
X54333Y-59333D01*
X53733Y-60114D01*
X53356Y-61024D01*
X53293Y-61500D01*
X56500D01*
Y-58293D01*
D02*
G37*
G36*
X70707Y-62500D02*
X67500D01*
Y-65707D01*
X67976Y-65644D01*
X68886Y-65267D01*
X69668Y-64667D01*
X70267Y-63886D01*
X70644Y-62976D01*
X70707Y-62500D01*
D02*
G37*
G36*
X60707D02*
X57500D01*
Y-65707D01*
X57976Y-65644D01*
X58886Y-65267D01*
X59667Y-64667D01*
X60267Y-63886D01*
X60644Y-62976D01*
X60707Y-62500D01*
D02*
G37*
G36*
X66500D02*
X63293D01*
X63356Y-62976D01*
X63733Y-63886D01*
X64332Y-64667D01*
X65114Y-65267D01*
X66024Y-65644D01*
X66500Y-65707D01*
Y-62500D01*
D02*
G37*
G36*
X56500D02*
X53293D01*
X53356Y-62976D01*
X53733Y-63886D01*
X54333Y-64667D01*
X55114Y-65267D01*
X56024Y-65644D01*
X56500Y-65707D01*
Y-62500D01*
D02*
G37*
G36*
X67500Y-68293D02*
Y-71500D01*
X70707D01*
X70644Y-71024D01*
X70267Y-70114D01*
X69668Y-69332D01*
X68886Y-68733D01*
X67976Y-68356D01*
X67500Y-68293D01*
D02*
G37*
G36*
X57500D02*
Y-71500D01*
X60707D01*
X60644Y-71024D01*
X60267Y-70114D01*
X59667Y-69332D01*
X58886Y-68733D01*
X57976Y-68356D01*
X57500Y-68293D01*
D02*
G37*
G36*
X-67500D02*
Y-71500D01*
X-64293D01*
X-64356Y-71024D01*
X-64733Y-70114D01*
X-65333Y-69332D01*
X-66114Y-68733D01*
X-67024Y-68356D01*
X-67500Y-68293D01*
D02*
G37*
G36*
X66500D02*
X66024Y-68356D01*
X65114Y-68733D01*
X64332Y-69332D01*
X63733Y-70114D01*
X63356Y-71024D01*
X63293Y-71500D01*
X66500D01*
Y-68293D01*
D02*
G37*
G36*
X56500D02*
X56024Y-68356D01*
X55114Y-68733D01*
X54333Y-69332D01*
X53733Y-70114D01*
X53356Y-71024D01*
X53293Y-71500D01*
X56500D01*
Y-68293D01*
D02*
G37*
G36*
X-68500D02*
X-68976Y-68356D01*
X-69886Y-68733D01*
X-70667Y-69332D01*
X-71267Y-70114D01*
X-71644Y-71024D01*
X-71707Y-71500D01*
X-68500D01*
Y-68293D01*
D02*
G37*
G36*
X13908Y-67500D02*
X12000D01*
Y-71868D01*
X12422Y-71784D01*
X13203Y-71262D01*
X13725Y-70481D01*
X13908Y-69559D01*
Y-67500D01*
D02*
G37*
G36*
X70707Y-72500D02*
X67500D01*
Y-75707D01*
X67976Y-75644D01*
X68886Y-75267D01*
X69668Y-74668D01*
X70267Y-73886D01*
X70644Y-72976D01*
X70707Y-72500D01*
D02*
G37*
G36*
X60707D02*
X57500D01*
Y-75707D01*
X57976Y-75644D01*
X58886Y-75267D01*
X59667Y-74668D01*
X60267Y-73886D01*
X60644Y-72976D01*
X60707Y-72500D01*
D02*
G37*
G36*
X-54293D02*
X-57500D01*
Y-75707D01*
X-57024Y-75644D01*
X-56114Y-75267D01*
X-55332Y-74668D01*
X-54733Y-73886D01*
X-54356Y-72976D01*
X-54293Y-72500D01*
D02*
G37*
G36*
X-64293D02*
X-67500D01*
Y-75707D01*
X-67024Y-75644D01*
X-66114Y-75267D01*
X-65333Y-74668D01*
X-64733Y-73886D01*
X-64356Y-72976D01*
X-64293Y-72500D01*
D02*
G37*
G36*
X-68500D02*
X-71707D01*
X-71644Y-72976D01*
X-71267Y-73886D01*
X-70667Y-74668D01*
X-69886Y-75267D01*
X-68976Y-75644D01*
X-68500Y-75707D01*
Y-72500D01*
D02*
G37*
G36*
X66500D02*
X63293D01*
X63356Y-72976D01*
X63733Y-73886D01*
X64332Y-74668D01*
X65114Y-75267D01*
X66024Y-75644D01*
X66500Y-75707D01*
Y-72500D01*
D02*
G37*
G36*
X56500D02*
X53293D01*
X53356Y-72976D01*
X53733Y-73886D01*
X54333Y-74668D01*
X55114Y-75267D01*
X56024Y-75644D01*
X56500Y-75707D01*
Y-72500D01*
D02*
G37*
G36*
X-58500D02*
X-61707D01*
X-61644Y-72976D01*
X-61267Y-73886D01*
X-60668Y-74668D01*
X-59886Y-75267D01*
X-58976Y-75644D01*
X-58500Y-75707D01*
Y-72500D01*
D02*
G37*
G36*
X25835Y-75138D02*
X21413D01*
Y-77000D01*
X25835D01*
Y-75138D01*
D02*
G37*
G36*
X20413D02*
X15992D01*
Y-77000D01*
X20413D01*
Y-75138D01*
D02*
G37*
G36*
X67500Y-78293D02*
Y-81500D01*
X70707D01*
X70644Y-81024D01*
X70267Y-80114D01*
X69668Y-79333D01*
X68886Y-78733D01*
X67976Y-78356D01*
X67500Y-78293D01*
D02*
G37*
G36*
X57500D02*
Y-81500D01*
X60707D01*
X60644Y-81024D01*
X60267Y-80114D01*
X59667Y-79333D01*
X58886Y-78733D01*
X57976Y-78356D01*
X57500Y-78293D01*
D02*
G37*
G36*
X-57500D02*
Y-81500D01*
X-54293D01*
X-54356Y-81024D01*
X-54733Y-80114D01*
X-55332Y-79333D01*
X-56114Y-78733D01*
X-57024Y-78356D01*
X-57500Y-78293D01*
D02*
G37*
G36*
X-67500D02*
Y-81500D01*
X-64293D01*
X-64356Y-81024D01*
X-64733Y-80114D01*
X-65333Y-79333D01*
X-66114Y-78733D01*
X-67024Y-78356D01*
X-67500Y-78293D01*
D02*
G37*
G36*
X66500D02*
X66024Y-78356D01*
X65114Y-78733D01*
X64332Y-79333D01*
X63733Y-80114D01*
X63356Y-81024D01*
X63293Y-81500D01*
X66500D01*
Y-78293D01*
D02*
G37*
G36*
X56500D02*
X56024Y-78356D01*
X55114Y-78733D01*
X54333Y-79333D01*
X53733Y-80114D01*
X53356Y-81024D01*
X53293Y-81500D01*
X56500D01*
Y-78293D01*
D02*
G37*
G36*
X-58500D02*
X-58976Y-78356D01*
X-59886Y-78733D01*
X-60668Y-79333D01*
X-61267Y-80114D01*
X-61644Y-81024D01*
X-61707Y-81500D01*
X-58500D01*
Y-78293D01*
D02*
G37*
G36*
X-68500D02*
X-68976Y-78356D01*
X-69886Y-78733D01*
X-70667Y-79333D01*
X-71267Y-80114D01*
X-71644Y-81024D01*
X-71707Y-81500D01*
X-68500D01*
Y-78293D01*
D02*
G37*
G36*
X48717Y-79850D02*
X46500D01*
Y-81968D01*
X48717D01*
Y-79850D01*
D02*
G37*
G36*
X45500D02*
X43284D01*
Y-81968D01*
X45500D01*
Y-79850D01*
D02*
G37*
G36*
X20913Y-77500D02*
D01*
Y-78000D01*
X15992D01*
Y-79638D01*
X15992Y-80000D01*
X15992Y-80362D01*
Y-82000D01*
X20913D01*
X25835D01*
Y-80362D01*
X25835Y-80000D01*
X25835Y-79638D01*
Y-78000D01*
X20913D01*
Y-77500D01*
D02*
G37*
G36*
X48717Y-82968D02*
X46500D01*
Y-85087D01*
X48717D01*
Y-82968D01*
D02*
G37*
G36*
X45500D02*
X43284D01*
Y-85087D01*
X45500D01*
Y-82968D01*
D02*
G37*
G36*
X48717Y-89031D02*
X46500D01*
Y-91150D01*
X48717D01*
Y-89031D01*
D02*
G37*
G36*
X45500D02*
X43284D01*
Y-91150D01*
X45500D01*
Y-89031D01*
D02*
G37*
G36*
X67500Y-88293D02*
Y-91500D01*
X70707D01*
X70644Y-91024D01*
X70267Y-90114D01*
X69668Y-89332D01*
X68886Y-88733D01*
X67976Y-88356D01*
X67500Y-88293D01*
D02*
G37*
G36*
X-57500D02*
Y-91500D01*
X-54293D01*
X-54356Y-91024D01*
X-54733Y-90114D01*
X-55332Y-89332D01*
X-56114Y-88733D01*
X-57024Y-88356D01*
X-57500Y-88293D01*
D02*
G37*
G36*
X66500D02*
X66024Y-88356D01*
X65114Y-88733D01*
X64332Y-89332D01*
X63733Y-90114D01*
X63356Y-91024D01*
X63293Y-91500D01*
X66500D01*
Y-88293D01*
D02*
G37*
G36*
X-58500D02*
X-58976Y-88356D01*
X-59886Y-88733D01*
X-60668Y-89332D01*
X-61267Y-90114D01*
X-61644Y-91024D01*
X-61707Y-91500D01*
X-58500D01*
Y-88293D01*
D02*
G37*
G36*
X70707Y-92500D02*
X67500D01*
Y-95707D01*
X67976Y-95644D01*
X68886Y-95267D01*
X69668Y-94668D01*
X70267Y-93886D01*
X70644Y-92976D01*
X70707Y-92500D01*
D02*
G37*
G36*
X-54293D02*
X-57500D01*
Y-95707D01*
X-57024Y-95644D01*
X-56114Y-95267D01*
X-55332Y-94668D01*
X-54733Y-93886D01*
X-54356Y-92976D01*
X-54293Y-92500D01*
D02*
G37*
G36*
X66500D02*
X63293D01*
X63356Y-92976D01*
X63733Y-93886D01*
X64332Y-94668D01*
X65114Y-95267D01*
X66024Y-95644D01*
X66500Y-95707D01*
Y-92500D01*
D02*
G37*
G36*
X-58500D02*
X-61707D01*
X-61644Y-92976D01*
X-61267Y-93886D01*
X-60668Y-94668D01*
X-59886Y-95267D01*
X-58976Y-95644D01*
X-58500Y-95707D01*
Y-92500D01*
D02*
G37*
G36*
X-68000Y-88228D02*
X-68976Y-88356D01*
X-69886Y-88733D01*
X-70667Y-89332D01*
X-71267Y-90114D01*
X-71644Y-91024D01*
X-71772Y-92000D01*
X-71644Y-92976D01*
X-71267Y-93886D01*
X-70667Y-94668D01*
X-69886Y-95267D01*
X-68976Y-95644D01*
X-68000Y-95772D01*
X-67024Y-95644D01*
X-66114Y-95267D01*
X-65333Y-94668D01*
X-64733Y-93886D01*
X-64356Y-92976D01*
X-64228Y-92000D01*
X-64356Y-91024D01*
X-64733Y-90114D01*
X-65333Y-89332D01*
X-66114Y-88733D01*
X-67024Y-88356D01*
X-68000Y-88228D01*
D02*
G37*
G36*
X67500Y-98293D02*
Y-101500D01*
X70707D01*
X70644Y-101024D01*
X70267Y-100114D01*
X69668Y-99332D01*
X68886Y-98733D01*
X67976Y-98356D01*
X67500Y-98293D01*
D02*
G37*
G36*
X-67500D02*
Y-101500D01*
X-64293D01*
X-64356Y-101024D01*
X-64733Y-100114D01*
X-65333Y-99332D01*
X-66114Y-98733D01*
X-67024Y-98356D01*
X-67500Y-98293D01*
D02*
G37*
G36*
X66500D02*
X66024Y-98356D01*
X65114Y-98733D01*
X64332Y-99332D01*
X63733Y-100114D01*
X63356Y-101024D01*
X63293Y-101500D01*
X66500D01*
Y-98293D01*
D02*
G37*
G36*
X-68500D02*
X-68976Y-98356D01*
X-69886Y-98733D01*
X-70667Y-99332D01*
X-71267Y-100114D01*
X-71644Y-101024D01*
X-71707Y-101500D01*
X-68500D01*
Y-98293D01*
D02*
G37*
G36*
X70707Y-102500D02*
X67500D01*
Y-105707D01*
X67976Y-105644D01*
X68886Y-105267D01*
X69668Y-104667D01*
X70267Y-103886D01*
X70644Y-102976D01*
X70707Y-102500D01*
D02*
G37*
G36*
X-64293D02*
X-67500D01*
Y-105707D01*
X-67024Y-105644D01*
X-66114Y-105267D01*
X-65333Y-104667D01*
X-64733Y-103886D01*
X-64356Y-102976D01*
X-64293Y-102500D01*
D02*
G37*
G36*
X66500D02*
X63293D01*
X63356Y-102976D01*
X63733Y-103886D01*
X64332Y-104667D01*
X65114Y-105267D01*
X66024Y-105644D01*
X66500Y-105707D01*
Y-102500D01*
D02*
G37*
G36*
X-68500D02*
X-71707D01*
X-71644Y-102976D01*
X-71267Y-103886D01*
X-70667Y-104667D01*
X-69886Y-105267D01*
X-68976Y-105644D01*
X-68500Y-105707D01*
Y-102500D01*
D02*
G37*
G36*
X48717Y-111350D02*
X46500D01*
Y-113469D01*
X48717D01*
Y-111350D01*
D02*
G37*
G36*
X45500D02*
X43284D01*
Y-113469D01*
X45500D01*
Y-111350D01*
D02*
G37*
G36*
X48717Y-114469D02*
X46500D01*
Y-116587D01*
X48717D01*
Y-114469D01*
D02*
G37*
G36*
X45500D02*
X43284D01*
Y-116587D01*
X45500D01*
Y-114469D01*
D02*
G37*
G36*
X25835Y-113000D02*
X20913D01*
X15992D01*
Y-114638D01*
X15992Y-115000D01*
X15992Y-115362D01*
Y-117000D01*
X20913D01*
X25835D01*
Y-115362D01*
X25835Y-115000D01*
X25835Y-114638D01*
Y-113000D01*
D02*
G37*
G36*
Y-118000D02*
X21413D01*
Y-119862D01*
X25835D01*
Y-118000D01*
D02*
G37*
G36*
X20413D02*
X15992D01*
Y-119862D01*
X20413D01*
Y-118000D01*
D02*
G37*
G36*
X-67500Y-118293D02*
Y-121500D01*
X-64293D01*
X-64356Y-121024D01*
X-64733Y-120114D01*
X-65333Y-119333D01*
X-66114Y-118733D01*
X-67024Y-118356D01*
X-67500Y-118293D01*
D02*
G37*
G36*
X-68500D02*
X-68976Y-118356D01*
X-69886Y-118733D01*
X-70667Y-119333D01*
X-71267Y-120114D01*
X-71644Y-121024D01*
X-71707Y-121500D01*
X-68500D01*
Y-118293D01*
D02*
G37*
G36*
X-64293Y-122500D02*
X-67500D01*
Y-125707D01*
X-67024Y-125644D01*
X-66114Y-125267D01*
X-65333Y-124668D01*
X-64733Y-123886D01*
X-64356Y-122976D01*
X-64293Y-122500D01*
D02*
G37*
G36*
X-68500D02*
X-71707D01*
X-71644Y-122976D01*
X-71267Y-123886D01*
X-70667Y-124668D01*
X-69886Y-125267D01*
X-68976Y-125644D01*
X-68500Y-125707D01*
Y-122500D01*
D02*
G37*
G36*
X13862Y-123079D02*
X12000D01*
Y-127500D01*
X13862D01*
Y-123079D01*
D02*
G37*
G36*
X57000Y-88228D02*
X56024Y-88356D01*
X55114Y-88733D01*
X54333Y-89332D01*
X53733Y-90114D01*
X53356Y-91024D01*
X53228Y-92000D01*
X53356Y-92976D01*
X53733Y-93886D01*
X54333Y-94668D01*
X54592Y-94866D01*
Y-99134D01*
X54333Y-99332D01*
X53733Y-100114D01*
X53576Y-100493D01*
X49317Y-104752D01*
X46000D01*
X45281Y-104847D01*
X45119Y-104913D01*
X43284D01*
Y-105092D01*
X43000D01*
X42078Y-105275D01*
X41297Y-105797D01*
X22323Y-124771D01*
X21763Y-125003D01*
X21187Y-125444D01*
X20746Y-126020D01*
X20468Y-126691D01*
X20373Y-127410D01*
X20468Y-128129D01*
X20746Y-128800D01*
X21187Y-129376D01*
X21763Y-129817D01*
X22433Y-130095D01*
X23153Y-130190D01*
X23872Y-130095D01*
X24543Y-129817D01*
X25118Y-129376D01*
X25560Y-128800D01*
X25838Y-128129D01*
X25847Y-128059D01*
X30298Y-123608D01*
X30760Y-123800D01*
Y-131224D01*
X38240D01*
Y-127813D01*
X39433D01*
X39935Y-127713D01*
X40361Y-127428D01*
X45140Y-122650D01*
X48687D01*
X48717Y-122650D01*
X49187Y-122720D01*
Y-123401D01*
X39913Y-132676D01*
X13862D01*
Y-128500D01*
X11500D01*
Y-128000D01*
X11000D01*
Y-123079D01*
X9138D01*
Y-123079D01*
X8862D01*
Y-123079D01*
X4138D01*
Y-123079D01*
X3862D01*
Y-123079D01*
X-862D01*
Y-123079D01*
X-1138D01*
Y-123079D01*
X-5862D01*
X-5862Y-123079D01*
X-6138D01*
Y-123079D01*
X-6362Y-123079D01*
X-10862D01*
X-10862Y-123079D01*
X-11138D01*
Y-123079D01*
X-11362Y-123079D01*
X-15862D01*
X-15862Y-123079D01*
X-16138D01*
Y-123079D01*
X-16362Y-123079D01*
X-18331D01*
X-18362Y-122923D01*
X-18647Y-122497D01*
X-20572Y-120572D01*
X-20998Y-120287D01*
X-21500Y-120187D01*
X-30472D01*
X-30687Y-120011D01*
Y-115000D01*
X-30787Y-114498D01*
X-31072Y-114072D01*
X-33524Y-111620D01*
X-33950Y-111335D01*
X-34452Y-111235D01*
X-34579Y-111109D01*
X-34579Y-110000D01*
X-34579Y-109638D01*
Y-105362D01*
X-34579Y-105000D01*
X-34579Y-104638D01*
Y-100362D01*
X-34579Y-100000D01*
X-34579Y-99638D01*
Y-98000D01*
X-39500D01*
X-44421D01*
Y-100334D01*
X-44775Y-100687D01*
X-54495D01*
X-54733Y-100114D01*
X-55332Y-99332D01*
X-56114Y-98733D01*
X-57024Y-98356D01*
X-58000Y-98228D01*
X-58976Y-98356D01*
X-59886Y-98733D01*
X-60668Y-99332D01*
X-61267Y-100114D01*
X-61644Y-101024D01*
X-61772Y-102000D01*
X-61644Y-102976D01*
X-61267Y-103886D01*
X-60668Y-104667D01*
X-59886Y-105267D01*
X-58976Y-105644D01*
X-58000Y-105772D01*
X-57024Y-105644D01*
X-56114Y-105267D01*
X-55332Y-104667D01*
X-54733Y-103886D01*
X-54495Y-103313D01*
X-44775D01*
X-44421Y-103666D01*
X-44421Y-105000D01*
X-44421Y-105362D01*
Y-106187D01*
X-53500D01*
X-54002Y-106287D01*
X-54428Y-106572D01*
X-56450Y-108594D01*
X-57024Y-108356D01*
X-58000Y-108228D01*
X-58976Y-108356D01*
X-59886Y-108733D01*
X-60668Y-109333D01*
X-61267Y-110114D01*
X-61644Y-111024D01*
X-61772Y-112000D01*
X-61644Y-112976D01*
X-61267Y-113886D01*
X-60668Y-114667D01*
X-59886Y-115267D01*
X-58976Y-115644D01*
X-58000Y-115772D01*
X-57024Y-115644D01*
X-56114Y-115267D01*
X-55332Y-114667D01*
X-54733Y-113886D01*
X-54356Y-112976D01*
X-54228Y-112000D01*
X-54356Y-111024D01*
X-54594Y-110450D01*
X-52956Y-108813D01*
X-44775D01*
X-44421Y-109166D01*
Y-110334D01*
X-44775Y-110687D01*
X-45000D01*
X-45502Y-110787D01*
X-45928Y-111072D01*
X-54568Y-119711D01*
X-55067Y-119679D01*
X-55332Y-119333D01*
X-56114Y-118733D01*
X-57024Y-118356D01*
X-58000Y-118228D01*
X-58976Y-118356D01*
X-59886Y-118733D01*
X-60563Y-119252D01*
X-61063Y-119094D01*
Y-117624D01*
X-61163Y-117122D01*
X-61447Y-116696D01*
X-64594Y-113550D01*
X-64356Y-112976D01*
X-64228Y-112000D01*
X-64356Y-111024D01*
X-64733Y-110114D01*
X-65333Y-109333D01*
X-66114Y-108733D01*
X-67024Y-108356D01*
X-68000Y-108228D01*
X-68976Y-108356D01*
X-69886Y-108733D01*
X-70667Y-109333D01*
X-71267Y-110114D01*
X-71644Y-111024D01*
X-71772Y-112000D01*
X-71644Y-112976D01*
X-71267Y-113886D01*
X-70667Y-114667D01*
X-69886Y-115267D01*
X-68976Y-115644D01*
X-68000Y-115772D01*
X-67024Y-115644D01*
X-66450Y-115406D01*
X-63688Y-118168D01*
Y-146309D01*
X-64079Y-146570D01*
X-64601Y-147352D01*
X-64784Y-148273D01*
X-64601Y-149195D01*
X-64079Y-149976D01*
X-63297Y-150499D01*
X-62375Y-150682D01*
X-62338Y-150674D01*
X-62102Y-151115D01*
X-66296Y-155309D01*
X-66796Y-155102D01*
Y-145549D01*
X-66114Y-145267D01*
X-65333Y-144667D01*
X-64733Y-143886D01*
X-64356Y-142976D01*
X-64228Y-142000D01*
X-64356Y-141024D01*
X-64733Y-140114D01*
X-65333Y-139332D01*
X-66114Y-138733D01*
X-67024Y-138356D01*
X-68000Y-138228D01*
X-68976Y-138356D01*
X-69886Y-138733D01*
X-70667Y-139332D01*
X-71267Y-140114D01*
X-71644Y-141024D01*
X-71772Y-142000D01*
X-71644Y-142976D01*
X-71267Y-143886D01*
X-70667Y-144667D01*
X-69886Y-145267D01*
X-69204Y-145549D01*
Y-196500D01*
X-69204Y-196500D01*
X-69113Y-196961D01*
X-68852Y-197352D01*
X-66852Y-199352D01*
X-66852Y-199352D01*
X-65909Y-200294D01*
X-66000Y-200478D01*
Y-203500D01*
Y-206214D01*
X-65781Y-206185D01*
X-65110Y-205907D01*
X-64666Y-205567D01*
X-64447Y-205713D01*
X-63945Y-205813D01*
X-61582D01*
Y-205831D01*
X-57646D01*
Y-205150D01*
X-54103D01*
Y-202500D01*
X-54103Y-202000D01*
X-54103D01*
Y-202000D01*
X-54103D01*
Y-198851D01*
Y-196201D01*
X-54103Y-195701D01*
X-54103D01*
Y-195701D01*
X-54103D01*
Y-193051D01*
X-54103Y-192551D01*
X-54103D01*
Y-192551D01*
X-54103D01*
Y-191982D01*
X-53603Y-191830D01*
X-53493Y-191993D01*
X-48994Y-196493D01*
X-48538Y-196798D01*
X-48000Y-196905D01*
X-33727D01*
X-33433Y-197344D01*
X-32652Y-197866D01*
X-31730Y-198050D01*
X-30808Y-197866D01*
X-30027Y-197344D01*
X-29505Y-196563D01*
X-29322Y-195641D01*
X-29505Y-194719D01*
X-30027Y-193938D01*
X-30808Y-193416D01*
X-31730Y-193232D01*
X-32652Y-193416D01*
X-33433Y-193938D01*
X-33538Y-194095D01*
X-47418D01*
X-49681Y-191832D01*
X-49490Y-191370D01*
X-48106D01*
X-47606Y-191370D01*
Y-191370D01*
X-47606D01*
Y-191370D01*
X-41807D01*
X-41307Y-191370D01*
X-40807Y-191370D01*
X-35508D01*
X-35008Y-191370D01*
X-34508Y-191370D01*
X-31858D01*
Y-187434D01*
X-34508D01*
X-35008Y-187434D01*
X-35508Y-187434D01*
X-40807D01*
X-41307Y-187434D01*
X-41807Y-187434D01*
X-46586D01*
X-46822Y-186993D01*
X-46775Y-186922D01*
X-46591Y-186000D01*
X-46775Y-185078D01*
X-47297Y-184297D01*
X-48078Y-183775D01*
X-49000Y-183591D01*
X-49922Y-183775D01*
X-50595Y-184224D01*
X-51095Y-184052D01*
Y-180403D01*
X-50797Y-180203D01*
X-50275Y-179422D01*
X-50091Y-178500D01*
X-50275Y-177578D01*
X-50797Y-176797D01*
X-51578Y-176275D01*
X-52500Y-176091D01*
X-53422Y-176275D01*
X-53662Y-176435D01*
X-54103Y-176199D01*
Y-173654D01*
Y-170504D01*
X-57646D01*
Y-169429D01*
X-57646Y-168929D01*
X-57646D01*
Y-168929D01*
X-57646D01*
Y-165779D01*
X-57389Y-165385D01*
X-55980D01*
X-55480Y-165385D01*
Y-165385D01*
X-55480D01*
Y-165385D01*
X-50756D01*
Y-168929D01*
X-48106D01*
X-47606Y-168929D01*
Y-168929D01*
X-47606D01*
Y-168929D01*
X-41807D01*
X-41307Y-168929D01*
Y-168929D01*
X-41307D01*
Y-168929D01*
X-39181D01*
X-38795Y-169429D01*
X-38909Y-170000D01*
X-38725Y-170922D01*
X-38526Y-171220D01*
X-38793Y-171720D01*
X-42849D01*
X-44034Y-170535D01*
X-44610Y-170093D01*
X-45281Y-169815D01*
X-46000Y-169720D01*
X-49000D01*
X-49719Y-169815D01*
X-50390Y-170093D01*
X-50965Y-170535D01*
X-51407Y-171110D01*
X-51685Y-171781D01*
X-51780Y-172500D01*
X-51685Y-173219D01*
X-51407Y-173890D01*
X-50965Y-174466D01*
X-50390Y-174907D01*
X-49719Y-175185D01*
X-49000Y-175280D01*
X-47151D01*
X-45965Y-176465D01*
X-45390Y-176907D01*
X-44719Y-177185D01*
X-44000Y-177280D01*
X-34000D01*
X-33281Y-177185D01*
X-33254Y-177174D01*
X-32816Y-177534D01*
X-32909Y-178000D01*
X-32725Y-178922D01*
X-32203Y-179703D01*
X-31422Y-180225D01*
X-30500Y-180409D01*
X-29578Y-180225D01*
X-29011Y-179847D01*
X-28837Y-179884D01*
X-28512Y-180108D01*
Y-183103D01*
Y-185752D01*
X-28512Y-186252D01*
X-28512D01*
Y-186252D01*
X-28512D01*
Y-189402D01*
Y-192551D01*
X-24969D01*
Y-194126D01*
X-21032D01*
Y-190977D01*
Y-188327D01*
X-21032Y-187827D01*
X-21032D01*
Y-187827D01*
X-21032D01*
Y-185177D01*
X-21032Y-184677D01*
X-21032D01*
Y-184677D01*
X-21032D01*
Y-181528D01*
Y-178878D01*
X-21032Y-178378D01*
X-21032D01*
Y-178378D01*
X-21032D01*
Y-175604D01*
X-20548Y-175374D01*
X-20280Y-175581D01*
Y-184500D01*
X-20185Y-185219D01*
X-19907Y-185890D01*
X-19466Y-186466D01*
X-15966Y-189965D01*
X-15390Y-190407D01*
X-14719Y-190685D01*
X-14000Y-190780D01*
X-11811D01*
Y-195000D01*
Y-197968D01*
X-11716Y-198688D01*
X-11439Y-199358D01*
X-10997Y-199934D01*
X-8466Y-202466D01*
X-7890Y-202907D01*
X-7219Y-203185D01*
X-6500Y-203280D01*
X8225D01*
X8945Y-203185D01*
X9615Y-202907D01*
X10191Y-202466D01*
X12497Y-200159D01*
X12939Y-199584D01*
X12975Y-199495D01*
X13565Y-199378D01*
X15536Y-201349D01*
X16317Y-201871D01*
X17239Y-202054D01*
X17551D01*
Y-203189D01*
X17551D01*
X17753Y-203689D01*
X17591Y-204500D01*
X17775Y-205422D01*
X18297Y-206203D01*
X19078Y-206725D01*
X19252Y-206760D01*
X19203Y-207260D01*
X15276D01*
Y-210500D01*
X24724D01*
Y-207260D01*
X20798D01*
X20748Y-206760D01*
X20922Y-206725D01*
X21703Y-206203D01*
X21794Y-206067D01*
X24524D01*
X24565Y-206108D01*
X25073Y-206448D01*
X25187Y-206471D01*
X26283Y-207567D01*
Y-210587D01*
X31716D01*
Y-206776D01*
X32179Y-206585D01*
X33744Y-208150D01*
X33784Y-208448D01*
Y-210587D01*
X35575D01*
X35812Y-210685D01*
X36531Y-210780D01*
X46866D01*
Y-212634D01*
X55134D01*
Y-204366D01*
X46866D01*
Y-205220D01*
X37626D01*
X35754Y-203347D01*
X35885Y-203101D01*
X36018Y-202905D01*
X36922Y-202725D01*
X37703Y-202203D01*
X38225Y-201422D01*
X38409Y-200500D01*
X38225Y-199578D01*
X37806Y-198951D01*
Y-198118D01*
X38618D01*
Y-192685D01*
X33382D01*
Y-195258D01*
X32882Y-195410D01*
X32703Y-195142D01*
X30858Y-193297D01*
X30077Y-192775D01*
X29155Y-192592D01*
X28969D01*
Y-191851D01*
X32217D01*
X32816Y-191732D01*
X33325Y-191392D01*
X33599Y-191118D01*
X38618D01*
Y-185685D01*
X33382D01*
Y-187064D01*
X32892Y-187392D01*
X31567Y-188716D01*
X28969D01*
Y-187047D01*
X23760D01*
Y-190000D01*
X22760D01*
Y-187047D01*
X22059D01*
X21937Y-186547D01*
X22579Y-185905D01*
X22705D01*
X22937Y-185858D01*
X25067D01*
Y-183729D01*
X25113Y-183496D01*
X25067Y-183263D01*
Y-179756D01*
X21803D01*
X21612Y-179294D01*
X21998Y-178909D01*
X26499D01*
X26500Y-178909D01*
X27422Y-178725D01*
X28203Y-178203D01*
X28725Y-177422D01*
X28858Y-176754D01*
X29389Y-176649D01*
X29684Y-177090D01*
X30465Y-177612D01*
X31387Y-177796D01*
X32309Y-177612D01*
X33090Y-177090D01*
X33612Y-176309D01*
X33680Y-175968D01*
X33897Y-175751D01*
X35122D01*
X35297Y-175716D01*
X38587D01*
Y-170283D01*
X33350D01*
Y-172139D01*
X33149D01*
X32458Y-172276D01*
X31872Y-172668D01*
X31532Y-173007D01*
X31387Y-172978D01*
X30465Y-173162D01*
X29684Y-173684D01*
X29408Y-174096D01*
X28909Y-173944D01*
Y-168805D01*
X29957Y-167756D01*
X32555D01*
Y-162244D01*
X30621D01*
Y-160815D01*
X30484Y-160124D01*
X30092Y-159538D01*
X26400Y-155846D01*
X26719Y-155457D01*
X27176Y-155762D01*
X28097Y-155946D01*
X29019Y-155762D01*
X29801Y-155240D01*
X30323Y-154459D01*
X30479Y-153673D01*
X30959Y-153446D01*
X34564Y-157051D01*
Y-162284D01*
X33350D01*
Y-167717D01*
X38587D01*
Y-162284D01*
X37374D01*
Y-156468D01*
X37266Y-155931D01*
X36962Y-155475D01*
X30994Y-149506D01*
X30538Y-149202D01*
X30000Y-149095D01*
X-38552Y-149095D01*
X-38725Y-148595D01*
X-38275Y-147922D01*
X-38091Y-147000D01*
X-38184Y-146536D01*
X-37866Y-146150D01*
X-37784D01*
Y-140913D01*
X-43216D01*
Y-146150D01*
X-43134D01*
X-42816Y-146536D01*
X-42909Y-147000D01*
X-42725Y-147922D01*
X-42275Y-148595D01*
X-42448Y-149095D01*
X-45552D01*
X-45725Y-148595D01*
X-45275Y-147922D01*
X-45091Y-147000D01*
X-45184Y-146536D01*
X-44866Y-146150D01*
X-44783D01*
Y-140913D01*
X-50217D01*
Y-146150D01*
X-50134D01*
X-49816Y-146536D01*
X-49909Y-147000D01*
X-49725Y-147922D01*
X-49275Y-148595D01*
X-49448Y-149095D01*
X-59500Y-149095D01*
X-59626Y-149120D01*
X-60051Y-148695D01*
X-59967Y-148273D01*
X-60150Y-147352D01*
X-60672Y-146570D01*
X-61063Y-146309D01*
Y-145740D01*
X-54260D01*
Y-138260D01*
X-61063D01*
Y-134906D01*
X-60563Y-134748D01*
X-59886Y-135267D01*
X-58976Y-135644D01*
X-58000Y-135772D01*
X-57024Y-135644D01*
X-56114Y-135267D01*
X-55332Y-134668D01*
X-54733Y-133886D01*
X-54356Y-132976D01*
X-54228Y-132000D01*
X-54356Y-131024D01*
X-54733Y-130114D01*
X-54961Y-129817D01*
X-44835Y-119691D01*
X-44421Y-119862D01*
Y-119862D01*
X-40813D01*
Y-128456D01*
X-46999Y-134643D01*
X-47138Y-134850D01*
X-50217D01*
Y-140087D01*
X-44783D01*
Y-136265D01*
X-44758Y-136138D01*
Y-136115D01*
X-43716Y-135073D01*
X-43216Y-135280D01*
Y-140087D01*
X-37784D01*
Y-134850D01*
X-39187D01*
Y-134044D01*
X-35275Y-130131D01*
X-34813Y-130322D01*
Y-134850D01*
X-36217D01*
Y-140087D01*
X-32466D01*
X-32275Y-140549D01*
X-32640Y-140913D01*
X-36217D01*
Y-146150D01*
X-30784D01*
Y-142770D01*
X-29678Y-141665D01*
X-29217Y-141856D01*
Y-143032D01*
X-27000D01*
Y-140913D01*
X-28274D01*
X-28465Y-140451D01*
X-28126Y-140112D01*
X-27831D01*
X-27704Y-140087D01*
X-23784D01*
Y-135663D01*
X-23193D01*
X-11428Y-147428D01*
X-11002Y-147713D01*
X-10500Y-147813D01*
X62500D01*
X63002Y-147713D01*
X63428Y-147428D01*
X65116Y-145740D01*
X70740D01*
Y-138260D01*
X63304D01*
X62981Y-137875D01*
X65450Y-135406D01*
X66024Y-135644D01*
X67000Y-135772D01*
X67976Y-135644D01*
X68886Y-135267D01*
X69668Y-134668D01*
X70267Y-133886D01*
X70644Y-132976D01*
X70772Y-132000D01*
X70644Y-131024D01*
X70267Y-130114D01*
X69668Y-129332D01*
X68886Y-128733D01*
X67976Y-128356D01*
X67000Y-128228D01*
X66024Y-128356D01*
X65114Y-128733D01*
X64332Y-129332D01*
X63733Y-130114D01*
X63356Y-131024D01*
X63228Y-132000D01*
X63356Y-132976D01*
X63594Y-133550D01*
X61456Y-135687D01*
X59119D01*
X59091Y-135636D01*
X58990Y-135187D01*
X59667Y-134668D01*
X60267Y-133886D01*
X60644Y-132976D01*
X60772Y-132000D01*
X60644Y-131024D01*
X60267Y-130114D01*
X59667Y-129332D01*
X59607Y-129286D01*
X59768Y-128813D01*
X61500D01*
X62002Y-128713D01*
X62428Y-128428D01*
X65450Y-125406D01*
X66024Y-125644D01*
X67000Y-125772D01*
X67976Y-125644D01*
X68886Y-125267D01*
X69668Y-124668D01*
X70267Y-123886D01*
X70644Y-122976D01*
X70772Y-122000D01*
X70644Y-121024D01*
X70267Y-120114D01*
X69668Y-119333D01*
X68886Y-118733D01*
X67976Y-118356D01*
X67000Y-118228D01*
X66024Y-118356D01*
X65114Y-118733D01*
X64332Y-119333D01*
X63733Y-120114D01*
X63356Y-121024D01*
X63228Y-122000D01*
X63356Y-122976D01*
X63594Y-123550D01*
X60956Y-126187D01*
X57679D01*
X57646Y-125687D01*
X57976Y-125644D01*
X58886Y-125267D01*
X59667Y-124668D01*
X60267Y-123886D01*
X60644Y-122976D01*
X60772Y-122000D01*
X60644Y-121024D01*
X60267Y-120114D01*
X59667Y-119333D01*
X59607Y-119286D01*
X59768Y-118813D01*
X61500D01*
X62002Y-118713D01*
X62428Y-118428D01*
X65450Y-115406D01*
X66024Y-115644D01*
X67000Y-115772D01*
X67976Y-115644D01*
X68886Y-115267D01*
X69668Y-114667D01*
X70267Y-113886D01*
X70644Y-112976D01*
X70772Y-112000D01*
X70644Y-111024D01*
X70267Y-110114D01*
X69668Y-109333D01*
X68886Y-108733D01*
X67976Y-108356D01*
X67000Y-108228D01*
X66024Y-108356D01*
X65114Y-108733D01*
X64332Y-109333D01*
X63733Y-110114D01*
X63356Y-111024D01*
X63228Y-112000D01*
X63356Y-112976D01*
X63594Y-113550D01*
X60956Y-116187D01*
X57679D01*
X57646Y-115687D01*
X57976Y-115644D01*
X58886Y-115267D01*
X59667Y-114667D01*
X60267Y-113886D01*
X60644Y-112976D01*
X60772Y-112000D01*
X60644Y-111024D01*
X60267Y-110114D01*
X59667Y-109333D01*
X58886Y-108733D01*
X57976Y-108356D01*
X57000Y-108228D01*
X56024Y-108356D01*
X55114Y-108733D01*
X54333Y-109333D01*
X53733Y-110114D01*
X53356Y-111024D01*
X53228Y-112000D01*
X53356Y-112976D01*
X53594Y-113550D01*
X49572Y-117572D01*
X49287Y-117998D01*
X49216Y-118353D01*
X48717Y-118304D01*
Y-117413D01*
X43284D01*
Y-120793D01*
X38889Y-125187D01*
X38240D01*
Y-121776D01*
X32784D01*
X32592Y-121314D01*
X43756Y-110150D01*
X44033D01*
X44069Y-110173D01*
X44571Y-110273D01*
X45073Y-110173D01*
X45109Y-110150D01*
X45119D01*
X45281Y-110216D01*
X46000Y-110311D01*
X50468D01*
X51188Y-110216D01*
X51858Y-109939D01*
X52434Y-109497D01*
X56257Y-105675D01*
X57000Y-105772D01*
X57976Y-105644D01*
X58886Y-105267D01*
X59667Y-104667D01*
X60267Y-103886D01*
X60644Y-102976D01*
X60772Y-102000D01*
X60644Y-101024D01*
X60267Y-100114D01*
X59667Y-99332D01*
X59408Y-99134D01*
Y-94866D01*
X59667Y-94668D01*
X60267Y-93886D01*
X60644Y-92976D01*
X60772Y-92000D01*
X60644Y-91024D01*
X60267Y-90114D01*
X59667Y-89332D01*
X58886Y-88733D01*
X57976Y-88356D01*
X57000Y-88228D01*
D02*
G37*
G36*
X-68000Y-128228D02*
X-68976Y-128356D01*
X-69886Y-128733D01*
X-70667Y-129332D01*
X-71267Y-130114D01*
X-71644Y-131024D01*
X-71772Y-132000D01*
X-71644Y-132976D01*
X-71267Y-133886D01*
X-70667Y-134668D01*
X-69886Y-135267D01*
X-68976Y-135644D01*
X-68000Y-135772D01*
X-67024Y-135644D01*
X-66114Y-135267D01*
X-65333Y-134668D01*
X-64733Y-133886D01*
X-64356Y-132976D01*
X-64228Y-132000D01*
X-64356Y-131024D01*
X-64733Y-130114D01*
X-65333Y-129332D01*
X-66114Y-128733D01*
X-67024Y-128356D01*
X-68000Y-128228D01*
D02*
G37*
G36*
X-23784Y-140913D02*
X-26000D01*
Y-143032D01*
X-23784D01*
Y-140913D01*
D02*
G37*
G36*
Y-144032D02*
X-26000D01*
Y-146150D01*
X-23784D01*
Y-144032D01*
D02*
G37*
G36*
X-27000D02*
X-29217D01*
Y-146150D01*
X-27000D01*
Y-144032D01*
D02*
G37*
G36*
X66112Y-155421D02*
X63266D01*
Y-160236D01*
X66112D01*
Y-155421D01*
D02*
G37*
G36*
X62266D02*
X59419D01*
Y-160236D01*
X62266D01*
Y-155421D01*
D02*
G37*
G36*
X56663Y-158965D02*
X53620D01*
Y-162402D01*
X56663D01*
Y-158965D01*
D02*
G37*
G36*
X52620D02*
X49577D01*
Y-162402D01*
X52620D01*
Y-158965D01*
D02*
G37*
G36*
X56663Y-163402D02*
X53620D01*
Y-166839D01*
X56663D01*
Y-163402D01*
D02*
G37*
G36*
X52620D02*
X49577D01*
Y-166839D01*
X52620D01*
Y-163402D01*
D02*
G37*
G36*
X55679Y-168807D02*
X52734D01*
Y-169882D01*
X55679D01*
Y-168807D01*
D02*
G37*
G36*
X51734D02*
X48789D01*
Y-169882D01*
X51734D01*
Y-168807D01*
D02*
G37*
G36*
X66112Y-161236D02*
X59419D01*
Y-165854D01*
X58238D01*
Y-170079D01*
X62766D01*
X67293D01*
Y-165854D01*
X66112D01*
Y-161236D01*
D02*
G37*
G36*
X67293Y-171079D02*
X62766D01*
X58238D01*
Y-175197D01*
X58238Y-175303D01*
Y-175697D01*
X58238Y-175803D01*
Y-179921D01*
X62766D01*
X67293D01*
Y-175803D01*
X67293Y-175697D01*
Y-175303D01*
X67293Y-175197D01*
Y-171079D01*
D02*
G37*
G36*
X38587Y-178284D02*
X36468D01*
Y-180500D01*
X38587D01*
Y-178284D01*
D02*
G37*
G36*
X35469D02*
X33350D01*
Y-180500D01*
X35469D01*
Y-178284D01*
D02*
G37*
G36*
X38587Y-181500D02*
X36468D01*
Y-183716D01*
X38587D01*
Y-181500D01*
D02*
G37*
G36*
X35469D02*
X33350D01*
Y-183716D01*
X35469D01*
Y-181500D01*
D02*
G37*
G36*
X56663Y-184161D02*
X53620D01*
Y-187598D01*
X56663D01*
Y-184161D01*
D02*
G37*
G36*
X52620D02*
X49577D01*
Y-187598D01*
X52620D01*
Y-184161D01*
D02*
G37*
G36*
X44650Y-162284D02*
X39413D01*
Y-167717D01*
X42385D01*
X42434Y-167790D01*
X44427Y-169783D01*
X44220Y-170283D01*
X39413D01*
Y-175716D01*
X42860D01*
X44900Y-177757D01*
X44744Y-178271D01*
X44650Y-178284D01*
Y-178284D01*
X39413D01*
Y-183716D01*
X43249D01*
X43516Y-184216D01*
X43358Y-184454D01*
X42127Y-185685D01*
X39445D01*
Y-191118D01*
X44681D01*
Y-188240D01*
X45093Y-187828D01*
X45500Y-187909D01*
X46422Y-187725D01*
X47203Y-187203D01*
X47725Y-186422D01*
X47909Y-185500D01*
X47725Y-184578D01*
X47203Y-183797D01*
X46585Y-183384D01*
X46523Y-182824D01*
X46703Y-182703D01*
X46894Y-182417D01*
X50531D01*
X51222Y-182280D01*
X51353Y-182193D01*
X55679D01*
Y-179634D01*
Y-177075D01*
Y-174516D01*
Y-171957D01*
Y-170882D01*
X52234D01*
X48789D01*
Y-171957D01*
Y-174180D01*
X48037D01*
X47313Y-173456D01*
Y-169500D01*
X47213Y-168998D01*
X46928Y-168572D01*
X44672Y-166315D01*
X44650Y-166204D01*
Y-162284D01*
D02*
G37*
G36*
X67293Y-180921D02*
X62766D01*
X58238D01*
Y-185146D01*
X59419D01*
Y-189764D01*
X66112D01*
Y-185146D01*
X67293D01*
Y-180921D01*
D02*
G37*
G36*
X56663Y-188598D02*
X53620D01*
Y-192035D01*
X56663D01*
Y-188598D01*
D02*
G37*
G36*
X52620D02*
X49577D01*
Y-192035D01*
X52620D01*
Y-188598D01*
D02*
G37*
G36*
X44681Y-192685D02*
X42563D01*
Y-194902D01*
X44681D01*
Y-192685D01*
D02*
G37*
G36*
X41563D02*
X39445D01*
Y-194902D01*
X41563D01*
Y-192685D01*
D02*
G37*
G36*
X66112Y-190764D02*
X63266D01*
Y-195579D01*
X66112D01*
Y-190764D01*
D02*
G37*
G36*
X62266D02*
X59419D01*
Y-195579D01*
X62266D01*
Y-190764D01*
D02*
G37*
G36*
X44681Y-195902D02*
X42563D01*
Y-198118D01*
X44681D01*
Y-195902D01*
D02*
G37*
G36*
X41563D02*
X39445D01*
Y-198118D01*
X41563D01*
Y-195902D01*
D02*
G37*
G36*
X-21032Y-197275D02*
X-24969D01*
Y-199925D01*
X-24969Y-200425D01*
X-24969Y-200925D01*
Y-201500D01*
X-21032D01*
Y-200425D01*
X-21032Y-199925D01*
Y-197275D01*
D02*
G37*
G36*
X-67000Y-200786D02*
X-67219Y-200815D01*
X-67890Y-201093D01*
X-68466Y-201535D01*
X-68907Y-202110D01*
X-69185Y-202781D01*
X-69214Y-203000D01*
X-67000D01*
Y-200786D01*
D02*
G37*
G36*
X-31871Y-202255D02*
X-40697D01*
Y-204330D01*
X-31871D01*
Y-202255D01*
D02*
G37*
G36*
X-21032Y-202500D02*
X-24969D01*
Y-202679D01*
X-25262D01*
X-25765Y-202779D01*
X-26191Y-203063D01*
X-26475Y-203489D01*
X-26575Y-203991D01*
X-26475Y-204494D01*
X-26191Y-204920D01*
X-25765Y-205204D01*
X-25262Y-205304D01*
X-24969D01*
Y-205831D01*
X-23000D01*
X-21032D01*
Y-205304D01*
X-20931D01*
X-20429Y-205204D01*
X-20003Y-204920D01*
X-19719Y-204494D01*
X-19619Y-203991D01*
X-19719Y-203489D01*
X-20003Y-203063D01*
X-20429Y-202779D01*
X-20931Y-202679D01*
X-21032D01*
Y-202500D01*
D02*
G37*
G36*
X-67000Y-204000D02*
X-69214D01*
X-69185Y-204219D01*
X-68907Y-204890D01*
X-68466Y-205466D01*
X-67890Y-205907D01*
X-67219Y-206185D01*
X-67000Y-206214D01*
Y-204000D01*
D02*
G37*
G36*
X61500Y-204396D02*
Y-208000D01*
X65104D01*
X65027Y-207421D01*
X64611Y-206415D01*
X63948Y-205552D01*
X63085Y-204889D01*
X62079Y-204473D01*
X61500Y-204396D01*
D02*
G37*
G36*
X60500D02*
X59921Y-204473D01*
X58915Y-204889D01*
X58052Y-205552D01*
X57389Y-206415D01*
X56973Y-207421D01*
X56896Y-208000D01*
X60500D01*
Y-204396D01*
D02*
G37*
G36*
X65104Y-209000D02*
X61500D01*
Y-212604D01*
X62079Y-212527D01*
X63085Y-212111D01*
X63948Y-211448D01*
X64611Y-210585D01*
X65027Y-209579D01*
X65104Y-209000D01*
D02*
G37*
G36*
X60500D02*
X56896D01*
X56973Y-209579D01*
X57389Y-210585D01*
X58052Y-211448D01*
X58915Y-212111D01*
X59921Y-212527D01*
X60500Y-212604D01*
Y-209000D01*
D02*
G37*
G36*
X39217Y-211413D02*
X37000D01*
Y-213531D01*
X39217D01*
Y-211413D01*
D02*
G37*
G36*
X36000D02*
X33784D01*
Y-213531D01*
X36000D01*
Y-211413D01*
D02*
G37*
G36*
X19500Y-211500D02*
X15276D01*
Y-214740D01*
X19500D01*
Y-211500D01*
D02*
G37*
G36*
X-14730Y-202090D02*
X-15652Y-202274D01*
X-16433Y-202796D01*
X-16955Y-203577D01*
X-17139Y-204499D01*
X-16955Y-205421D01*
X-16433Y-206202D01*
X-15905Y-206555D01*
Y-207338D01*
X-15956D01*
Y-209468D01*
X-16002Y-209701D01*
X-15956Y-209933D01*
Y-214819D01*
X-6507D01*
Y-207338D01*
X-13095D01*
Y-206248D01*
X-13027Y-206202D01*
X-12505Y-205421D01*
X-12321Y-204499D01*
X-12505Y-203577D01*
X-13027Y-202796D01*
X-13808Y-202274D01*
X-14730Y-202090D01*
D02*
G37*
G36*
X39217Y-214531D02*
X37000D01*
Y-216650D01*
X39217D01*
Y-214531D01*
D02*
G37*
G36*
X36000D02*
X33784D01*
Y-216650D01*
X36000D01*
Y-214531D01*
D02*
G37*
%LPD*%
G36*
X27009Y-161563D02*
Y-162244D01*
X26059D01*
Y-164820D01*
X26056Y-164845D01*
X24797Y-166104D01*
X24275Y-166885D01*
X24092Y-167807D01*
Y-174091D01*
X21327D01*
Y-172351D01*
X21485Y-172115D01*
X21668Y-171193D01*
Y-167390D01*
X21485Y-166468D01*
X20963Y-165687D01*
X20941Y-165665D01*
Y-162244D01*
X17874D01*
X17693Y-162220D01*
X16048D01*
X15867Y-162244D01*
X14445D01*
Y-162512D01*
X13650D01*
Y-162284D01*
X8413D01*
Y-167717D01*
X8591D01*
Y-168929D01*
X7500D01*
Y-171882D01*
X6500D01*
Y-168929D01*
X3484D01*
X2771Y-168217D01*
X2978Y-167717D01*
X4468D01*
Y-165500D01*
X2350D01*
Y-167089D01*
X1850Y-167296D01*
X-265Y-165180D01*
X-851Y-164789D01*
X-1543Y-164651D01*
X-2773D01*
X-2856Y-164024D01*
X-3233Y-163114D01*
X-3832Y-162332D01*
X-4614Y-161733D01*
X-5524Y-161356D01*
X-6500Y-161227D01*
X-7476Y-161356D01*
X-8386Y-161733D01*
X-9168Y-162332D01*
X-9767Y-163114D01*
X-10144Y-164024D01*
X-10273Y-165000D01*
X-10180Y-165706D01*
X-10234Y-165757D01*
X-10653Y-165944D01*
X-11110Y-165593D01*
X-11781Y-165315D01*
X-12000Y-165286D01*
Y-168000D01*
Y-170714D01*
X-11781Y-170685D01*
X-11110Y-170407D01*
X-10535Y-169966D01*
X-10093Y-169390D01*
X-9815Y-168719D01*
X-9720Y-168000D01*
X-9757Y-167721D01*
X-9279Y-167523D01*
X-9168Y-167668D01*
X-8386Y-168267D01*
X-7476Y-168644D01*
X-6500Y-168773D01*
X-5524Y-168644D01*
X-4614Y-168267D01*
X-4479Y-168164D01*
X-3977Y-168264D01*
X-2291D01*
X1028Y-171583D01*
X851Y-172473D01*
Y-175155D01*
X1035Y-176077D01*
X1557Y-176858D01*
X3364Y-178665D01*
X3337Y-178915D01*
X3261Y-179165D01*
X1291D01*
Y-185071D01*
X1438D01*
X1850Y-185284D01*
X1850Y-185571D01*
Y-187500D01*
X7087D01*
Y-185284D01*
X5640D01*
X5228Y-185071D01*
X5228Y-184783D01*
Y-179409D01*
X8772D01*
Y-179995D01*
X8566Y-180153D01*
X8124Y-180728D01*
X7847Y-181399D01*
X7752Y-182118D01*
Y-187792D01*
X7720Y-188031D01*
Y-194968D01*
X7752Y-195208D01*
Y-196796D01*
X7587Y-196919D01*
X7087Y-196669D01*
Y-195500D01*
X1850D01*
Y-197716D01*
X1352Y-197720D01*
X148D01*
X-350Y-197716D01*
Y-195500D01*
X-2968D01*
X-5587D01*
Y-196443D01*
X-6087Y-196694D01*
X-6252Y-196570D01*
Y-195000D01*
Y-188000D01*
X-6346Y-187281D01*
X-6413Y-187119D01*
Y-185284D01*
X-8552D01*
X-9031Y-185220D01*
X-12849D01*
X-14387Y-183682D01*
X-14365Y-183531D01*
X-14097Y-183346D01*
X-13817Y-183246D01*
X-13000Y-183409D01*
X-12150Y-183239D01*
X-11768Y-183391D01*
X-11650Y-183454D01*
Y-183716D01*
X-6413D01*
Y-178284D01*
X-11650D01*
Y-178546D01*
X-11768Y-178609D01*
X-12150Y-178761D01*
X-13000Y-178591D01*
X-13922Y-178775D01*
X-14220Y-178974D01*
X-14720Y-178707D01*
Y-174306D01*
X-14815Y-173587D01*
X-15093Y-172916D01*
X-15534Y-172341D01*
X-16688Y-171188D01*
X-16688Y-171188D01*
X-16688Y-171188D01*
X-17841Y-170035D01*
X-18416Y-169593D01*
X-19087Y-169315D01*
X-19806Y-169220D01*
X-31479D01*
X-31532Y-169179D01*
X-31858Y-168763D01*
Y-165385D01*
X-27634D01*
X-27134Y-165385D01*
X-26634Y-165385D01*
X-23984Y-165385D01*
X-23484Y-165385D01*
X-22909D01*
Y-163417D01*
Y-161449D01*
X-23484D01*
X-23984Y-161449D01*
X-24484Y-161449D01*
X-27134Y-161449D01*
X-27634Y-161449D01*
X-32596D01*
X-32832Y-161008D01*
X-32775Y-160922D01*
X-32591Y-160000D01*
X-32775Y-159078D01*
X-33297Y-158297D01*
X-33315Y-158285D01*
X-33170Y-157806D01*
X23252Y-157806D01*
X27009Y-161563D01*
D02*
G37*
%LPC*%
G36*
X-21909Y-161449D02*
Y-162917D01*
X-20834D01*
Y-161449D01*
X-21909D01*
D02*
G37*
G36*
X7587Y-162284D02*
X5469D01*
Y-164500D01*
X7587D01*
Y-162284D01*
D02*
G37*
G36*
X4468D02*
X2350D01*
Y-164500D01*
X4468D01*
Y-162284D01*
D02*
G37*
G36*
X-20834Y-163917D02*
X-21909D01*
Y-165385D01*
X-20834D01*
Y-163917D01*
D02*
G37*
G36*
X-13000Y-165286D02*
X-13219Y-165315D01*
X-13890Y-165593D01*
X-14466Y-166034D01*
X-14907Y-166610D01*
X-15185Y-167281D01*
X-15214Y-167500D01*
X-13000D01*
Y-165286D01*
D02*
G37*
G36*
X7587Y-165500D02*
X5469D01*
Y-167717D01*
X7587D01*
Y-165500D01*
D02*
G37*
G36*
X-13000Y-168500D02*
X-15214D01*
X-15185Y-168719D01*
X-14907Y-169390D01*
X-14466Y-169966D01*
X-13890Y-170407D01*
X-13219Y-170685D01*
X-13000Y-170714D01*
Y-168500D01*
D02*
G37*
G36*
X-6413Y-171283D02*
X-8531D01*
Y-173500D01*
X-6413D01*
Y-171283D01*
D02*
G37*
G36*
X-9532D02*
X-11650D01*
Y-173500D01*
X-9532D01*
Y-171283D01*
D02*
G37*
G36*
X-6413Y-174500D02*
X-8531D01*
Y-176716D01*
X-6413D01*
Y-174500D01*
D02*
G37*
G36*
X-9532D02*
X-11650D01*
Y-176716D01*
X-9532D01*
Y-174500D01*
D02*
G37*
G36*
X-350Y-171283D02*
X-5587D01*
Y-176716D01*
X-4775D01*
Y-178284D01*
X-5587D01*
Y-183716D01*
X-350D01*
Y-178284D01*
X-1162D01*
Y-176716D01*
X-350D01*
Y-171283D01*
D02*
G37*
G36*
X-350Y-185284D02*
X-2468D01*
Y-187500D01*
X-350D01*
Y-185284D01*
D02*
G37*
G36*
X-3469D02*
X-5587D01*
Y-187500D01*
X-3469D01*
Y-185284D01*
D02*
G37*
G36*
X7087Y-188500D02*
X4969D01*
Y-190717D01*
X7087D01*
Y-188500D01*
D02*
G37*
G36*
X3968D02*
X1850D01*
Y-190717D01*
X3968D01*
Y-188500D01*
D02*
G37*
G36*
X-350D02*
X-2468D01*
Y-190717D01*
X-350D01*
Y-188500D01*
D02*
G37*
G36*
X-3469D02*
X-5587D01*
Y-190717D01*
X-3469D01*
Y-188500D01*
D02*
G37*
G36*
X-350Y-192283D02*
X-2468D01*
Y-194500D01*
X-350D01*
Y-192283D01*
D02*
G37*
G36*
X7087D02*
X4969D01*
Y-194500D01*
X7087D01*
Y-192283D01*
D02*
G37*
G36*
X3968D02*
X1850D01*
Y-194500D01*
X3968D01*
Y-192283D01*
D02*
G37*
G36*
X-3469D02*
X-5587D01*
Y-194500D01*
X-3469D01*
Y-192283D01*
D02*
G37*
%LPD*%
D10*
X11500Y-46500D02*
X23000D01*
X9843Y-39481D02*
X9906Y-39545D01*
Y-44906D02*
Y-39545D01*
Y-44906D02*
X11500Y-46500D01*
X21413Y-87000D02*
X21913Y-87500D01*
X2094Y-45094D02*
X4047Y-47047D01*
Y-51547D02*
Y-47047D01*
X2094Y-45094D02*
Y-40646D01*
X5953Y-34547D02*
X6000Y-34500D01*
X5906Y-40646D02*
X5953Y-40598D01*
Y-34547D01*
X-6000Y-34500D02*
X-5953Y-34547D01*
Y-40598D02*
X-5906Y-40646D01*
X-5953Y-40598D02*
Y-34547D01*
X-1969Y-44469D02*
Y-40646D01*
X-4650Y-47150D02*
X-1969Y-44469D01*
X-23500Y-46500D02*
X-12000D01*
X-10318Y-40134D02*
X-9843Y-39658D01*
X-10318Y-44818D02*
Y-40134D01*
X-12000Y-46500D02*
X-10318Y-44818D01*
X-13640Y-34640D02*
X-13500Y-34500D01*
X-13640Y-39834D02*
Y-34640D01*
X-18216Y-40146D02*
X-17717Y-40646D01*
X-25133Y-48133D02*
X-23500Y-46500D01*
X-45500Y-52000D02*
Y-44000D01*
X-25500Y-52000D02*
X-25133Y-51633D01*
X-45500Y-44000D02*
X-41646Y-40146D01*
X-25133Y-51633D02*
Y-48133D01*
X-41646Y-40146D02*
X-18216D01*
X-44548Y-117548D02*
X-39548D01*
X-68000Y-112000D02*
X-62375Y-117624D01*
Y-148273D02*
Y-117624D01*
X-56380Y-129380D02*
X-44548Y-117548D01*
X-63945Y-204500D02*
X-59614D01*
X-25262Y-203991D02*
X-20931D01*
X50488Y-178008D02*
X50531Y-178052D01*
X47008Y-178008D02*
X50488D01*
X47493Y-175493D02*
X50531D01*
X46000Y-174000D02*
X47493Y-175493D01*
X-52000Y-84500D02*
Y-69500D01*
X-40048Y-91952D02*
X-39500Y-92500D01*
X-44548Y-91952D02*
X-40048D01*
X-52000Y-84500D02*
X-44548Y-91952D01*
X45902Y-107531D02*
X46000D01*
X44571Y-108862D02*
X45902Y-107531D01*
X44571Y-108961D02*
Y-108862D01*
X-59614Y-206331D02*
Y-204500D01*
X-23000Y-206331D02*
Y-202000D01*
X-47500Y-147000D02*
Y-143532D01*
X-40500Y-147000D02*
Y-143532D01*
X-40000Y-102000D02*
X-39500Y-102500D01*
X-58000Y-102000D02*
X-40000D01*
X-53500Y-107500D02*
X-39500D01*
X-58000Y-112000D02*
X-53500Y-107500D01*
X-45000Y-112000D02*
X-40000D01*
X-54351Y-121351D02*
X-45000Y-112000D01*
X-57351Y-121351D02*
X-54351D01*
X-58000Y-122000D02*
X-57351Y-121351D01*
X-40000Y-112000D02*
X-39500Y-112500D01*
Y-112548D02*
X-34452D01*
X-39548Y-117548D02*
X-39500Y-117500D01*
X34500Y-126500D02*
X39433D01*
X45902Y-120031D01*
X46000D01*
X20913Y-102500D02*
X29174D01*
X34421Y-97253D01*
Y-96269D01*
X49000Y-142000D02*
X57000D01*
X-9287Y-144713D02*
X46287D01*
X49000Y-142000D01*
X51000Y-137000D02*
X62000D01*
X-3362Y-141138D02*
X44334D01*
X56075Y-132925D02*
X57000Y-132000D01*
X-6075Y-142925D02*
X45075D01*
X52547Y-132925D02*
X56075D01*
X44334Y-141138D02*
X52547Y-132925D01*
X45075Y-142925D02*
X51000Y-137000D01*
X51575Y-131009D02*
Y-131009D01*
X55083Y-127500D01*
X321Y-139350D02*
X43233D01*
X51575Y-131009D01*
X62000Y-137000D02*
X67000Y-132000D01*
X57000Y-122500D02*
Y-122000D01*
X3642Y-135776D02*
X41197D01*
X41937Y-137563D02*
X57000Y-122500D01*
X1063Y-137563D02*
X41937D01*
X41197Y-135776D02*
X52500Y-124472D01*
X40456Y-133988D02*
X50500Y-123944D01*
X52500Y-124472D02*
Y-120000D01*
X7134Y-133988D02*
X40456D01*
X50500Y-123944D02*
Y-118500D01*
X57000Y-112000D01*
X52500Y-120000D02*
X55000Y-117500D01*
X61500D02*
X67000Y-112000D01*
X55000Y-117500D02*
X61500D01*
X55083Y-127500D02*
X61500D01*
X1500Y-133634D02*
X3642Y-135776D01*
X1500Y-133634D02*
Y-128000D01*
X61500Y-127500D02*
X67000Y-122000D01*
X57000Y-112000D02*
Y-112000D01*
X-12425Y-132075D02*
X-3362Y-141138D01*
X-33500Y-143532D02*
X-33402D01*
X-28669Y-138799D01*
X-27831D01*
X-26500Y-137469D01*
X-32000Y-120500D02*
Y-115000D01*
X-34452Y-112548D02*
X-32000Y-115000D01*
X-35287Y-123787D02*
X-32000Y-120500D01*
X-35287Y-128287D02*
Y-123787D01*
X-33500Y-124528D02*
X-30472Y-121500D01*
X-21500D01*
X-33500Y-137469D02*
Y-124528D01*
X-21500Y-121500D02*
X-19575Y-123425D01*
Y-129484D02*
Y-123425D01*
Y-129484D02*
X-17425Y-131634D01*
X-40500Y-133500D02*
X-35287Y-128287D01*
X-40500Y-137469D02*
Y-133500D01*
X-22650Y-134350D02*
X-10500Y-146500D01*
X62500D01*
X-25650Y-134350D02*
X-22650D01*
X-27425Y-132575D02*
Y-129075D01*
Y-132575D02*
X-25650Y-134350D01*
X-28500Y-128000D02*
X-27425Y-129075D01*
X-15579Y-133421D02*
X-6075Y-142925D01*
X6548Y-133402D02*
Y-128048D01*
Y-133402D02*
X7134Y-133988D01*
X-15500Y-138500D02*
X-9287Y-144713D01*
X62500Y-146500D02*
X67000Y-142000D01*
X-3452Y-133048D02*
X1063Y-137563D01*
X-7395Y-131634D02*
X321Y-139350D01*
X-23500Y-130559D02*
Y-128000D01*
Y-130559D02*
X-15559Y-138500D01*
X-15500D01*
X-12425Y-132075D02*
Y-129075D01*
X-16362Y-132667D02*
Y-132638D01*
Y-132667D02*
X-15608Y-133421D01*
X-17425Y-131634D02*
X-17366D01*
X-16362Y-132638D01*
X-15608Y-133421D02*
X-15579D01*
X-13500Y-128000D02*
X-12425Y-129075D01*
X-7425Y-131634D02*
X-7395D01*
X-8500Y-130559D02*
Y-128000D01*
Y-130559D02*
X-7425Y-131634D01*
X-3500Y-128000D02*
X-3452Y-128048D01*
Y-133048D02*
Y-128048D01*
X-39500Y-129000D02*
Y-117500D01*
X-46204Y-136271D02*
X-46071Y-136138D01*
Y-135571D01*
X-39500Y-129000D01*
X6500Y-128000D02*
X6548Y-128048D01*
X-63000Y-67000D02*
X-54500D01*
X-52000Y-69500D01*
X-68000Y-62000D02*
X-63000Y-67000D01*
X-49500Y-81500D02*
Y-66000D01*
X-40415Y-86585D02*
X-39500Y-87500D01*
X-44415Y-86585D02*
X-40415D01*
X-49500Y-81500D02*
X-44415Y-86585D01*
X-58000Y-62000D02*
X-53500D01*
X-49500Y-66000D01*
X-44415Y-81585D02*
X-40415D01*
X-46500Y-79500D02*
Y-65500D01*
Y-79500D02*
X-44415Y-81585D01*
X-40415D02*
X-39500Y-82500D01*
X-55000Y-57000D02*
X-46500Y-65500D01*
X-68000Y-52000D02*
X-63000Y-57000D01*
X-55000D01*
X-58000Y-52000D02*
X-54000D01*
X-39500Y-77500D02*
Y-66500D01*
X-54000Y-52000D02*
X-39500Y-66500D01*
X23000Y-46500D02*
X24500Y-48000D01*
Y-53327D02*
Y-48000D01*
X4047Y-51547D02*
X4500Y-52000D01*
X34000Y-51500D02*
X34500Y-52000D01*
X-5500D02*
X-4650Y-51150D01*
Y-47150D01*
X-28500Y-67000D02*
Y-64441D01*
X-15500Y-53327D02*
Y-52000D01*
X-5500Y-52297D02*
Y-52000D01*
X23101Y-54726D02*
X24500Y-53327D01*
X23101Y-54899D02*
Y-54726D01*
X6500Y-67000D02*
Y-64441D01*
X20913Y-87500D02*
X21413Y-87000D01*
X-64500Y-196000D02*
Y-180500D01*
Y-196000D02*
X-61650Y-198850D01*
X-59614D01*
X-60352Y-163269D02*
X-60205Y-163417D01*
X-60352Y-163269D02*
Y-160148D01*
X-60500Y-160000D02*
X-60352Y-160148D01*
X43362Y-166862D02*
X46000Y-169500D01*
X43362Y-166862D02*
Y-166331D01*
X46000Y-174000D02*
Y-169500D01*
X42031Y-165000D02*
X43362Y-166331D01*
X43429Y-174429D02*
X47008Y-178008D01*
X43362Y-174429D02*
X43429D01*
X42031Y-173098D02*
X43362Y-174429D01*
X42031Y-173098D02*
Y-173000D01*
D11*
X-68000Y-196500D02*
X-66000Y-198500D01*
X-68000Y-196500D02*
Y-142000D01*
X-62500Y-202000D02*
X-59614D01*
X-66000Y-198500D02*
X-62500Y-202000D01*
D17*
X-23000Y-206331D02*
D03*
Y-198850D02*
D03*
Y-192551D02*
D03*
X-26543Y-190976D02*
D03*
Y-187827D02*
D03*
Y-184677D02*
D03*
X-23000Y-183102D02*
D03*
X-26543Y-181528D02*
D03*
X-23000Y-179953D02*
D03*
X-26543Y-178378D02*
D03*
X-23000Y-176803D02*
D03*
Y-186252D02*
D03*
Y-189402D02*
D03*
Y-202000D02*
D03*
X-59614Y-167354D02*
D03*
Y-170504D02*
D03*
Y-173654D02*
D03*
X-56071Y-175228D02*
D03*
Y-178378D02*
D03*
X-59614Y-176803D02*
D03*
X-56071Y-172079D02*
D03*
X-59614Y-179953D02*
D03*
X-56071Y-181528D02*
D03*
Y-184677D02*
D03*
X-59614Y-186252D02*
D03*
X-56071Y-187827D02*
D03*
X-59614Y-189402D02*
D03*
X-56071Y-190976D02*
D03*
X-59614Y-192551D02*
D03*
X-56071Y-194126D02*
D03*
Y-197276D02*
D03*
X-59614Y-198850D02*
D03*
X-56071Y-200425D02*
D03*
X-59614Y-202000D02*
D03*
X-56071Y-203575D02*
D03*
X-59614Y-206331D02*
D03*
D18*
X-22409Y-163417D02*
D03*
X-25559D02*
D03*
X-28709D02*
D03*
X-31858D02*
D03*
X-35008D02*
D03*
X-38157D02*
D03*
X-41307D02*
D03*
X-44457D02*
D03*
X-47606D02*
D03*
X-36583Y-166961D02*
D03*
X-39732D02*
D03*
X-42882D02*
D03*
X-46031D02*
D03*
X-49181D02*
D03*
X-57055Y-163417D02*
D03*
X-50756D02*
D03*
X-53905D02*
D03*
X-60205D02*
D03*
X-33433Y-166961D02*
D03*
Y-189402D02*
D03*
X-36583D02*
D03*
X-39732D02*
D03*
X-42882D02*
D03*
X-46031D02*
D03*
X-49181D02*
D03*
D19*
X17717Y-40646D02*
D03*
X13780D02*
D03*
X9843D02*
D03*
X5906D02*
D03*
X1969D02*
D03*
X-1969D02*
D03*
X-17717D02*
D03*
X-13780D02*
D03*
X-9843D02*
D03*
X-5906D02*
D03*
D20*
X-28543Y-31000D02*
D03*
X28543D02*
D03*
D21*
X20913Y-77500D02*
D03*
Y-82500D02*
D03*
Y-87500D02*
D03*
Y-92500D02*
D03*
Y-97500D02*
D03*
Y-102500D02*
D03*
Y-107500D02*
D03*
Y-112500D02*
D03*
X-39500Y-117500D02*
D03*
Y-112500D02*
D03*
Y-107500D02*
D03*
Y-102500D02*
D03*
Y-97500D02*
D03*
Y-92500D02*
D03*
Y-87500D02*
D03*
Y-82500D02*
D03*
Y-77500D02*
D03*
X20913Y-117500D02*
D03*
D22*
X11500Y-128000D02*
D03*
X6500D02*
D03*
X1500D02*
D03*
X-3500D02*
D03*
X-8500D02*
D03*
X-13500D02*
D03*
X-18500D02*
D03*
X-23500D02*
D03*
X-28500D02*
D03*
Y-67000D02*
D03*
X-23500D02*
D03*
X-18500D02*
D03*
X-13500D02*
D03*
X-8500D02*
D03*
X-3500D02*
D03*
X1500D02*
D03*
X6500D02*
D03*
D23*
X11500D02*
D03*
D24*
X17693Y-165000D02*
D03*
X29307D02*
D03*
D25*
X20000Y-211000D02*
D03*
X-11231Y-211079D02*
D03*
D26*
X-26500Y-137469D02*
D03*
Y-143532D02*
D03*
X36500Y-214032D02*
D03*
Y-207968D02*
D03*
X29000Y-207968D02*
D03*
Y-214032D02*
D03*
X46000Y-82468D02*
D03*
Y-88532D02*
D03*
Y-101469D02*
D03*
Y-107531D02*
D03*
Y-113969D02*
D03*
Y-120031D02*
D03*
X-33500Y-143532D02*
D03*
Y-137469D02*
D03*
X-40500Y-143532D02*
D03*
Y-137469D02*
D03*
X-47500Y-143532D02*
D03*
Y-137469D02*
D03*
D27*
X62766Y-190264D02*
D03*
Y-160736D02*
D03*
D28*
Y-170579D02*
D03*
Y-180421D02*
D03*
D29*
X52234Y-172941D02*
D03*
Y-175500D02*
D03*
Y-178059D02*
D03*
Y-180618D02*
D03*
Y-170382D02*
D03*
D30*
X53120Y-162902D02*
D03*
Y-188098D02*
D03*
D31*
X-6500Y-165000D02*
D03*
D32*
X42063Y-188402D02*
D03*
X36000D02*
D03*
X42063Y-195402D02*
D03*
X36000D02*
D03*
X-2968Y-181000D02*
D03*
X-9031D02*
D03*
X11032Y-165000D02*
D03*
X4969D02*
D03*
X42031Y-181000D02*
D03*
X35969D02*
D03*
X35969Y-165000D02*
D03*
X42031D02*
D03*
X-9031Y-188000D02*
D03*
X-2968D02*
D03*
X-9031Y-195000D02*
D03*
X-2968D02*
D03*
X10531Y-188000D02*
D03*
X4468D02*
D03*
X10531Y-195000D02*
D03*
X4468D02*
D03*
X42031Y-173000D02*
D03*
X35969D02*
D03*
X-2968Y-174000D02*
D03*
X-9031D02*
D03*
D33*
X26740Y-171193D02*
D03*
X19260D02*
D03*
X23000Y-182807D02*
D03*
D34*
X10740Y-171882D02*
D03*
X7000D02*
D03*
X3260D02*
D03*
Y-182118D02*
D03*
X10740D02*
D03*
X27000Y-200236D02*
D03*
X19520D02*
D03*
Y-190000D02*
D03*
X23260D02*
D03*
X27000D02*
D03*
D35*
X34500Y-126500D02*
D03*
X34421Y-95269D02*
D03*
D61*
X12377Y-36147D02*
X13583Y-37353D01*
Y-40449D02*
X13780Y-40646D01*
X13583Y-40449D02*
Y-37353D01*
X12377Y-36147D02*
Y-34877D01*
X12000Y-34500D02*
X12377Y-34877D01*
X45500Y-185500D02*
Y-185134D01*
X45366Y-185000D02*
X45500Y-185134D01*
X10793Y-52707D02*
X13793D01*
X-34747Y-52753D02*
X-31747D01*
X-23974Y-66526D02*
Y-60526D01*
X-31747Y-52753D02*
X-23974Y-60526D01*
X-32441Y-60500D02*
X-28500Y-64441D01*
X-37000Y-60500D02*
X-32441D01*
X-45500Y-52000D02*
X-37000Y-60500D01*
X6500Y-64441D02*
X10441Y-60500D01*
X17500D02*
X23101Y-54899D01*
X10441Y-60500D02*
X17500D01*
X-35500Y-52000D02*
X-34747Y-52753D01*
X-23974Y-66526D02*
X-23500Y-67000D01*
X-25500Y-52000D02*
X-24500D01*
X-18500Y-67000D02*
Y-58000D01*
X-24500Y-52000D02*
X-18500Y-58000D01*
X-3500Y-67000D02*
Y-58000D01*
X3747Y-52753D02*
X4500Y-52000D01*
X1747Y-52753D02*
X3747D01*
X-3500Y-58000D02*
X1747Y-52753D01*
X1500Y-67000D02*
X1974Y-66526D01*
Y-61526D02*
X10793Y-52707D01*
X1974Y-66526D02*
Y-61526D01*
X13793Y-52707D02*
X14500Y-52000D01*
X-13500Y-67000D02*
Y-55327D01*
X-15500Y-53327D02*
X-13500Y-55327D01*
X-8500Y-67000D02*
Y-55297D01*
X-5500Y-52297D01*
X26000Y-216000D02*
Y-215750D01*
Y-216000D02*
X26500Y-216500D01*
X-3977Y-166457D02*
X-1543D01*
X2701Y-170701D01*
X3063D01*
X28815Y-165000D02*
Y-160815D01*
X42031Y-180611D02*
X50531D01*
X-57055Y-163417D02*
Y-157555D01*
X-55500Y-156000D01*
X24000Y-156000D02*
X28815Y-160815D01*
X-55500Y-156000D02*
X24000Y-156000D01*
X3260Y-171882D02*
Y-170898D01*
X3063Y-170701D02*
X3260Y-170898D01*
X-4907Y-165527D02*
X-3977Y-166457D01*
X-5973Y-165527D02*
X-4907D01*
X-49181Y-186181D02*
X-49000Y-186000D01*
X-2968Y-181000D02*
Y-174000D01*
X35122Y-173945D02*
X35969Y-173098D01*
X33149Y-173945D02*
X35122D01*
X31793Y-175300D02*
X33149Y-173945D01*
X31474Y-175300D02*
X31793D01*
X31387Y-175387D02*
X31474Y-175300D01*
X42063Y-188303D02*
X45366Y-185000D01*
X42063Y-188402D02*
Y-188303D01*
X28902Y-214032D02*
X29000D01*
X27653Y-215280D02*
X28902Y-214032D01*
X27653Y-215347D02*
Y-215280D01*
X26500Y-216500D02*
X27653Y-215347D01*
X36000Y-195402D02*
X36000Y-195402D01*
X36000Y-200500D02*
Y-195402D01*
X36000Y-200500D02*
X36000Y-200500D01*
X26868Y-200368D02*
X27000Y-200236D01*
X23632Y-200368D02*
X26868D01*
X23500Y-200500D02*
X23632Y-200368D01*
X35969Y-173098D02*
Y-173000D01*
D62*
X57000Y-102000D02*
Y-92000D01*
X43000Y-107500D02*
X47500D01*
X23153Y-127410D02*
Y-127347D01*
X43000Y-107500D01*
X32421D02*
X38452Y-101469D01*
X20913Y-107500D02*
X32421D01*
X38452Y-101469D02*
X46000D01*
X15000Y-197407D02*
Y-182500D01*
X21000Y-176500D01*
X21913Y-87500D02*
X29000D01*
X26500Y-176500D02*
Y-167807D01*
X-35000Y-160000D02*
X-35000Y-160000D01*
X11000Y-175155D02*
Y-171882D01*
X3260Y-175155D02*
X5105Y-177000D01*
X9155D02*
X11000Y-175155D01*
X5105Y-177000D02*
X9155D01*
X3260Y-175155D02*
Y-172473D01*
X-12216Y-211079D02*
X-11231D01*
X-13594Y-209701D02*
X-12216Y-211079D01*
X11000Y-171882D02*
Y-166000D01*
X-6500Y-165000D02*
X-5973Y-165527D01*
X19260Y-171193D02*
Y-167390D01*
X16870Y-165000D02*
X19260Y-167390D01*
X26500Y-167807D02*
X29307Y-165000D01*
X21000Y-176500D02*
X26500D01*
X19126Y-199843D02*
Y-199646D01*
X17239D02*
X19126D01*
X15000Y-197407D02*
X17239Y-199646D01*
X19500Y-193000D02*
Y-189000D01*
Y-193000D02*
X21500Y-195000D01*
X31000Y-202000D02*
X36146Y-207146D01*
X21500Y-195000D02*
X29155D01*
X31000Y-196845D01*
Y-202000D02*
Y-196845D01*
X19441Y-189922D02*
Y-185636D01*
X21582Y-183496D02*
X22705D01*
X19441Y-185636D02*
X21582Y-183496D01*
X36146Y-207713D02*
Y-207146D01*
Y-207713D02*
X36433Y-208000D01*
D63*
X10531Y-188000D02*
Y-182118D01*
X-19806Y-172000D02*
X-17500Y-174306D01*
X46000Y-107531D02*
X50468D01*
X56000Y-102000D01*
X57000D01*
X28815Y-165000D02*
X29307D01*
X-49000Y-172500D02*
X-46000D01*
X-44000Y-174500D01*
X-34000D01*
X-31500Y-172000D01*
X-17500Y-184500D02*
Y-174306D01*
X-31500Y-172000D02*
X-19806D01*
X-9031Y-195000D02*
Y-188000D01*
Y-197968D02*
Y-195000D01*
X8225Y-200500D02*
X10531Y-198194D01*
Y-195000D01*
X-6500Y-200500D02*
X8225D01*
X10500Y-194968D02*
X10531Y-195000D01*
X10500Y-188031D02*
X10531Y-188000D01*
X10500Y-194968D02*
Y-188031D01*
X-9031Y-197968D02*
X-6500Y-200500D01*
X-17500Y-184500D02*
X-14000Y-188000D01*
X15756Y-165292D02*
X16048Y-165000D01*
X11323Y-165292D02*
X15756D01*
X16048Y-165000D02*
X16870D01*
X17693D01*
X36531Y-208000D02*
X50500D01*
X36500Y-207968D02*
X36531Y-208000D01*
X50500D02*
X51000Y-208500D01*
X-14000Y-188000D02*
X-9031D01*
D64*
X-14500Y-208716D02*
Y-204499D01*
X-48000Y-195500D02*
X-31730D01*
X-56071Y-178378D02*
X-52500D01*
X28060Y-153500D02*
X28097Y-153537D01*
X-63500Y-158000D02*
X-59000Y-153500D01*
X28060D01*
X-63500Y-165500D02*
Y-158000D01*
Y-165500D02*
X-61686Y-167314D01*
X-65500Y-168500D02*
Y-156500D01*
Y-168500D02*
X-63500Y-170500D01*
X-65500Y-156500D02*
X-59500Y-150500D01*
X-59654Y-167314D02*
X-59614Y-167354D01*
X-61686Y-167314D02*
X-59654D01*
X-63500Y-170500D02*
X-59500D01*
X-30500Y-178000D02*
X-30283Y-178217D01*
X-26704D02*
X-26543Y-178378D01*
X-30283Y-178217D02*
X-26704D01*
X-59500Y-150500D02*
X30000Y-150500D01*
X-36583Y-170370D02*
Y-166961D01*
X-35000Y-163409D02*
Y-160000D01*
X-14163Y-209053D02*
X-12946D01*
X-14500Y-208716D02*
X-14163Y-209053D01*
X-52500Y-191000D02*
Y-178500D01*
Y-191000D02*
X-48000Y-195500D01*
X-49181Y-189402D02*
Y-186181D01*
X-13000Y-181000D02*
X-9031D01*
X35969Y-165000D02*
Y-156468D01*
X30000Y-150500D02*
X35969Y-156468D01*
D65*
X-49000Y-162500D02*
Y-161000D01*
D66*
X19520Y-200236D02*
X20000Y-200717D01*
Y-204500D02*
Y-200717D01*
Y-204500D02*
X25173D01*
X25673Y-205000D01*
X25803Y-204870D01*
X28902Y-207968D01*
X27000Y-190284D02*
X32217D01*
X28902Y-207968D02*
X29000D01*
X32217Y-190284D02*
X34000Y-188500D01*
D67*
X-27094Y-213929D02*
Y-216606D01*
X-28879Y-213929D01*
Y-216606D01*
X-30217Y-213929D02*
X-31109D01*
X-31555Y-214375D01*
Y-215267D01*
X-31109Y-215713D01*
X-30217D01*
X-29771Y-215267D01*
Y-214375D01*
X-30217Y-213929D01*
X-36016Y-213037D02*
X-36462D01*
X-36908Y-213483D01*
Y-215713D01*
X-35570D01*
X-35124Y-215267D01*
Y-214375D01*
X-35570Y-213929D01*
X-36908D01*
X-37801Y-215713D02*
Y-213929D01*
Y-214821D01*
X-38247Y-215267D01*
X-38693Y-215713D01*
X-39139D01*
X-40923Y-213929D02*
X-41816D01*
X-42262Y-214375D01*
Y-215267D01*
X-41816Y-215713D01*
X-40923D01*
X-40477Y-215267D01*
Y-214375D01*
X-40923Y-213929D01*
X-43154Y-215713D02*
Y-214375D01*
X-43600Y-213929D01*
X-44938D01*
Y-215713D01*
X-45831Y-213929D02*
Y-215713D01*
X-47169D01*
X-47615Y-215267D01*
Y-213929D01*
X-50292Y-216606D02*
Y-213929D01*
X-48953D01*
X-48507Y-214375D01*
Y-215267D01*
X-48953Y-215713D01*
X-50292D01*
X-53860Y-213037D02*
Y-215713D01*
X-55199D01*
X-55645Y-215267D01*
Y-214375D01*
X-55199Y-213929D01*
X-53860D01*
X-56983Y-215713D02*
X-57875D01*
X-58321Y-215267D01*
Y-213929D01*
X-56983D01*
X-56537Y-214375D01*
X-56983Y-214821D01*
X-58321D01*
X-60998Y-216606D02*
Y-213929D01*
X-59660D01*
X-59214Y-214375D01*
Y-215267D01*
X-59660Y-215713D01*
X-60998D01*
D68*
X-32685Y-203516D02*
X-32908D01*
X-32797D01*
Y-203181D01*
X-33076D02*
X-33187D01*
X-33243Y-203237D01*
Y-203348D01*
X-33187Y-203404D01*
X-33076D01*
X-33020Y-203348D01*
Y-203237D01*
X-33076Y-203181D01*
X-33355Y-203069D02*
Y-203404D01*
X-33522D01*
X-33578Y-203348D01*
Y-203237D01*
X-33522Y-203181D01*
X-33355D01*
X-33689D02*
X-33801D01*
X-33745D01*
Y-203516D01*
X-33689D01*
X-34024Y-203404D02*
X-34136D01*
X-34192Y-203348D01*
Y-203181D01*
X-34024D01*
X-33968Y-203237D01*
X-34024Y-203292D01*
X-34192D01*
X-34303Y-203404D02*
Y-203237D01*
X-34359Y-203181D01*
X-34526D01*
Y-203125D01*
X-34471Y-203069D01*
X-34415D01*
X-34526Y-203181D02*
Y-203404D01*
X-34805Y-203181D02*
X-34694D01*
X-34638Y-203237D01*
Y-203348D01*
X-34694Y-203404D01*
X-34805D01*
X-34861Y-203348D01*
Y-203292D01*
X-34638D01*
X-34973Y-203404D02*
Y-203181D01*
Y-203292D01*
X-35029Y-203348D01*
X-35084Y-203404D01*
X-35140D01*
X-35642Y-203181D02*
Y-203404D01*
X-35810D01*
X-35866Y-203348D01*
Y-203181D01*
X-36033D02*
X-36145D01*
X-36200Y-203237D01*
Y-203348D01*
X-36145Y-203404D01*
X-36033D01*
X-35977Y-203348D01*
Y-203237D01*
X-36033Y-203181D01*
X-36758Y-203069D02*
X-36814D01*
X-36870Y-203125D01*
Y-203404D01*
X-36703D01*
X-36647Y-203348D01*
Y-203237D01*
X-36703Y-203181D01*
X-36870D01*
X-36982Y-203404D02*
Y-203181D01*
Y-203292D01*
X-37037Y-203348D01*
X-37093Y-203404D01*
X-37149D01*
X-37372Y-203181D02*
X-37484D01*
X-37539Y-203237D01*
Y-203348D01*
X-37484Y-203404D01*
X-37372D01*
X-37316Y-203348D01*
Y-203237D01*
X-37372Y-203181D01*
X-37651Y-203404D02*
Y-203237D01*
X-37707Y-203181D01*
X-37874D01*
Y-203404D01*
X-37986Y-203181D02*
Y-203404D01*
X-38153D01*
X-38209Y-203348D01*
Y-203181D01*
X-38544Y-203516D02*
Y-203181D01*
X-38377D01*
X-38321Y-203237D01*
Y-203348D01*
X-38377Y-203404D01*
X-38544D01*
X-38990Y-203069D02*
Y-203404D01*
X-39158D01*
X-39213Y-203348D01*
Y-203237D01*
X-39158Y-203181D01*
X-38990D01*
X-39381Y-203404D02*
X-39492D01*
X-39548Y-203348D01*
Y-203181D01*
X-39381D01*
X-39325Y-203237D01*
X-39381Y-203292D01*
X-39548D01*
X-39883Y-203516D02*
Y-203181D01*
X-39716D01*
X-39660Y-203237D01*
Y-203348D01*
X-39716Y-203404D01*
X-39883D01*
D69*
X-59181Y-37039D02*
D03*
X58417D02*
D03*
D70*
X67000Y-72000D02*
D03*
X57000D02*
D03*
X67000Y-62000D02*
D03*
X57000D02*
D03*
X67000Y-52000D02*
D03*
X57000D02*
D03*
Y-82000D02*
D03*
X67000D02*
D03*
X57000Y-92000D02*
D03*
X67000D02*
D03*
X57000Y-102000D02*
D03*
X67000D02*
D03*
X57000Y-112000D02*
D03*
X67000D02*
D03*
X57000Y-122000D02*
D03*
X67000D02*
D03*
X57000Y-132000D02*
D03*
X67000D02*
D03*
X57000Y-142000D02*
D03*
X24500Y-52000D02*
D03*
X-45500D02*
D03*
X-35500D02*
D03*
X-25500D02*
D03*
X-15500D02*
D03*
X-5500D02*
D03*
X4500D02*
D03*
X14500D02*
D03*
X34500D02*
D03*
X-68000Y-142000D02*
D03*
X-58000Y-132000D02*
D03*
X-68000D02*
D03*
X-58000Y-122000D02*
D03*
X-68000D02*
D03*
X-58000Y-112000D02*
D03*
X-68000D02*
D03*
X-58000Y-102000D02*
D03*
X-68000D02*
D03*
X-58000Y-92000D02*
D03*
X-68000D02*
D03*
X-58000Y-82000D02*
D03*
X-68000D02*
D03*
X-58000Y-72000D02*
D03*
X-68000D02*
D03*
X-58000Y-62000D02*
D03*
X-68000D02*
D03*
X-58000Y-52000D02*
D03*
X-68000D02*
D03*
D71*
X67000Y-142000D02*
D03*
X-58000D02*
D03*
D72*
X51000Y-208500D02*
D03*
D73*
X61000D02*
D03*
D74*
X44500Y-52000D02*
D03*
D75*
X6000Y-34500D02*
D03*
X-6000D02*
D03*
X-13500D02*
D03*
X12000D02*
D03*
X-66500Y-203500D02*
D03*
X-12500Y-168000D02*
D03*
X23153Y-127410D02*
D03*
X-18653Y-173153D02*
D03*
X29000Y-87500D02*
D03*
X-49000Y-161000D02*
D03*
Y-172500D02*
D03*
D76*
X-62375Y-148273D02*
D03*
X45500Y-185500D02*
D03*
X45000Y-181000D02*
D03*
X-14730Y-204499D02*
D03*
X-31730Y-195641D02*
D03*
X-47500Y-147000D02*
D03*
X-40500D02*
D03*
X-64500Y-180500D02*
D03*
X26000Y-215750D02*
D03*
X-60500Y-160000D02*
D03*
X28097Y-153537D02*
D03*
X-30500Y-178000D02*
D03*
X-52500Y-178500D02*
D03*
X-13000Y-181000D02*
D03*
X-49000Y-186000D02*
D03*
X-36500Y-170000D02*
D03*
X-35000Y-160000D02*
D03*
X31387Y-175387D02*
D03*
X36000Y-200500D02*
D03*
X26500Y-176500D02*
D03*
X20000Y-204500D02*
D03*
X23500Y-200500D02*
D03*
M02*
