G04*
G04 #@! TF.GenerationSoftware,Altium Limited,Altium Designer,20.2.6 (244)*
G04*
G04 Layer_Color=32896*
%FSLAX25Y25*%
%MOIN*%
G70*
G04*
G04 #@! TF.SameCoordinates,311AA1CE-0284-405A-9FC1-4CD4DC225AB5*
G04*
G04*
G04 #@! TF.FilePolarity,Positive*
G04*
G01*
G75*
G36*
X44000Y-85000D02*
X43875D01*
Y-91000D01*
X-42875D01*
Y-85000D01*
X-43154D01*
Y-68053D01*
X44000D01*
Y-85000D01*
D02*
G37*
G36*
X12074Y-209436D02*
X11603D01*
Y-207918D01*
Y-207857D01*
X11600Y-207802D01*
X11595Y-207749D01*
X11592Y-207699D01*
X11584Y-207655D01*
X11578Y-207614D01*
X11572Y-207575D01*
X11564Y-207539D01*
X11556Y-207508D01*
X11550Y-207481D01*
X11542Y-207458D01*
X11536Y-207439D01*
X11534Y-207425D01*
X11528Y-207414D01*
X11525Y-207409D01*
Y-207406D01*
X11492Y-207339D01*
X11451Y-207281D01*
X11409Y-207231D01*
X11365Y-207190D01*
X11326Y-207157D01*
X11295Y-207132D01*
X11282Y-207123D01*
X11273Y-207118D01*
X11268Y-207112D01*
X11265D01*
X11196Y-207076D01*
X11124Y-207049D01*
X11057Y-207029D01*
X10996Y-207015D01*
X10969Y-207010D01*
X10946Y-207007D01*
X10924Y-207004D01*
X10905D01*
X10888Y-207001D01*
X10869D01*
X10819Y-207004D01*
X10769Y-207010D01*
X10725Y-207015D01*
X10683Y-207026D01*
X10644Y-207040D01*
X10609Y-207054D01*
X10578Y-207068D01*
X10548Y-207082D01*
X10523Y-207098D01*
X10500Y-207112D01*
X10481Y-207126D01*
X10464Y-207140D01*
X10453Y-207151D01*
X10445Y-207157D01*
X10440Y-207162D01*
X10437Y-207165D01*
X10409Y-207198D01*
X10384Y-207234D01*
X10365Y-207273D01*
X10348Y-207312D01*
X10320Y-207398D01*
X10301Y-207481D01*
X10295Y-207520D01*
X10290Y-207558D01*
X10287Y-207592D01*
X10284Y-207619D01*
X10282Y-207644D01*
Y-207661D01*
Y-207675D01*
Y-207677D01*
Y-209436D01*
X9811D01*
Y-207677D01*
Y-207603D01*
X9816Y-207533D01*
X9819Y-207470D01*
X9827Y-207409D01*
X9833Y-207353D01*
X9841Y-207301D01*
X9852Y-207256D01*
X9861Y-207215D01*
X9869Y-207179D01*
X9880Y-207146D01*
X9888Y-207118D01*
X9894Y-207096D01*
X9902Y-207079D01*
X9905Y-207068D01*
X9910Y-207060D01*
Y-207057D01*
X9930Y-207018D01*
X9952Y-206979D01*
X10002Y-206913D01*
X10057Y-206855D01*
X10110Y-206808D01*
X10160Y-206769D01*
X10182Y-206755D01*
X10199Y-206741D01*
X10215Y-206733D01*
X10226Y-206725D01*
X10234Y-206719D01*
X10237D01*
X10282Y-206697D01*
X10326Y-206677D01*
X10417Y-206650D01*
X10506Y-206627D01*
X10589Y-206611D01*
X10628Y-206608D01*
X10664Y-206603D01*
X10694Y-206600D01*
X10719D01*
X10741Y-206597D01*
X10772D01*
X10863Y-206603D01*
X10952Y-206614D01*
X11035Y-206633D01*
X11113Y-206658D01*
X11187Y-206686D01*
X11254Y-206719D01*
X11318Y-206752D01*
X11376Y-206788D01*
X11426Y-206824D01*
X11473Y-206857D01*
X11512Y-206891D01*
X11545Y-206918D01*
X11570Y-206943D01*
X11589Y-206963D01*
X11600Y-206974D01*
X11603Y-206979D01*
Y-205603D01*
X12074D01*
Y-209436D01*
D02*
G37*
G36*
X-21238Y-206603D02*
X-21144Y-206616D01*
X-21100Y-206625D01*
X-21058Y-206636D01*
X-21022Y-206647D01*
X-20986Y-206658D01*
X-20956Y-206672D01*
X-20925Y-206683D01*
X-20900Y-206694D01*
X-20881Y-206702D01*
X-20864Y-206711D01*
X-20853Y-206716D01*
X-20845Y-206719D01*
X-20842Y-206722D01*
X-20764Y-206772D01*
X-20698Y-206827D01*
X-20637Y-206880D01*
X-20587Y-206932D01*
X-20549Y-206979D01*
X-20532Y-206999D01*
X-20521Y-207018D01*
X-20510Y-207032D01*
X-20501Y-207043D01*
X-20499Y-207049D01*
X-20496Y-207051D01*
Y-206658D01*
X-20075D01*
Y-209436D01*
X-20546D01*
Y-207996D01*
Y-207927D01*
X-20549Y-207863D01*
X-20554Y-207802D01*
X-20557Y-207747D01*
X-20562Y-207694D01*
X-20571Y-207647D01*
X-20576Y-207603D01*
X-20584Y-207564D01*
X-20590Y-207531D01*
X-20596Y-207500D01*
X-20604Y-207475D01*
X-20609Y-207453D01*
X-20615Y-207439D01*
X-20618Y-207425D01*
X-20620Y-207420D01*
Y-207417D01*
X-20654Y-207345D01*
X-20693Y-207284D01*
X-20731Y-207231D01*
X-20773Y-207187D01*
X-20809Y-207154D01*
X-20839Y-207129D01*
X-20850Y-207121D01*
X-20859Y-207115D01*
X-20864Y-207109D01*
X-20867D01*
X-20931Y-207073D01*
X-20994Y-207049D01*
X-21058Y-207029D01*
X-21114Y-207018D01*
X-21161Y-207010D01*
X-21183Y-207007D01*
X-21199D01*
X-21213Y-207004D01*
X-21233D01*
X-21280Y-207007D01*
X-21324Y-207010D01*
X-21366Y-207018D01*
X-21402Y-207029D01*
X-21438Y-207040D01*
X-21468Y-207054D01*
X-21496Y-207068D01*
X-21521Y-207082D01*
X-21540Y-207099D01*
X-21560Y-207112D01*
X-21576Y-207126D01*
X-21587Y-207137D01*
X-21598Y-207148D01*
X-21604Y-207157D01*
X-21609Y-207159D01*
Y-207162D01*
X-21629Y-207193D01*
X-21648Y-207229D01*
X-21676Y-207303D01*
X-21698Y-207381D01*
X-21712Y-207456D01*
X-21717Y-207492D01*
X-21720Y-207525D01*
X-21723Y-207556D01*
Y-207580D01*
X-21726Y-207603D01*
Y-207619D01*
Y-207630D01*
Y-207633D01*
Y-209436D01*
X-22197D01*
Y-207824D01*
X-22199Y-207747D01*
X-22205Y-207675D01*
X-22213Y-207608D01*
X-22227Y-207544D01*
X-22241Y-207489D01*
X-22258Y-207439D01*
X-22277Y-207392D01*
X-22294Y-207350D01*
X-22313Y-207314D01*
X-22330Y-207284D01*
X-22346Y-207259D01*
X-22360Y-207237D01*
X-22374Y-207220D01*
X-22382Y-207209D01*
X-22388Y-207204D01*
X-22390Y-207201D01*
X-22429Y-207165D01*
X-22468Y-207137D01*
X-22507Y-207109D01*
X-22548Y-207087D01*
X-22590Y-207068D01*
X-22629Y-207051D01*
X-22668Y-207040D01*
X-22706Y-207029D01*
X-22739Y-207021D01*
X-22773Y-207015D01*
X-22803Y-207010D01*
X-22828Y-207007D01*
X-22848Y-207004D01*
X-22875D01*
X-22933Y-207007D01*
X-22989Y-207015D01*
X-23036Y-207029D01*
X-23077Y-207043D01*
X-23111Y-207057D01*
X-23136Y-207071D01*
X-23152Y-207079D01*
X-23158Y-207082D01*
X-23199Y-207112D01*
X-23235Y-207146D01*
X-23263Y-207179D01*
X-23288Y-207209D01*
X-23305Y-207237D01*
X-23316Y-207262D01*
X-23321Y-207276D01*
X-23324Y-207278D01*
Y-207281D01*
X-23332Y-207306D01*
X-23341Y-207334D01*
X-23352Y-207398D01*
X-23360Y-207464D01*
X-23366Y-207531D01*
X-23368Y-207592D01*
X-23371Y-207619D01*
Y-207641D01*
Y-207661D01*
Y-207675D01*
Y-207686D01*
Y-207688D01*
Y-209436D01*
X-23842D01*
Y-207531D01*
X-23839Y-207445D01*
X-23834Y-207364D01*
X-23823Y-207290D01*
X-23806Y-207220D01*
X-23789Y-207157D01*
X-23770Y-207099D01*
X-23751Y-207049D01*
X-23731Y-207001D01*
X-23709Y-206960D01*
X-23690Y-206924D01*
X-23670Y-206893D01*
X-23654Y-206871D01*
X-23640Y-206852D01*
X-23629Y-206838D01*
X-23620Y-206830D01*
X-23618Y-206827D01*
X-23573Y-206785D01*
X-23526Y-206752D01*
X-23476Y-206719D01*
X-23426Y-206694D01*
X-23371Y-206672D01*
X-23318Y-206652D01*
X-23269Y-206639D01*
X-23219Y-206625D01*
X-23169Y-206616D01*
X-23125Y-206608D01*
X-23086Y-206605D01*
X-23053Y-206600D01*
X-23022D01*
X-23003Y-206597D01*
X-22933D01*
X-22886Y-206603D01*
X-22795Y-206619D01*
X-22706Y-206641D01*
X-22626Y-206672D01*
X-22548Y-206711D01*
X-22479Y-206752D01*
X-22413Y-206797D01*
X-22354Y-206841D01*
X-22302Y-206885D01*
X-22255Y-206929D01*
X-22216Y-206971D01*
X-22183Y-207007D01*
X-22155Y-207040D01*
X-22139Y-207062D01*
X-22125Y-207079D01*
X-22122Y-207082D01*
Y-207085D01*
X-22086Y-207004D01*
X-22044Y-206932D01*
X-22000Y-206871D01*
X-21953Y-206819D01*
X-21911Y-206780D01*
X-21892Y-206763D01*
X-21878Y-206749D01*
X-21864Y-206741D01*
X-21853Y-206733D01*
X-21848Y-206730D01*
X-21845Y-206727D01*
X-21806Y-206705D01*
X-21767Y-206683D01*
X-21681Y-206652D01*
X-21598Y-206628D01*
X-21518Y-206614D01*
X-21482Y-206608D01*
X-21446Y-206603D01*
X-21416Y-206600D01*
X-21391D01*
X-21368Y-206597D01*
X-21288D01*
X-21238Y-206603D01*
D02*
G37*
G36*
X9093Y-209436D02*
X8622D01*
Y-208337D01*
X8293Y-208015D01*
X7373Y-209436D01*
X6791D01*
X7960Y-207691D01*
X6899Y-206658D01*
X7509D01*
X8622Y-207791D01*
Y-205603D01*
X9093D01*
Y-209436D01*
D02*
G37*
G36*
X24652D02*
X24165D01*
X23597Y-207301D01*
X23486Y-207774D01*
X23046Y-209436D01*
X22558D01*
X21689Y-206658D01*
X22145D01*
X22625Y-208267D01*
X22783Y-208802D01*
X22918Y-208270D01*
X23337Y-206658D01*
X23819D01*
X24262Y-208287D01*
X24273Y-208334D01*
X24287Y-208381D01*
X24306Y-208464D01*
X24326Y-208536D01*
X24342Y-208600D01*
X24356Y-208655D01*
X24367Y-208699D01*
X24378Y-208738D01*
X24386Y-208771D01*
X24392Y-208797D01*
X24397Y-208819D01*
X24403Y-208833D01*
X24406Y-208843D01*
Y-208852D01*
X24409Y-208857D01*
Y-208860D01*
X24569Y-208265D01*
X25012Y-206658D01*
X25500D01*
X24652Y-209436D01*
D02*
G37*
G36*
X20786D02*
X20298D01*
X19730Y-207301D01*
X19619Y-207774D01*
X19179Y-209436D01*
X18691D01*
X17822Y-206658D01*
X18279D01*
X18758Y-208267D01*
X18916Y-208802D01*
X19051Y-208270D01*
X19470Y-206658D01*
X19952D01*
X20395Y-208287D01*
X20406Y-208334D01*
X20420Y-208381D01*
X20439Y-208464D01*
X20459Y-208536D01*
X20475Y-208600D01*
X20489Y-208655D01*
X20500Y-208699D01*
X20511Y-208738D01*
X20519Y-208771D01*
X20525Y-208797D01*
X20531Y-208819D01*
X20536Y-208833D01*
X20539Y-208843D01*
Y-208852D01*
X20542Y-208857D01*
Y-208860D01*
X20702Y-208265D01*
X21146Y-206658D01*
X21633D01*
X20786Y-209436D01*
D02*
G37*
G36*
X16918D02*
X16431D01*
X15863Y-207301D01*
X15752Y-207774D01*
X15312Y-209436D01*
X14824D01*
X13955Y-206658D01*
X14412D01*
X14891Y-208267D01*
X15049Y-208802D01*
X15184Y-208270D01*
X15603Y-206658D01*
X16085D01*
X16528Y-208287D01*
X16539Y-208334D01*
X16553Y-208381D01*
X16572Y-208464D01*
X16592Y-208536D01*
X16608Y-208600D01*
X16622Y-208655D01*
X16633Y-208699D01*
X16644Y-208738D01*
X16653Y-208771D01*
X16658Y-208797D01*
X16664Y-208819D01*
X16669Y-208833D01*
X16672Y-208843D01*
Y-208852D01*
X16675Y-208857D01*
Y-208860D01*
X16835Y-208265D01*
X17279Y-206658D01*
X17766D01*
X16918Y-209436D01*
D02*
G37*
G36*
X-11532Y-205971D02*
Y-206658D01*
X-11183D01*
Y-207024D01*
X-11532D01*
Y-208625D01*
Y-208699D01*
X-11535Y-208771D01*
X-11538Y-208833D01*
X-11540Y-208891D01*
X-11546Y-208941D01*
X-11549Y-208988D01*
X-11554Y-209026D01*
X-11560Y-209062D01*
X-11565Y-209093D01*
X-11571Y-209118D01*
X-11574Y-209137D01*
X-11579Y-209154D01*
X-11582Y-209168D01*
X-11585Y-209176D01*
X-11587Y-209179D01*
Y-209181D01*
X-11613Y-209229D01*
X-11643Y-209270D01*
X-11676Y-209306D01*
X-11709Y-209337D01*
X-11740Y-209359D01*
X-11765Y-209378D01*
X-11781Y-209389D01*
X-11784Y-209392D01*
X-11787D01*
X-11845Y-209420D01*
X-11909Y-209439D01*
X-11975Y-209453D01*
X-12039Y-209461D01*
X-12094Y-209467D01*
X-12119Y-209470D01*
X-12141Y-209472D01*
X-12183D01*
X-12244Y-209470D01*
X-12305Y-209467D01*
X-12366Y-209458D01*
X-12421Y-209450D01*
X-12468Y-209445D01*
X-12491Y-209439D01*
X-12507Y-209436D01*
X-12521Y-209434D01*
X-12532D01*
X-12538Y-209431D01*
X-12540D01*
X-12471Y-209015D01*
X-12427Y-209021D01*
X-12385Y-209024D01*
X-12349Y-209029D01*
X-12322D01*
X-12297Y-209032D01*
X-12266D01*
X-12230Y-209029D01*
X-12197Y-209026D01*
X-12169Y-209021D01*
X-12147Y-209015D01*
X-12128Y-209010D01*
X-12117Y-209004D01*
X-12108Y-208999D01*
X-12105D01*
X-12086Y-208985D01*
X-12070Y-208971D01*
X-12045Y-208941D01*
X-12036Y-208927D01*
X-12031Y-208916D01*
X-12025Y-208910D01*
Y-208907D01*
X-12022Y-208893D01*
X-12017Y-208880D01*
X-12011Y-208844D01*
X-12009Y-208799D01*
X-12006Y-208758D01*
X-12003Y-208716D01*
Y-208683D01*
Y-208669D01*
Y-208658D01*
Y-208652D01*
Y-208650D01*
Y-207024D01*
X-12471D01*
Y-206658D01*
X-12003D01*
Y-205689D01*
X-11532Y-205971D01*
D02*
G37*
G36*
X6426Y-208381D02*
Y-208436D01*
Y-208486D01*
X6423Y-208533D01*
X6420Y-208575D01*
Y-208614D01*
X6418Y-208650D01*
X6415Y-208683D01*
X6412Y-208711D01*
X6409Y-208738D01*
X6406Y-208758D01*
X6404Y-208777D01*
Y-208791D01*
X6401Y-208805D01*
X6398Y-208813D01*
Y-208816D01*
Y-208819D01*
X6379Y-208893D01*
X6359Y-208960D01*
X6334Y-209021D01*
X6309Y-209073D01*
X6287Y-209115D01*
X6279Y-209132D01*
X6271Y-209145D01*
X6262Y-209157D01*
X6260Y-209165D01*
X6254Y-209168D01*
Y-209170D01*
X6210Y-209220D01*
X6163Y-209267D01*
X6110Y-209306D01*
X6057Y-209342D01*
X6010Y-209370D01*
X5991Y-209381D01*
X5974Y-209389D01*
X5958Y-209395D01*
X5947Y-209400D01*
X5941Y-209406D01*
X5938D01*
X5858Y-209436D01*
X5778Y-209458D01*
X5700Y-209475D01*
X5628Y-209486D01*
X5598Y-209489D01*
X5567Y-209492D01*
X5542Y-209494D01*
X5520D01*
X5503Y-209497D01*
X5478D01*
X5376Y-209492D01*
X5282Y-209478D01*
X5190Y-209453D01*
X5105Y-209425D01*
X5027Y-209389D01*
X4955Y-209348D01*
X4888Y-209306D01*
X4830Y-209262D01*
X4775Y-209220D01*
X4730Y-209176D01*
X4689Y-209137D01*
X4656Y-209101D01*
X4631Y-209073D01*
X4611Y-209049D01*
X4600Y-209035D01*
X4598Y-209029D01*
Y-209436D01*
X4177D01*
Y-206658D01*
X4647D01*
Y-208148D01*
Y-208212D01*
X4650Y-208273D01*
X4656Y-208331D01*
X4659Y-208384D01*
X4664Y-208431D01*
X4672Y-208475D01*
X4678Y-208517D01*
X4686Y-208553D01*
X4694Y-208586D01*
X4700Y-208614D01*
X4706Y-208636D01*
X4714Y-208655D01*
X4717Y-208672D01*
X4722Y-208683D01*
X4725Y-208688D01*
Y-208691D01*
X4758Y-208758D01*
X4800Y-208816D01*
X4841Y-208866D01*
X4886Y-208907D01*
X4924Y-208941D01*
X4958Y-208965D01*
X4972Y-208974D01*
X4980Y-208979D01*
X4985Y-208985D01*
X4988D01*
X5057Y-209021D01*
X5129Y-209049D01*
X5196Y-209065D01*
X5257Y-209079D01*
X5282Y-209085D01*
X5307Y-209087D01*
X5329Y-209090D01*
X5348D01*
X5365Y-209093D01*
X5384D01*
X5459Y-209087D01*
X5528Y-209076D01*
X5589Y-209060D01*
X5639Y-209040D01*
X5683Y-209021D01*
X5700Y-209013D01*
X5714Y-209004D01*
X5725Y-208996D01*
X5733Y-208993D01*
X5736Y-208988D01*
X5739D01*
X5789Y-208946D01*
X5830Y-208899D01*
X5861Y-208849D01*
X5886Y-208802D01*
X5905Y-208760D01*
X5913Y-208744D01*
X5919Y-208727D01*
X5922Y-208713D01*
X5924Y-208705D01*
X5927Y-208699D01*
Y-208697D01*
X5933Y-208669D01*
X5935Y-208639D01*
X5941Y-208603D01*
X5944Y-208566D01*
X5949Y-208483D01*
X5952Y-208400D01*
Y-208362D01*
Y-208323D01*
X5955Y-208290D01*
Y-208259D01*
Y-208237D01*
Y-208218D01*
Y-208204D01*
Y-208201D01*
Y-206658D01*
X6426D01*
Y-208381D01*
D02*
G37*
G36*
X-574Y-206603D02*
X-474Y-206614D01*
X-380Y-206633D01*
X-289Y-206658D01*
X-206Y-206686D01*
X-131Y-206719D01*
X-59Y-206755D01*
X5Y-206791D01*
X63Y-206827D01*
X113Y-206863D01*
X155Y-206893D01*
X190Y-206924D01*
X221Y-206949D01*
X240Y-206968D01*
X251Y-206979D01*
X257Y-206985D01*
X321Y-207060D01*
X376Y-207143D01*
X423Y-207229D01*
X465Y-207317D01*
X501Y-207409D01*
X528Y-207500D01*
X553Y-207589D01*
X573Y-207672D01*
X587Y-207755D01*
X598Y-207830D01*
X606Y-207896D01*
X612Y-207954D01*
X614Y-207982D01*
Y-208004D01*
Y-208024D01*
X617Y-208040D01*
Y-208054D01*
Y-208062D01*
Y-208068D01*
Y-208071D01*
X614Y-208195D01*
X600Y-208312D01*
X584Y-208420D01*
X562Y-208522D01*
X534Y-208616D01*
X503Y-208702D01*
X473Y-208780D01*
X440Y-208852D01*
X407Y-208916D01*
X373Y-208968D01*
X346Y-209015D01*
X318Y-209054D01*
X296Y-209085D01*
X276Y-209107D01*
X265Y-209118D01*
X262Y-209123D01*
X193Y-209190D01*
X118Y-209248D01*
X41Y-209298D01*
X-39Y-209339D01*
X-120Y-209375D01*
X-200Y-209406D01*
X-280Y-209431D01*
X-355Y-209450D01*
X-427Y-209467D01*
X-494Y-209478D01*
X-552Y-209486D01*
X-605Y-209492D01*
X-646Y-209494D01*
X-663D01*
X-677Y-209497D01*
X-704D01*
X-793Y-209494D01*
X-879Y-209486D01*
X-959Y-209475D01*
X-1034Y-209461D01*
X-1103Y-209442D01*
X-1170Y-209422D01*
X-1228Y-209400D01*
X-1283Y-209378D01*
X-1333Y-209359D01*
X-1374Y-209337D01*
X-1413Y-209317D01*
X-1444Y-209298D01*
X-1469Y-209284D01*
X-1485Y-209273D01*
X-1496Y-209265D01*
X-1499Y-209262D01*
X-1555Y-209215D01*
X-1607Y-209165D01*
X-1654Y-209112D01*
X-1696Y-209060D01*
X-1735Y-209004D01*
X-1771Y-208949D01*
X-1801Y-208893D01*
X-1829Y-208843D01*
X-1854Y-208794D01*
X-1873Y-208747D01*
X-1890Y-208705D01*
X-1904Y-208669D01*
X-1912Y-208641D01*
X-1920Y-208619D01*
X-1926Y-208605D01*
Y-208600D01*
X-1441Y-208536D01*
X-1419Y-208592D01*
X-1397Y-208641D01*
X-1374Y-208688D01*
X-1350Y-208733D01*
X-1325Y-208771D01*
X-1302Y-208807D01*
X-1278Y-208838D01*
X-1255Y-208869D01*
X-1233Y-208893D01*
X-1214Y-208916D01*
X-1197Y-208932D01*
X-1181Y-208949D01*
X-1167Y-208960D01*
X-1158Y-208968D01*
X-1153Y-208971D01*
X-1150Y-208974D01*
X-1114Y-208999D01*
X-1078Y-209018D01*
X-1042Y-209037D01*
X-1003Y-209051D01*
X-929Y-209076D01*
X-859Y-209093D01*
X-829Y-209098D01*
X-798Y-209101D01*
X-773Y-209104D01*
X-751Y-209107D01*
X-732Y-209109D01*
X-707D01*
X-643Y-209107D01*
X-582Y-209098D01*
X-524Y-209087D01*
X-469Y-209071D01*
X-416Y-209054D01*
X-369Y-209032D01*
X-325Y-209013D01*
X-286Y-208988D01*
X-250Y-208965D01*
X-217Y-208943D01*
X-189Y-208924D01*
X-167Y-208907D01*
X-150Y-208891D01*
X-136Y-208880D01*
X-128Y-208871D01*
X-125Y-208869D01*
X-84Y-208821D01*
X-48Y-208769D01*
X-14Y-208713D01*
X13Y-208655D01*
X38Y-208597D01*
X58Y-208539D01*
X77Y-208483D01*
X91Y-208425D01*
X102Y-208373D01*
X113Y-208326D01*
X118Y-208281D01*
X124Y-208243D01*
X130Y-208212D01*
Y-208187D01*
X132Y-208173D01*
Y-208168D01*
X-1940D01*
Y-208137D01*
X-1942Y-208112D01*
Y-208093D01*
Y-208073D01*
Y-208060D01*
Y-208051D01*
Y-208046D01*
Y-208043D01*
X-1940Y-207918D01*
X-1929Y-207799D01*
X-1909Y-207688D01*
X-1887Y-207586D01*
X-1859Y-207492D01*
X-1832Y-207403D01*
X-1798Y-207323D01*
X-1765Y-207251D01*
X-1732Y-207187D01*
X-1701Y-207132D01*
X-1671Y-207085D01*
X-1643Y-207046D01*
X-1621Y-207015D01*
X-1604Y-206993D01*
X-1591Y-206982D01*
X-1588Y-206977D01*
X-1519Y-206910D01*
X-1447Y-206852D01*
X-1374Y-206799D01*
X-1297Y-206758D01*
X-1222Y-206719D01*
X-1145Y-206688D01*
X-1073Y-206663D01*
X-1001Y-206644D01*
X-934Y-206627D01*
X-873Y-206616D01*
X-821Y-206608D01*
X-771Y-206603D01*
X-732Y-206600D01*
X-704Y-206597D01*
X-679D01*
X-574Y-206603D01*
D02*
G37*
G36*
X-6823Y-206603D02*
X-6723Y-206614D01*
X-6629Y-206633D01*
X-6538Y-206658D01*
X-6455Y-206686D01*
X-6380Y-206719D01*
X-6308Y-206755D01*
X-6244Y-206791D01*
X-6186Y-206827D01*
X-6136Y-206863D01*
X-6095Y-206893D01*
X-6059Y-206924D01*
X-6028Y-206949D01*
X-6009Y-206968D01*
X-5998Y-206979D01*
X-5992Y-206985D01*
X-5928Y-207060D01*
X-5873Y-207143D01*
X-5826Y-207229D01*
X-5784Y-207317D01*
X-5748Y-207409D01*
X-5721Y-207500D01*
X-5696Y-207589D01*
X-5676Y-207672D01*
X-5663Y-207755D01*
X-5651Y-207830D01*
X-5643Y-207896D01*
X-5638Y-207954D01*
X-5635Y-207982D01*
Y-208004D01*
Y-208024D01*
X-5632Y-208040D01*
Y-208054D01*
Y-208062D01*
Y-208068D01*
Y-208071D01*
X-5635Y-208195D01*
X-5649Y-208312D01*
X-5665Y-208420D01*
X-5687Y-208522D01*
X-5715Y-208616D01*
X-5746Y-208702D01*
X-5776Y-208780D01*
X-5809Y-208852D01*
X-5843Y-208916D01*
X-5876Y-208968D01*
X-5903Y-209015D01*
X-5931Y-209054D01*
X-5953Y-209085D01*
X-5973Y-209107D01*
X-5984Y-209118D01*
X-5987Y-209123D01*
X-6056Y-209190D01*
X-6131Y-209248D01*
X-6208Y-209298D01*
X-6289Y-209339D01*
X-6369Y-209375D01*
X-6449Y-209406D01*
X-6530Y-209431D01*
X-6604Y-209450D01*
X-6676Y-209467D01*
X-6743Y-209478D01*
X-6801Y-209486D01*
X-6854Y-209492D01*
X-6895Y-209494D01*
X-6912D01*
X-6926Y-209497D01*
X-6953D01*
X-7042Y-209494D01*
X-7128Y-209486D01*
X-7208Y-209475D01*
X-7283Y-209461D01*
X-7352Y-209442D01*
X-7419Y-209422D01*
X-7477Y-209400D01*
X-7532Y-209378D01*
X-7582Y-209359D01*
X-7624Y-209337D01*
X-7662Y-209317D01*
X-7693Y-209298D01*
X-7718Y-209284D01*
X-7734Y-209273D01*
X-7745Y-209265D01*
X-7748Y-209262D01*
X-7804Y-209215D01*
X-7856Y-209165D01*
X-7903Y-209112D01*
X-7945Y-209060D01*
X-7984Y-209004D01*
X-8020Y-208949D01*
X-8050Y-208893D01*
X-8078Y-208844D01*
X-8103Y-208794D01*
X-8122Y-208747D01*
X-8139Y-208705D01*
X-8153Y-208669D01*
X-8161Y-208641D01*
X-8169Y-208619D01*
X-8175Y-208605D01*
Y-208600D01*
X-7690Y-208536D01*
X-7668Y-208592D01*
X-7646Y-208641D01*
X-7624Y-208688D01*
X-7599Y-208733D01*
X-7574Y-208771D01*
X-7552Y-208807D01*
X-7527Y-208838D01*
X-7505Y-208869D01*
X-7482Y-208893D01*
X-7463Y-208916D01*
X-7446Y-208932D01*
X-7430Y-208949D01*
X-7416Y-208960D01*
X-7408Y-208968D01*
X-7402Y-208971D01*
X-7399Y-208974D01*
X-7363Y-208999D01*
X-7327Y-209018D01*
X-7291Y-209037D01*
X-7253Y-209051D01*
X-7178Y-209076D01*
X-7108Y-209093D01*
X-7078Y-209098D01*
X-7047Y-209101D01*
X-7023Y-209104D01*
X-7000Y-209107D01*
X-6981Y-209109D01*
X-6956D01*
X-6892Y-209107D01*
X-6831Y-209098D01*
X-6773Y-209087D01*
X-6718Y-209071D01*
X-6665Y-209054D01*
X-6618Y-209032D01*
X-6574Y-209013D01*
X-6535Y-208988D01*
X-6499Y-208965D01*
X-6466Y-208943D01*
X-6438Y-208924D01*
X-6416Y-208907D01*
X-6399Y-208891D01*
X-6385Y-208880D01*
X-6377Y-208871D01*
X-6374Y-208869D01*
X-6333Y-208821D01*
X-6297Y-208769D01*
X-6264Y-208713D01*
X-6236Y-208655D01*
X-6211Y-208597D01*
X-6192Y-208539D01*
X-6172Y-208483D01*
X-6158Y-208425D01*
X-6147Y-208373D01*
X-6136Y-208326D01*
X-6131Y-208281D01*
X-6125Y-208243D01*
X-6120Y-208212D01*
Y-208187D01*
X-6117Y-208173D01*
Y-208168D01*
X-8189D01*
Y-208137D01*
X-8191Y-208112D01*
Y-208093D01*
Y-208073D01*
Y-208060D01*
Y-208051D01*
Y-208046D01*
Y-208043D01*
X-8189Y-207918D01*
X-8178Y-207799D01*
X-8158Y-207688D01*
X-8136Y-207586D01*
X-8108Y-207492D01*
X-8081Y-207403D01*
X-8048Y-207323D01*
X-8014Y-207251D01*
X-7981Y-207187D01*
X-7950Y-207132D01*
X-7920Y-207085D01*
X-7892Y-207046D01*
X-7870Y-207015D01*
X-7854Y-206993D01*
X-7840Y-206982D01*
X-7837Y-206977D01*
X-7768Y-206910D01*
X-7696Y-206852D01*
X-7624Y-206799D01*
X-7546Y-206758D01*
X-7471Y-206719D01*
X-7394Y-206688D01*
X-7322Y-206664D01*
X-7250Y-206644D01*
X-7183Y-206628D01*
X-7122Y-206616D01*
X-7070Y-206608D01*
X-7020Y-206603D01*
X-6981Y-206600D01*
X-6953Y-206597D01*
X-6928D01*
X-6823Y-206603D01*
D02*
G37*
G36*
X-9820Y-206600D02*
X-9757Y-206605D01*
X-9693Y-206614D01*
X-9632Y-206622D01*
X-9574Y-206636D01*
X-9521Y-206650D01*
X-9469Y-206666D01*
X-9421Y-206680D01*
X-9380Y-206697D01*
X-9341Y-206713D01*
X-9305Y-206727D01*
X-9277Y-206738D01*
X-9255Y-206749D01*
X-9239Y-206758D01*
X-9228Y-206763D01*
X-9225Y-206766D01*
X-9169Y-206799D01*
X-9117Y-206835D01*
X-9070Y-206877D01*
X-9025Y-206916D01*
X-8984Y-206957D01*
X-8948Y-207001D01*
X-8914Y-207043D01*
X-8884Y-207082D01*
X-8856Y-207121D01*
X-8834Y-207157D01*
X-8815Y-207190D01*
X-8798Y-207218D01*
X-8787Y-207240D01*
X-8779Y-207259D01*
X-8773Y-207270D01*
X-8770Y-207273D01*
X-8745Y-207337D01*
X-8723Y-207403D01*
X-8701Y-207470D01*
X-8685Y-207539D01*
X-8660Y-207669D01*
X-8649Y-207733D01*
X-8643Y-207794D01*
X-8635Y-207849D01*
X-8632Y-207899D01*
X-8629Y-207946D01*
X-8626Y-207985D01*
X-8624Y-208015D01*
Y-208040D01*
Y-208054D01*
Y-208060D01*
X-8626Y-208187D01*
X-8637Y-208306D01*
X-8657Y-208417D01*
X-8679Y-208520D01*
X-8704Y-208614D01*
X-8734Y-208702D01*
X-8765Y-208783D01*
X-8798Y-208855D01*
X-8829Y-208916D01*
X-8859Y-208971D01*
X-8890Y-209018D01*
X-8917Y-209057D01*
X-8937Y-209087D01*
X-8956Y-209109D01*
X-8967Y-209121D01*
X-8970Y-209126D01*
X-9036Y-209193D01*
X-9108Y-209248D01*
X-9183Y-209298D01*
X-9258Y-209339D01*
X-9336Y-209375D01*
X-9410Y-209406D01*
X-9485Y-209431D01*
X-9557Y-209450D01*
X-9624Y-209467D01*
X-9687Y-209478D01*
X-9743Y-209486D01*
X-9790Y-209492D01*
X-9829Y-209494D01*
X-9859Y-209497D01*
X-9884D01*
X-9967Y-209494D01*
X-10047Y-209486D01*
X-10125Y-209472D01*
X-10197Y-209456D01*
X-10264Y-209434D01*
X-10327Y-209411D01*
X-10385Y-209389D01*
X-10438Y-209362D01*
X-10488Y-209337D01*
X-10529Y-209314D01*
X-10565Y-209290D01*
X-10596Y-209270D01*
X-10621Y-209254D01*
X-10637Y-209240D01*
X-10649Y-209231D01*
X-10651Y-209229D01*
X-10707Y-209176D01*
X-10759Y-209121D01*
X-10804Y-209060D01*
X-10845Y-208999D01*
X-10881Y-208935D01*
X-10912Y-208874D01*
X-10939Y-208813D01*
X-10964Y-208755D01*
X-10984Y-208697D01*
X-11000Y-208647D01*
X-11014Y-208600D01*
X-11025Y-208561D01*
X-11033Y-208528D01*
X-11039Y-208503D01*
X-11042Y-208486D01*
Y-208481D01*
X-10579Y-208417D01*
X-10568Y-208481D01*
X-10554Y-208542D01*
X-10541Y-208597D01*
X-10521Y-208647D01*
X-10502Y-208697D01*
X-10482Y-208738D01*
X-10463Y-208777D01*
X-10443Y-208810D01*
X-10424Y-208841D01*
X-10405Y-208869D01*
X-10388Y-208891D01*
X-10374Y-208907D01*
X-10360Y-208921D01*
X-10352Y-208932D01*
X-10347Y-208938D01*
X-10344Y-208941D01*
X-10308Y-208971D01*
X-10272Y-208996D01*
X-10233Y-209018D01*
X-10194Y-209037D01*
X-10155Y-209054D01*
X-10117Y-209068D01*
X-10042Y-209087D01*
X-10009Y-209096D01*
X-9978Y-209101D01*
X-9950Y-209104D01*
X-9928Y-209107D01*
X-9909Y-209109D01*
X-9881D01*
X-9817Y-209107D01*
X-9757Y-209098D01*
X-9701Y-209087D01*
X-9648Y-209071D01*
X-9599Y-209051D01*
X-9552Y-209029D01*
X-9510Y-209007D01*
X-9471Y-208982D01*
X-9438Y-208960D01*
X-9408Y-208938D01*
X-9383Y-208916D01*
X-9360Y-208896D01*
X-9344Y-208880D01*
X-9333Y-208869D01*
X-9324Y-208860D01*
X-9322Y-208857D01*
X-9283Y-208807D01*
X-9252Y-208749D01*
X-9222Y-208688D01*
X-9200Y-208625D01*
X-9178Y-208558D01*
X-9161Y-208489D01*
X-9147Y-208422D01*
X-9136Y-208356D01*
X-9125Y-208295D01*
X-9120Y-208237D01*
X-9114Y-208184D01*
X-9111Y-208137D01*
Y-208098D01*
X-9108Y-208071D01*
Y-208060D01*
Y-208051D01*
Y-208049D01*
Y-208046D01*
X-9111Y-207946D01*
X-9117Y-207852D01*
X-9128Y-207766D01*
X-9144Y-207688D01*
X-9161Y-207614D01*
X-9178Y-207547D01*
X-9200Y-207489D01*
X-9219Y-207436D01*
X-9239Y-207389D01*
X-9261Y-207350D01*
X-9277Y-207314D01*
X-9297Y-207287D01*
X-9311Y-207267D01*
X-9322Y-207251D01*
X-9327Y-207242D01*
X-9330Y-207240D01*
X-9374Y-207195D01*
X-9419Y-207157D01*
X-9466Y-207121D01*
X-9513Y-207093D01*
X-9563Y-207068D01*
X-9610Y-207046D01*
X-9657Y-207029D01*
X-9701Y-207015D01*
X-9743Y-207007D01*
X-9781Y-206999D01*
X-9817Y-206993D01*
X-9848Y-206988D01*
X-9873D01*
X-9889Y-206985D01*
X-9906D01*
X-9950Y-206988D01*
X-9992Y-206990D01*
X-10070Y-207007D01*
X-10136Y-207029D01*
X-10194Y-207054D01*
X-10222Y-207068D01*
X-10244Y-207082D01*
X-10264Y-207093D01*
X-10277Y-207104D01*
X-10291Y-207112D01*
X-10300Y-207121D01*
X-10305Y-207123D01*
X-10308Y-207126D01*
X-10338Y-207154D01*
X-10366Y-207184D01*
X-10413Y-207251D01*
X-10455Y-207320D01*
X-10488Y-207389D01*
X-10499Y-207420D01*
X-10510Y-207450D01*
X-10521Y-207475D01*
X-10527Y-207500D01*
X-10532Y-207517D01*
X-10538Y-207533D01*
X-10541Y-207542D01*
Y-207544D01*
X-10998Y-207475D01*
X-10981Y-207398D01*
X-10959Y-207328D01*
X-10934Y-207259D01*
X-10903Y-207198D01*
X-10876Y-207140D01*
X-10842Y-207087D01*
X-10812Y-207037D01*
X-10781Y-206993D01*
X-10751Y-206954D01*
X-10723Y-206921D01*
X-10696Y-206893D01*
X-10673Y-206869D01*
X-10654Y-206852D01*
X-10640Y-206838D01*
X-10629Y-206830D01*
X-10626Y-206827D01*
X-10571Y-206785D01*
X-10513Y-206752D01*
X-10452Y-206719D01*
X-10391Y-206694D01*
X-10327Y-206672D01*
X-10266Y-206652D01*
X-10208Y-206639D01*
X-10150Y-206625D01*
X-10095Y-206616D01*
X-10045Y-206608D01*
X-10000Y-206605D01*
X-9962Y-206600D01*
X-9931D01*
X-9906Y-206597D01*
X-9887D01*
X-9820Y-206600D01*
D02*
G37*
G36*
X-15474D02*
X-15410Y-206605D01*
X-15346Y-206614D01*
X-15285Y-206622D01*
X-15227Y-206636D01*
X-15175Y-206650D01*
X-15122Y-206666D01*
X-15075Y-206680D01*
X-15033Y-206697D01*
X-14995Y-206713D01*
X-14959Y-206727D01*
X-14931Y-206738D01*
X-14909Y-206749D01*
X-14892Y-206758D01*
X-14881Y-206763D01*
X-14878Y-206766D01*
X-14823Y-206799D01*
X-14770Y-206835D01*
X-14723Y-206877D01*
X-14679Y-206916D01*
X-14637Y-206957D01*
X-14601Y-207001D01*
X-14568Y-207043D01*
X-14538Y-207082D01*
X-14510Y-207121D01*
X-14488Y-207157D01*
X-14468Y-207190D01*
X-14452Y-207218D01*
X-14441Y-207240D01*
X-14432Y-207259D01*
X-14427Y-207270D01*
X-14424Y-207273D01*
X-14399Y-207337D01*
X-14377Y-207403D01*
X-14355Y-207470D01*
X-14338Y-207539D01*
X-14313Y-207669D01*
X-14302Y-207733D01*
X-14297Y-207794D01*
X-14288Y-207849D01*
X-14286Y-207899D01*
X-14283Y-207946D01*
X-14280Y-207985D01*
X-14277Y-208015D01*
Y-208040D01*
Y-208054D01*
Y-208060D01*
X-14280Y-208187D01*
X-14291Y-208306D01*
X-14310Y-208417D01*
X-14333Y-208520D01*
X-14357Y-208614D01*
X-14388Y-208702D01*
X-14419Y-208783D01*
X-14452Y-208855D01*
X-14482Y-208916D01*
X-14513Y-208971D01*
X-14543Y-209018D01*
X-14571Y-209057D01*
X-14590Y-209087D01*
X-14610Y-209109D01*
X-14621Y-209121D01*
X-14623Y-209126D01*
X-14690Y-209193D01*
X-14762Y-209248D01*
X-14837Y-209298D01*
X-14911Y-209339D01*
X-14989Y-209375D01*
X-15064Y-209406D01*
X-15139Y-209431D01*
X-15211Y-209450D01*
X-15277Y-209467D01*
X-15341Y-209478D01*
X-15396Y-209486D01*
X-15443Y-209492D01*
X-15482Y-209494D01*
X-15513Y-209497D01*
X-15538D01*
X-15621Y-209494D01*
X-15701Y-209486D01*
X-15778Y-209472D01*
X-15851Y-209456D01*
X-15917Y-209434D01*
X-15981Y-209411D01*
X-16039Y-209389D01*
X-16092Y-209362D01*
X-16141Y-209337D01*
X-16183Y-209314D01*
X-16219Y-209290D01*
X-16249Y-209270D01*
X-16274Y-209254D01*
X-16291Y-209240D01*
X-16302Y-209231D01*
X-16305Y-209229D01*
X-16360Y-209176D01*
X-16413Y-209121D01*
X-16457Y-209060D01*
X-16499Y-208999D01*
X-16535Y-208935D01*
X-16565Y-208874D01*
X-16593Y-208813D01*
X-16618Y-208755D01*
X-16637Y-208697D01*
X-16654Y-208647D01*
X-16668Y-208600D01*
X-16679Y-208561D01*
X-16687Y-208528D01*
X-16693Y-208503D01*
X-16695Y-208486D01*
Y-208481D01*
X-16233Y-208417D01*
X-16222Y-208481D01*
X-16208Y-208542D01*
X-16194Y-208597D01*
X-16175Y-208647D01*
X-16155Y-208697D01*
X-16136Y-208738D01*
X-16116Y-208777D01*
X-16097Y-208810D01*
X-16078Y-208841D01*
X-16058Y-208869D01*
X-16042Y-208891D01*
X-16028Y-208907D01*
X-16014Y-208921D01*
X-16006Y-208932D01*
X-16000Y-208938D01*
X-15997Y-208941D01*
X-15961Y-208971D01*
X-15925Y-208996D01*
X-15887Y-209018D01*
X-15848Y-209037D01*
X-15809Y-209054D01*
X-15770Y-209068D01*
X-15695Y-209087D01*
X-15662Y-209096D01*
X-15632Y-209101D01*
X-15604Y-209104D01*
X-15582Y-209107D01*
X-15563Y-209109D01*
X-15535D01*
X-15471Y-209107D01*
X-15410Y-209098D01*
X-15355Y-209087D01*
X-15302Y-209071D01*
X-15252Y-209051D01*
X-15205Y-209029D01*
X-15164Y-209007D01*
X-15125Y-208982D01*
X-15092Y-208960D01*
X-15061Y-208938D01*
X-15036Y-208916D01*
X-15014Y-208896D01*
X-14997Y-208880D01*
X-14986Y-208869D01*
X-14978Y-208860D01*
X-14975Y-208857D01*
X-14936Y-208807D01*
X-14906Y-208749D01*
X-14875Y-208688D01*
X-14853Y-208625D01*
X-14831Y-208558D01*
X-14815Y-208489D01*
X-14801Y-208422D01*
X-14790Y-208356D01*
X-14779Y-208295D01*
X-14773Y-208237D01*
X-14767Y-208184D01*
X-14765Y-208137D01*
Y-208098D01*
X-14762Y-208071D01*
Y-208060D01*
Y-208051D01*
Y-208049D01*
Y-208046D01*
X-14765Y-207946D01*
X-14770Y-207852D01*
X-14781Y-207766D01*
X-14798Y-207688D01*
X-14815Y-207614D01*
X-14831Y-207547D01*
X-14853Y-207489D01*
X-14873Y-207436D01*
X-14892Y-207389D01*
X-14914Y-207350D01*
X-14931Y-207314D01*
X-14950Y-207287D01*
X-14964Y-207267D01*
X-14975Y-207251D01*
X-14981Y-207242D01*
X-14984Y-207240D01*
X-15028Y-207195D01*
X-15072Y-207157D01*
X-15119Y-207121D01*
X-15166Y-207093D01*
X-15216Y-207068D01*
X-15263Y-207046D01*
X-15310Y-207029D01*
X-15355Y-207015D01*
X-15396Y-207007D01*
X-15435Y-206999D01*
X-15471Y-206993D01*
X-15502Y-206988D01*
X-15527D01*
X-15543Y-206985D01*
X-15560D01*
X-15604Y-206988D01*
X-15646Y-206990D01*
X-15723Y-207007D01*
X-15790Y-207029D01*
X-15848Y-207054D01*
X-15876Y-207068D01*
X-15898Y-207082D01*
X-15917Y-207093D01*
X-15931Y-207104D01*
X-15945Y-207112D01*
X-15953Y-207121D01*
X-15959Y-207123D01*
X-15961Y-207126D01*
X-15992Y-207154D01*
X-16019Y-207184D01*
X-16067Y-207251D01*
X-16108Y-207320D01*
X-16141Y-207389D01*
X-16152Y-207420D01*
X-16164Y-207450D01*
X-16175Y-207475D01*
X-16180Y-207500D01*
X-16186Y-207517D01*
X-16191Y-207533D01*
X-16194Y-207542D01*
Y-207544D01*
X-16651Y-207475D01*
X-16635Y-207398D01*
X-16612Y-207328D01*
X-16587Y-207259D01*
X-16557Y-207198D01*
X-16529Y-207140D01*
X-16496Y-207087D01*
X-16465Y-207037D01*
X-16435Y-206993D01*
X-16405Y-206954D01*
X-16377Y-206921D01*
X-16349Y-206893D01*
X-16327Y-206869D01*
X-16308Y-206852D01*
X-16294Y-206838D01*
X-16283Y-206830D01*
X-16280Y-206827D01*
X-16225Y-206785D01*
X-16166Y-206752D01*
X-16105Y-206719D01*
X-16045Y-206694D01*
X-15981Y-206672D01*
X-15920Y-206652D01*
X-15862Y-206639D01*
X-15803Y-206625D01*
X-15748Y-206616D01*
X-15698Y-206608D01*
X-15654Y-206605D01*
X-15615Y-206600D01*
X-15585D01*
X-15560Y-206597D01*
X-15540D01*
X-15474Y-206600D01*
D02*
G37*
G36*
X13426Y-209436D02*
X12891D01*
Y-208902D01*
X13426D01*
Y-209436D01*
D02*
G37*
G36*
X-5073Y-205544D02*
X-5023Y-205550D01*
X-4975Y-205556D01*
X-4934Y-205564D01*
X-4895Y-205575D01*
X-4859Y-205586D01*
X-4826Y-205594D01*
X-4798Y-205605D01*
X-4773Y-205616D01*
X-4751Y-205625D01*
X-4732Y-205636D01*
X-4718Y-205641D01*
X-4710Y-205647D01*
X-4704Y-205652D01*
X-4701D01*
X-4640Y-205697D01*
X-4591Y-205747D01*
X-4549Y-205797D01*
X-4516Y-205844D01*
X-4491Y-205885D01*
X-4482Y-205902D01*
X-4474Y-205918D01*
X-4469Y-205932D01*
X-4463Y-205941D01*
X-4460Y-205946D01*
Y-205949D01*
X-4452Y-205977D01*
X-4444Y-206004D01*
X-4433Y-206071D01*
X-4424Y-206140D01*
X-4419Y-206206D01*
X-4416Y-206240D01*
Y-206267D01*
Y-206295D01*
X-4413Y-206317D01*
Y-206337D01*
Y-206353D01*
Y-206362D01*
Y-206364D01*
Y-206658D01*
X-3998D01*
Y-206736D01*
X-3973Y-206722D01*
X-3929Y-206700D01*
X-3884Y-206677D01*
X-3840Y-206661D01*
X-3760Y-206633D01*
X-3721Y-206625D01*
X-3685Y-206616D01*
X-3652Y-206611D01*
X-3624Y-206605D01*
X-3599Y-206603D01*
X-3577Y-206600D01*
X-3560Y-206597D01*
X-3535D01*
X-3474Y-206600D01*
X-3419Y-206611D01*
X-3369Y-206628D01*
X-3322Y-206644D01*
X-3286Y-206664D01*
X-3258Y-206677D01*
X-3247Y-206686D01*
X-3239Y-206688D01*
X-3236Y-206694D01*
X-3233D01*
X-3208Y-206713D01*
X-3181Y-206738D01*
X-3156Y-206766D01*
X-3131Y-206794D01*
X-3081Y-206860D01*
X-3034Y-206924D01*
X-2995Y-206985D01*
X-2978Y-207013D01*
X-2964Y-207037D01*
X-2953Y-207057D01*
X-2945Y-207071D01*
X-2940Y-207082D01*
X-2937Y-207085D01*
Y-206658D01*
X-2513D01*
Y-209436D01*
X-2984D01*
Y-207985D01*
X-2987Y-207874D01*
X-2995Y-207771D01*
X-3003Y-207724D01*
X-3009Y-207680D01*
X-3014Y-207639D01*
X-3023Y-207597D01*
X-3031Y-207564D01*
X-3036Y-207531D01*
X-3045Y-207503D01*
X-3050Y-207481D01*
X-3053Y-207461D01*
X-3059Y-207448D01*
X-3062Y-207439D01*
Y-207436D01*
X-3084Y-207378D01*
X-3111Y-207326D01*
X-3139Y-207281D01*
X-3170Y-207245D01*
X-3194Y-207218D01*
X-3217Y-207195D01*
X-3230Y-207184D01*
X-3236Y-207179D01*
X-3283Y-207148D01*
X-3330Y-207123D01*
X-3377Y-207107D01*
X-3419Y-207096D01*
X-3455Y-207090D01*
X-3485Y-207085D01*
X-3510D01*
X-3574Y-207090D01*
X-3638Y-207101D01*
X-3696Y-207115D01*
X-3746Y-207135D01*
X-3790Y-207154D01*
X-3809Y-207162D01*
X-3823Y-207168D01*
X-3837Y-207176D01*
X-3845Y-207179D01*
X-3851Y-207184D01*
X-3854D01*
X-3998Y-206807D01*
Y-207024D01*
X-4413D01*
Y-209436D01*
X-4884D01*
Y-207024D01*
X-5421D01*
Y-206658D01*
X-4881D01*
Y-206403D01*
Y-206359D01*
X-4884Y-206317D01*
X-4890Y-206278D01*
X-4895Y-206245D01*
X-4901Y-206215D01*
X-4909Y-206184D01*
X-4917Y-206162D01*
X-4926Y-206140D01*
X-4934Y-206121D01*
X-4942Y-206104D01*
X-4956Y-206082D01*
X-4967Y-206068D01*
X-4970Y-206063D01*
X-4989Y-206046D01*
X-5009Y-206032D01*
X-5056Y-206010D01*
X-5106Y-205993D01*
X-5156Y-205982D01*
X-5200Y-205977D01*
X-5219Y-205974D01*
X-5239Y-205971D01*
X-5272D01*
X-5369Y-205977D01*
X-5416Y-205979D01*
X-5460Y-205985D01*
X-5496Y-205991D01*
X-5524Y-205993D01*
X-5535Y-205996D01*
X-5543Y-205999D01*
X-5549D01*
X-5621Y-205589D01*
X-5532Y-205572D01*
X-5449Y-205561D01*
X-5374Y-205550D01*
X-5341Y-205547D01*
X-5311Y-205544D01*
X-5283Y-205542D01*
X-5233D01*
X-5217Y-205539D01*
X-5125D01*
X-5073Y-205544D01*
D02*
G37*
G36*
X-13067Y-209436D02*
X-13601D01*
Y-208902D01*
X-13067D01*
Y-209436D01*
D02*
G37*
G36*
X-18127Y-206600D02*
X-18036Y-206611D01*
X-17950Y-206625D01*
X-17870Y-206644D01*
X-17792Y-206669D01*
X-17720Y-206694D01*
X-17654Y-206725D01*
X-17593Y-206752D01*
X-17537Y-206780D01*
X-17490Y-206810D01*
X-17449Y-206835D01*
X-17413Y-206857D01*
X-17385Y-206880D01*
X-17366Y-206893D01*
X-17355Y-206905D01*
X-17349Y-206907D01*
X-17274Y-206982D01*
X-17208Y-207062D01*
X-17153Y-207151D01*
X-17103Y-207242D01*
X-17061Y-207337D01*
X-17028Y-207431D01*
X-16997Y-207525D01*
X-16975Y-207616D01*
X-16959Y-207705D01*
X-16945Y-207785D01*
X-16936Y-207857D01*
X-16931Y-207891D01*
X-16928Y-207921D01*
Y-207949D01*
X-16925Y-207974D01*
Y-207996D01*
X-16923Y-208015D01*
Y-208029D01*
Y-208040D01*
Y-208046D01*
Y-208049D01*
X-16925Y-208176D01*
X-16939Y-208298D01*
X-16956Y-208409D01*
X-16978Y-208514D01*
X-17006Y-208611D01*
X-17036Y-208699D01*
X-17069Y-208780D01*
X-17103Y-208852D01*
X-17136Y-208916D01*
X-17166Y-208971D01*
X-17197Y-209018D01*
X-17224Y-209057D01*
X-17247Y-209087D01*
X-17263Y-209109D01*
X-17277Y-209121D01*
X-17280Y-209126D01*
X-17349Y-209193D01*
X-17424Y-209248D01*
X-17502Y-209298D01*
X-17579Y-209339D01*
X-17657Y-209375D01*
X-17737Y-209406D01*
X-17812Y-209431D01*
X-17887Y-209450D01*
X-17956Y-209467D01*
X-18020Y-209478D01*
X-18075Y-209486D01*
X-18125Y-209492D01*
X-18166Y-209494D01*
X-18183D01*
X-18197Y-209497D01*
X-18222D01*
X-18291Y-209494D01*
X-18355Y-209489D01*
X-18418Y-209481D01*
X-18482Y-209470D01*
X-18540Y-209458D01*
X-18596Y-209445D01*
X-18645Y-209428D01*
X-18695Y-209411D01*
X-18737Y-209398D01*
X-18776Y-209381D01*
X-18809Y-209367D01*
X-18839Y-209353D01*
X-18861Y-209345D01*
X-18878Y-209337D01*
X-18889Y-209331D01*
X-18892Y-209328D01*
X-18947Y-209295D01*
X-19000Y-209259D01*
X-19050Y-209220D01*
X-19094Y-209181D01*
X-19136Y-209143D01*
X-19175Y-209104D01*
X-19211Y-209065D01*
X-19241Y-209026D01*
X-19269Y-208990D01*
X-19294Y-208957D01*
X-19313Y-208929D01*
X-19330Y-208902D01*
X-19343Y-208882D01*
X-19352Y-208866D01*
X-19357Y-208855D01*
X-19360Y-208852D01*
X-19388Y-208791D01*
X-19415Y-208727D01*
X-19435Y-208661D01*
X-19454Y-208592D01*
X-19471Y-208520D01*
X-19485Y-208450D01*
X-19496Y-208381D01*
X-19504Y-208314D01*
X-19510Y-208254D01*
X-19515Y-208195D01*
X-19518Y-208143D01*
X-19521Y-208098D01*
X-19524Y-208062D01*
Y-208032D01*
Y-208024D01*
Y-208015D01*
Y-208013D01*
Y-208010D01*
X-19521Y-207888D01*
X-19507Y-207774D01*
X-19490Y-207669D01*
X-19465Y-207569D01*
X-19438Y-207475D01*
X-19407Y-207392D01*
X-19374Y-207314D01*
X-19341Y-207242D01*
X-19308Y-207182D01*
X-19274Y-207126D01*
X-19244Y-207082D01*
X-19216Y-207043D01*
X-19191Y-207013D01*
X-19175Y-206990D01*
X-19163Y-206979D01*
X-19158Y-206974D01*
X-19089Y-206907D01*
X-19014Y-206849D01*
X-18936Y-206799D01*
X-18859Y-206755D01*
X-18781Y-206719D01*
X-18704Y-206688D01*
X-18626Y-206664D01*
X-18554Y-206644D01*
X-18485Y-206628D01*
X-18421Y-206616D01*
X-18366Y-206608D01*
X-18316Y-206603D01*
X-18277Y-206600D01*
X-18260Y-206597D01*
X-18222D01*
X-18127Y-206600D01*
D02*
G37*
G36*
X2304Y-206603D02*
X2393Y-206614D01*
X2434Y-206622D01*
X2473Y-206630D01*
X2509Y-206641D01*
X2540Y-206650D01*
X2570Y-206661D01*
X2595Y-206672D01*
X2617Y-206680D01*
X2636Y-206688D01*
X2650Y-206694D01*
X2661Y-206700D01*
X2667Y-206705D01*
X2670D01*
X2739Y-206749D01*
X2803Y-206799D01*
X2861Y-206852D01*
X2911Y-206902D01*
X2952Y-206949D01*
X2969Y-206968D01*
X2983Y-206985D01*
X2997Y-207001D01*
X3005Y-207013D01*
X3008Y-207018D01*
X3010Y-207021D01*
Y-206658D01*
X3440D01*
Y-210500D01*
X2969D01*
Y-209148D01*
X2922Y-209204D01*
X2872Y-209251D01*
X2819Y-209295D01*
X2772Y-209331D01*
X2728Y-209362D01*
X2711Y-209373D01*
X2695Y-209381D01*
X2681Y-209389D01*
X2672Y-209395D01*
X2667Y-209400D01*
X2664D01*
X2592Y-209434D01*
X2517Y-209456D01*
X2448Y-209472D01*
X2382Y-209486D01*
X2351Y-209489D01*
X2323Y-209492D01*
X2301Y-209494D01*
X2279D01*
X2262Y-209497D01*
X2240D01*
X2179Y-209494D01*
X2121Y-209489D01*
X2063Y-209481D01*
X2008Y-209470D01*
X1955Y-209456D01*
X1905Y-209439D01*
X1858Y-209425D01*
X1814Y-209406D01*
X1772Y-209389D01*
X1736Y-209375D01*
X1706Y-209359D01*
X1678Y-209345D01*
X1656Y-209334D01*
X1642Y-209326D01*
X1631Y-209320D01*
X1628Y-209317D01*
X1575Y-209281D01*
X1526Y-209242D01*
X1479Y-209201D01*
X1437Y-209159D01*
X1395Y-209115D01*
X1359Y-209071D01*
X1326Y-209029D01*
X1299Y-208988D01*
X1271Y-208949D01*
X1249Y-208910D01*
X1229Y-208880D01*
X1213Y-208849D01*
X1202Y-208827D01*
X1193Y-208807D01*
X1188Y-208797D01*
X1185Y-208794D01*
X1157Y-208730D01*
X1132Y-208664D01*
X1113Y-208597D01*
X1096Y-208530D01*
X1069Y-208400D01*
X1058Y-208339D01*
X1049Y-208281D01*
X1044Y-208229D01*
X1038Y-208179D01*
X1035Y-208134D01*
X1033Y-208098D01*
X1030Y-208068D01*
Y-208046D01*
Y-208032D01*
Y-208026D01*
X1033Y-207952D01*
X1035Y-207882D01*
X1044Y-207813D01*
X1052Y-207747D01*
X1063Y-207683D01*
X1074Y-207622D01*
X1085Y-207567D01*
X1099Y-207514D01*
X1113Y-207467D01*
X1124Y-207422D01*
X1135Y-207386D01*
X1146Y-207356D01*
X1154Y-207331D01*
X1163Y-207312D01*
X1166Y-207301D01*
X1168Y-207298D01*
X1196Y-207237D01*
X1226Y-207182D01*
X1257Y-207126D01*
X1290Y-207076D01*
X1326Y-207032D01*
X1359Y-206988D01*
X1393Y-206949D01*
X1426Y-206916D01*
X1459Y-206885D01*
X1487Y-206857D01*
X1512Y-206835D01*
X1537Y-206816D01*
X1556Y-206802D01*
X1570Y-206791D01*
X1578Y-206785D01*
X1581Y-206783D01*
X1634Y-206749D01*
X1686Y-206722D01*
X1739Y-206697D01*
X1794Y-206675D01*
X1847Y-206658D01*
X1900Y-206641D01*
X1949Y-206630D01*
X1997Y-206619D01*
X2041Y-206614D01*
X2080Y-206608D01*
X2116Y-206603D01*
X2146Y-206600D01*
X2174Y-206597D01*
X2207D01*
X2304Y-206603D01*
D02*
G37*
G36*
X8770Y-211089D02*
X8864Y-211097D01*
X8953Y-211111D01*
X9036Y-211130D01*
X9114Y-211153D01*
X9186Y-211177D01*
X9249Y-211202D01*
X9310Y-211227D01*
X9363Y-211255D01*
X9410Y-211280D01*
X9449Y-211305D01*
X9482Y-211327D01*
X9507Y-211344D01*
X9526Y-211360D01*
X9537Y-211368D01*
X9540Y-211371D01*
X9598Y-211427D01*
X9648Y-211488D01*
X9695Y-211551D01*
X9734Y-211618D01*
X9770Y-211687D01*
X9801Y-211756D01*
X9826Y-211823D01*
X9848Y-211889D01*
X9864Y-211950D01*
X9878Y-212008D01*
X9889Y-212061D01*
X9898Y-212105D01*
X9906Y-212141D01*
X9909Y-212169D01*
Y-212180D01*
X9911Y-212189D01*
Y-212191D01*
Y-212194D01*
X9427Y-212244D01*
X9424Y-212177D01*
X9418Y-212116D01*
X9407Y-212058D01*
X9396Y-212003D01*
X9380Y-211953D01*
X9363Y-211909D01*
X9343Y-211864D01*
X9324Y-211828D01*
X9307Y-211795D01*
X9288Y-211765D01*
X9272Y-211740D01*
X9255Y-211718D01*
X9244Y-211704D01*
X9233Y-211690D01*
X9227Y-211684D01*
X9224Y-211682D01*
X9186Y-211646D01*
X9141Y-211615D01*
X9097Y-211587D01*
X9053Y-211562D01*
X9006Y-211543D01*
X8961Y-211526D01*
X8917Y-211513D01*
X8875Y-211502D01*
X8834Y-211493D01*
X8798Y-211488D01*
X8765Y-211482D01*
X8734Y-211479D01*
X8712Y-211477D01*
X8679D01*
X8620Y-211479D01*
X8565Y-211485D01*
X8512Y-211493D01*
X8463Y-211507D01*
X8418Y-211521D01*
X8374Y-211538D01*
X8335Y-211554D01*
X8299Y-211574D01*
X8269Y-211590D01*
X8241Y-211610D01*
X8216Y-211626D01*
X8197Y-211640D01*
X8180Y-211654D01*
X8169Y-211662D01*
X8163Y-211668D01*
X8161Y-211670D01*
X8125Y-211706D01*
X8094Y-211745D01*
X8066Y-211784D01*
X8044Y-211826D01*
X8025Y-211864D01*
X8008Y-211903D01*
X7994Y-211942D01*
X7983Y-211978D01*
X7975Y-212011D01*
X7970Y-212042D01*
X7964Y-212069D01*
X7961Y-212094D01*
X7959Y-212114D01*
Y-212127D01*
Y-212139D01*
Y-212141D01*
X7961Y-212191D01*
X7967Y-212241D01*
X7978Y-212291D01*
X7992Y-212341D01*
X8028Y-212438D01*
X8050Y-212482D01*
X8069Y-212524D01*
X8089Y-212562D01*
X8111Y-212598D01*
X8128Y-212629D01*
X8144Y-212657D01*
X8161Y-212676D01*
X8172Y-212693D01*
X8177Y-212704D01*
X8180Y-212706D01*
X8224Y-212765D01*
X8280Y-212828D01*
X8338Y-212892D01*
X8405Y-212959D01*
X8471Y-213028D01*
X8543Y-213094D01*
X8612Y-213161D01*
X8684Y-213224D01*
X8751Y-213285D01*
X8814Y-213341D01*
X8870Y-213393D01*
X8923Y-213435D01*
X8964Y-213471D01*
X8981Y-213485D01*
X8995Y-213499D01*
X9006Y-213507D01*
X9014Y-213515D01*
X9019Y-213518D01*
X9022Y-213521D01*
X9094Y-213582D01*
X9164Y-213640D01*
X9227Y-213695D01*
X9288Y-213748D01*
X9343Y-213801D01*
X9393Y-213848D01*
X9438Y-213892D01*
X9479Y-213934D01*
X9518Y-213970D01*
X9549Y-214003D01*
X9576Y-214031D01*
X9598Y-214055D01*
X9615Y-214075D01*
X9626Y-214089D01*
X9634Y-214097D01*
X9637Y-214100D01*
X9712Y-214194D01*
X9776Y-214285D01*
X9828Y-214371D01*
X9853Y-214410D01*
X9873Y-214449D01*
X9889Y-214482D01*
X9906Y-214512D01*
X9920Y-214540D01*
X9928Y-214565D01*
X9936Y-214584D01*
X9942Y-214598D01*
X9947Y-214607D01*
Y-214609D01*
X9967Y-214668D01*
X9981Y-214726D01*
X9989Y-214781D01*
X9995Y-214828D01*
X9997Y-214873D01*
X10000Y-214889D01*
Y-214906D01*
Y-214917D01*
Y-214925D01*
Y-214931D01*
Y-214933D01*
X7468D01*
Y-214482D01*
X9346D01*
X9316Y-214435D01*
X9283Y-214388D01*
X9249Y-214346D01*
X9219Y-214307D01*
X9191Y-214277D01*
X9169Y-214252D01*
X9155Y-214235D01*
X9150Y-214230D01*
X9125Y-214202D01*
X9091Y-214172D01*
X9055Y-214139D01*
X9014Y-214100D01*
X8970Y-214061D01*
X8925Y-214019D01*
X8831Y-213939D01*
X8787Y-213900D01*
X8745Y-213864D01*
X8709Y-213831D01*
X8673Y-213803D01*
X8646Y-213778D01*
X8626Y-213762D01*
X8612Y-213748D01*
X8607Y-213745D01*
X8515Y-213668D01*
X8429Y-213593D01*
X8352Y-213524D01*
X8280Y-213460D01*
X8213Y-213399D01*
X8155Y-213344D01*
X8100Y-213294D01*
X8053Y-213249D01*
X8011Y-213208D01*
X7978Y-213172D01*
X7947Y-213141D01*
X7923Y-213116D01*
X7903Y-213097D01*
X7892Y-213083D01*
X7884Y-213075D01*
X7881Y-213072D01*
X7842Y-213025D01*
X7803Y-212981D01*
X7770Y-212936D01*
X7740Y-212895D01*
X7684Y-212814D01*
X7662Y-212778D01*
X7643Y-212745D01*
X7623Y-212715D01*
X7609Y-212687D01*
X7596Y-212662D01*
X7587Y-212643D01*
X7579Y-212626D01*
X7574Y-212615D01*
X7568Y-212607D01*
Y-212604D01*
X7537Y-212521D01*
X7513Y-212440D01*
X7496Y-212363D01*
X7485Y-212294D01*
X7482Y-212263D01*
X7479Y-212235D01*
X7476Y-212213D01*
X7474Y-212191D01*
Y-212175D01*
Y-212163D01*
Y-212155D01*
Y-212152D01*
X7476Y-212069D01*
X7488Y-211989D01*
X7504Y-211914D01*
X7524Y-211842D01*
X7549Y-211776D01*
X7576Y-211712D01*
X7607Y-211654D01*
X7634Y-211601D01*
X7665Y-211554D01*
X7695Y-211513D01*
X7723Y-211477D01*
X7748Y-211449D01*
X7767Y-211424D01*
X7784Y-211407D01*
X7795Y-211396D01*
X7798Y-211393D01*
X7862Y-211338D01*
X7928Y-211291D01*
X7997Y-211252D01*
X8069Y-211216D01*
X8141Y-211186D01*
X8216Y-211161D01*
X8285Y-211141D01*
X8355Y-211125D01*
X8418Y-211111D01*
X8479Y-211103D01*
X8532Y-211094D01*
X8579Y-211091D01*
X8618Y-211089D01*
X8646Y-211086D01*
X8670D01*
X8770Y-211089D01*
D02*
G37*
G36*
X2815D02*
X2909Y-211097D01*
X2997Y-211111D01*
X3080Y-211130D01*
X3158Y-211153D01*
X3230Y-211177D01*
X3294Y-211202D01*
X3355Y-211227D01*
X3407Y-211255D01*
X3455Y-211280D01*
X3493Y-211305D01*
X3526Y-211327D01*
X3551Y-211344D01*
X3571Y-211360D01*
X3582Y-211368D01*
X3585Y-211371D01*
X3643Y-211427D01*
X3693Y-211488D01*
X3740Y-211551D01*
X3779Y-211618D01*
X3815Y-211687D01*
X3845Y-211756D01*
X3870Y-211823D01*
X3892Y-211889D01*
X3909Y-211950D01*
X3923Y-212008D01*
X3934Y-212061D01*
X3942Y-212105D01*
X3950Y-212141D01*
X3953Y-212169D01*
Y-212180D01*
X3956Y-212189D01*
Y-212191D01*
Y-212194D01*
X3471Y-212244D01*
X3468Y-212177D01*
X3463Y-212116D01*
X3452Y-212058D01*
X3441Y-212003D01*
X3424Y-211953D01*
X3407Y-211909D01*
X3388Y-211864D01*
X3369Y-211828D01*
X3352Y-211795D01*
X3333Y-211765D01*
X3316Y-211740D01*
X3299Y-211718D01*
X3288Y-211704D01*
X3277Y-211690D01*
X3272Y-211684D01*
X3269Y-211682D01*
X3230Y-211646D01*
X3186Y-211615D01*
X3142Y-211587D01*
X3097Y-211562D01*
X3050Y-211543D01*
X3006Y-211526D01*
X2961Y-211513D01*
X2920Y-211502D01*
X2878Y-211493D01*
X2842Y-211488D01*
X2809Y-211482D01*
X2779Y-211479D01*
X2756Y-211477D01*
X2723D01*
X2665Y-211479D01*
X2610Y-211485D01*
X2557Y-211493D01*
X2507Y-211507D01*
X2463Y-211521D01*
X2418Y-211538D01*
X2380Y-211554D01*
X2344Y-211574D01*
X2313Y-211590D01*
X2286Y-211610D01*
X2261Y-211626D01*
X2241Y-211640D01*
X2225Y-211654D01*
X2214Y-211662D01*
X2208Y-211668D01*
X2205Y-211670D01*
X2169Y-211706D01*
X2139Y-211745D01*
X2111Y-211784D01*
X2089Y-211826D01*
X2070Y-211864D01*
X2053Y-211903D01*
X2039Y-211942D01*
X2028Y-211978D01*
X2020Y-212011D01*
X2014Y-212042D01*
X2008Y-212069D01*
X2006Y-212094D01*
X2003Y-212114D01*
Y-212127D01*
Y-212139D01*
Y-212141D01*
X2006Y-212191D01*
X2011Y-212241D01*
X2022Y-212291D01*
X2036Y-212341D01*
X2072Y-212438D01*
X2094Y-212482D01*
X2114Y-212524D01*
X2133Y-212562D01*
X2155Y-212598D01*
X2172Y-212629D01*
X2189Y-212657D01*
X2205Y-212676D01*
X2216Y-212693D01*
X2222Y-212704D01*
X2225Y-212706D01*
X2269Y-212765D01*
X2324Y-212828D01*
X2382Y-212892D01*
X2449Y-212959D01*
X2516Y-213028D01*
X2588Y-213094D01*
X2657Y-213161D01*
X2729Y-213224D01*
X2795Y-213285D01*
X2859Y-213341D01*
X2914Y-213393D01*
X2967Y-213435D01*
X3008Y-213471D01*
X3025Y-213485D01*
X3039Y-213499D01*
X3050Y-213507D01*
X3058Y-213515D01*
X3064Y-213518D01*
X3067Y-213521D01*
X3139Y-213582D01*
X3208Y-213640D01*
X3272Y-213695D01*
X3333Y-213748D01*
X3388Y-213801D01*
X3438Y-213848D01*
X3482Y-213892D01*
X3524Y-213934D01*
X3562Y-213970D01*
X3593Y-214003D01*
X3621Y-214031D01*
X3643Y-214055D01*
X3660Y-214075D01*
X3671Y-214089D01*
X3679Y-214097D01*
X3682Y-214100D01*
X3756Y-214194D01*
X3820Y-214285D01*
X3873Y-214371D01*
X3898Y-214410D01*
X3917Y-214449D01*
X3934Y-214482D01*
X3950Y-214512D01*
X3964Y-214540D01*
X3972Y-214565D01*
X3981Y-214584D01*
X3986Y-214598D01*
X3992Y-214607D01*
Y-214609D01*
X4011Y-214668D01*
X4025Y-214726D01*
X4033Y-214781D01*
X4039Y-214828D01*
X4042Y-214873D01*
X4044Y-214889D01*
Y-214906D01*
Y-214917D01*
Y-214925D01*
Y-214931D01*
Y-214933D01*
X1513D01*
Y-214482D01*
X3391D01*
X3360Y-214435D01*
X3327Y-214388D01*
X3294Y-214346D01*
X3263Y-214307D01*
X3236Y-214277D01*
X3213Y-214252D01*
X3200Y-214235D01*
X3194Y-214230D01*
X3169Y-214202D01*
X3136Y-214172D01*
X3100Y-214139D01*
X3058Y-214100D01*
X3014Y-214061D01*
X2970Y-214019D01*
X2876Y-213939D01*
X2831Y-213900D01*
X2790Y-213864D01*
X2754Y-213831D01*
X2718Y-213803D01*
X2690Y-213778D01*
X2671Y-213762D01*
X2657Y-213748D01*
X2651Y-213745D01*
X2560Y-213668D01*
X2474Y-213593D01*
X2396Y-213524D01*
X2324Y-213460D01*
X2258Y-213399D01*
X2200Y-213344D01*
X2144Y-213294D01*
X2097Y-213249D01*
X2056Y-213208D01*
X2022Y-213172D01*
X1992Y-213141D01*
X1967Y-213116D01*
X1948Y-213097D01*
X1936Y-213083D01*
X1928Y-213075D01*
X1925Y-213072D01*
X1887Y-213025D01*
X1848Y-212981D01*
X1815Y-212936D01*
X1784Y-212895D01*
X1729Y-212814D01*
X1707Y-212778D01*
X1687Y-212745D01*
X1668Y-212715D01*
X1654Y-212687D01*
X1640Y-212662D01*
X1632Y-212643D01*
X1623Y-212626D01*
X1618Y-212615D01*
X1612Y-212607D01*
Y-212604D01*
X1582Y-212521D01*
X1557Y-212440D01*
X1540Y-212363D01*
X1529Y-212294D01*
X1527Y-212263D01*
X1524Y-212235D01*
X1521Y-212213D01*
X1518Y-212191D01*
Y-212175D01*
Y-212163D01*
Y-212155D01*
Y-212152D01*
X1521Y-212069D01*
X1532Y-211989D01*
X1549Y-211914D01*
X1568Y-211842D01*
X1593Y-211776D01*
X1621Y-211712D01*
X1651Y-211654D01*
X1679Y-211601D01*
X1709Y-211554D01*
X1740Y-211513D01*
X1768Y-211477D01*
X1792Y-211449D01*
X1812Y-211424D01*
X1829Y-211407D01*
X1840Y-211396D01*
X1842Y-211393D01*
X1906Y-211338D01*
X1973Y-211291D01*
X2042Y-211252D01*
X2114Y-211216D01*
X2186Y-211186D01*
X2261Y-211161D01*
X2330Y-211141D01*
X2399Y-211125D01*
X2463Y-211111D01*
X2524Y-211103D01*
X2576Y-211094D01*
X2623Y-211091D01*
X2662Y-211089D01*
X2690Y-211086D01*
X2715D01*
X2815Y-211089D01*
D02*
G37*
G36*
X-163D02*
X-69Y-211097D01*
X20Y-211111D01*
X103Y-211130D01*
X180Y-211153D01*
X252Y-211177D01*
X316Y-211202D01*
X377Y-211227D01*
X430Y-211255D01*
X477Y-211280D01*
X515Y-211305D01*
X549Y-211327D01*
X574Y-211344D01*
X593Y-211360D01*
X604Y-211368D01*
X607Y-211371D01*
X665Y-211427D01*
X715Y-211488D01*
X762Y-211551D01*
X801Y-211618D01*
X837Y-211687D01*
X867Y-211756D01*
X892Y-211823D01*
X914Y-211889D01*
X931Y-211950D01*
X945Y-212008D01*
X956Y-212061D01*
X964Y-212105D01*
X973Y-212141D01*
X975Y-212169D01*
Y-212180D01*
X978Y-212189D01*
Y-212191D01*
Y-212194D01*
X493Y-212244D01*
X491Y-212177D01*
X485Y-212116D01*
X474Y-212058D01*
X463Y-212003D01*
X446Y-211953D01*
X430Y-211909D01*
X410Y-211864D01*
X391Y-211828D01*
X374Y-211795D01*
X355Y-211765D01*
X338Y-211740D01*
X322Y-211718D01*
X310Y-211704D01*
X299Y-211690D01*
X294Y-211684D01*
X291Y-211682D01*
X252Y-211646D01*
X208Y-211615D01*
X164Y-211587D01*
X119Y-211562D01*
X72Y-211543D01*
X28Y-211526D01*
X-16Y-211513D01*
X-58Y-211502D01*
X-99Y-211493D01*
X-135Y-211488D01*
X-169Y-211482D01*
X-199Y-211479D01*
X-221Y-211477D01*
X-255D01*
X-313Y-211479D01*
X-368Y-211485D01*
X-421Y-211493D01*
X-471Y-211507D01*
X-515Y-211521D01*
X-559Y-211538D01*
X-598Y-211554D01*
X-634Y-211574D01*
X-665Y-211590D01*
X-692Y-211610D01*
X-717Y-211626D01*
X-736Y-211640D01*
X-753Y-211654D01*
X-764Y-211662D01*
X-770Y-211668D01*
X-772Y-211670D01*
X-809Y-211706D01*
X-839Y-211745D01*
X-867Y-211784D01*
X-889Y-211826D01*
X-908Y-211864D01*
X-925Y-211903D01*
X-939Y-211942D01*
X-950Y-211978D01*
X-958Y-212011D01*
X-964Y-212042D01*
X-969Y-212069D01*
X-972Y-212094D01*
X-975Y-212114D01*
Y-212127D01*
Y-212139D01*
Y-212141D01*
X-972Y-212191D01*
X-966Y-212241D01*
X-955Y-212291D01*
X-941Y-212341D01*
X-905Y-212438D01*
X-883Y-212482D01*
X-864Y-212524D01*
X-845Y-212562D01*
X-822Y-212598D01*
X-806Y-212629D01*
X-789Y-212657D01*
X-772Y-212676D01*
X-761Y-212693D01*
X-756Y-212704D01*
X-753Y-212706D01*
X-709Y-212765D01*
X-653Y-212828D01*
X-595Y-212892D01*
X-529Y-212959D01*
X-462Y-213028D01*
X-390Y-213094D01*
X-321Y-213161D01*
X-249Y-213224D01*
X-183Y-213285D01*
X-119Y-213341D01*
X-63Y-213393D01*
X-11Y-213435D01*
X31Y-213471D01*
X47Y-213485D01*
X61Y-213499D01*
X72Y-213507D01*
X81Y-213515D01*
X86Y-213518D01*
X89Y-213521D01*
X161Y-213582D01*
X230Y-213640D01*
X294Y-213695D01*
X355Y-213748D01*
X410Y-213801D01*
X460Y-213848D01*
X504Y-213892D01*
X546Y-213934D01*
X585Y-213970D01*
X615Y-214003D01*
X643Y-214031D01*
X665Y-214055D01*
X682Y-214075D01*
X693Y-214089D01*
X701Y-214097D01*
X704Y-214100D01*
X779Y-214194D01*
X842Y-214285D01*
X895Y-214371D01*
X920Y-214410D01*
X939Y-214449D01*
X956Y-214482D01*
X973Y-214512D01*
X986Y-214540D01*
X995Y-214565D01*
X1003Y-214584D01*
X1009Y-214598D01*
X1014Y-214607D01*
Y-214609D01*
X1034Y-214668D01*
X1047Y-214726D01*
X1056Y-214781D01*
X1061Y-214828D01*
X1064Y-214873D01*
X1067Y-214889D01*
Y-214906D01*
Y-214917D01*
Y-214925D01*
Y-214931D01*
Y-214933D01*
X-1465D01*
Y-214482D01*
X413D01*
X383Y-214435D01*
X349Y-214388D01*
X316Y-214346D01*
X286Y-214307D01*
X258Y-214277D01*
X236Y-214252D01*
X222Y-214235D01*
X216Y-214230D01*
X191Y-214202D01*
X158Y-214172D01*
X122Y-214139D01*
X81Y-214100D01*
X36Y-214061D01*
X-8Y-214019D01*
X-102Y-213939D01*
X-146Y-213900D01*
X-188Y-213864D01*
X-224Y-213831D01*
X-260Y-213803D01*
X-288Y-213778D01*
X-307Y-213762D01*
X-321Y-213748D01*
X-327Y-213745D01*
X-418Y-213668D01*
X-504Y-213593D01*
X-581Y-213524D01*
X-653Y-213460D01*
X-720Y-213399D01*
X-778Y-213344D01*
X-833Y-213294D01*
X-881Y-213249D01*
X-922Y-213208D01*
X-955Y-213172D01*
X-986Y-213141D01*
X-1011Y-213116D01*
X-1030Y-213097D01*
X-1041Y-213083D01*
X-1049Y-213075D01*
X-1052Y-213072D01*
X-1091Y-213025D01*
X-1130Y-212981D01*
X-1163Y-212936D01*
X-1194Y-212895D01*
X-1249Y-212814D01*
X-1271Y-212778D01*
X-1290Y-212745D01*
X-1310Y-212715D01*
X-1324Y-212687D01*
X-1338Y-212662D01*
X-1346Y-212643D01*
X-1354Y-212626D01*
X-1360Y-212615D01*
X-1365Y-212607D01*
Y-212604D01*
X-1396Y-212521D01*
X-1421Y-212440D01*
X-1437Y-212363D01*
X-1448Y-212294D01*
X-1451Y-212263D01*
X-1454Y-212235D01*
X-1457Y-212213D01*
X-1460Y-212191D01*
Y-212175D01*
Y-212163D01*
Y-212155D01*
Y-212152D01*
X-1457Y-212069D01*
X-1446Y-211989D01*
X-1429Y-211914D01*
X-1410Y-211842D01*
X-1385Y-211776D01*
X-1357Y-211712D01*
X-1326Y-211654D01*
X-1299Y-211601D01*
X-1268Y-211554D01*
X-1238Y-211513D01*
X-1210Y-211477D01*
X-1185Y-211449D01*
X-1166Y-211424D01*
X-1149Y-211407D01*
X-1138Y-211396D01*
X-1135Y-211393D01*
X-1072Y-211338D01*
X-1005Y-211291D01*
X-936Y-211252D01*
X-864Y-211216D01*
X-792Y-211186D01*
X-717Y-211161D01*
X-648Y-211141D01*
X-579Y-211125D01*
X-515Y-211111D01*
X-454Y-211103D01*
X-401Y-211094D01*
X-354Y-211091D01*
X-316Y-211089D01*
X-288Y-211086D01*
X-263D01*
X-163Y-211089D01*
D02*
G37*
G36*
X-7606D02*
X-7512Y-211097D01*
X-7423Y-211111D01*
X-7340Y-211130D01*
X-7263Y-211153D01*
X-7191Y-211177D01*
X-7127Y-211202D01*
X-7066Y-211227D01*
X-7013Y-211255D01*
X-6966Y-211280D01*
X-6927Y-211305D01*
X-6894Y-211327D01*
X-6869Y-211344D01*
X-6850Y-211360D01*
X-6839Y-211368D01*
X-6836Y-211371D01*
X-6778Y-211427D01*
X-6728Y-211488D01*
X-6681Y-211551D01*
X-6642Y-211618D01*
X-6606Y-211687D01*
X-6576Y-211756D01*
X-6551Y-211823D01*
X-6529Y-211889D01*
X-6512Y-211950D01*
X-6498Y-212008D01*
X-6487Y-212061D01*
X-6479Y-212105D01*
X-6470Y-212141D01*
X-6468Y-212169D01*
Y-212180D01*
X-6465Y-212189D01*
Y-212191D01*
Y-212194D01*
X-6950Y-212244D01*
X-6952Y-212177D01*
X-6958Y-212116D01*
X-6969Y-212058D01*
X-6980Y-212003D01*
X-6997Y-211953D01*
X-7013Y-211909D01*
X-7033Y-211864D01*
X-7052Y-211828D01*
X-7069Y-211795D01*
X-7088Y-211765D01*
X-7105Y-211740D01*
X-7121Y-211718D01*
X-7132Y-211704D01*
X-7143Y-211690D01*
X-7149Y-211684D01*
X-7152Y-211682D01*
X-7191Y-211646D01*
X-7235Y-211615D01*
X-7279Y-211587D01*
X-7324Y-211562D01*
X-7371Y-211543D01*
X-7415Y-211526D01*
X-7459Y-211513D01*
X-7501Y-211502D01*
X-7542Y-211493D01*
X-7578Y-211488D01*
X-7612Y-211482D01*
X-7642Y-211479D01*
X-7664Y-211477D01*
X-7698D01*
X-7756Y-211479D01*
X-7811Y-211485D01*
X-7864Y-211493D01*
X-7914Y-211507D01*
X-7958Y-211521D01*
X-8002Y-211538D01*
X-8041Y-211554D01*
X-8077Y-211574D01*
X-8107Y-211590D01*
X-8135Y-211610D01*
X-8160Y-211626D01*
X-8179Y-211640D01*
X-8196Y-211654D01*
X-8207Y-211662D01*
X-8213Y-211668D01*
X-8215Y-211670D01*
X-8252Y-211706D01*
X-8282Y-211745D01*
X-8310Y-211784D01*
X-8332Y-211826D01*
X-8351Y-211864D01*
X-8368Y-211903D01*
X-8382Y-211942D01*
X-8393Y-211978D01*
X-8401Y-212011D01*
X-8407Y-212042D01*
X-8412Y-212069D01*
X-8415Y-212094D01*
X-8418Y-212114D01*
Y-212127D01*
Y-212139D01*
Y-212141D01*
X-8415Y-212191D01*
X-8409Y-212241D01*
X-8398Y-212291D01*
X-8384Y-212341D01*
X-8348Y-212438D01*
X-8326Y-212482D01*
X-8307Y-212524D01*
X-8287Y-212562D01*
X-8265Y-212598D01*
X-8249Y-212629D01*
X-8232Y-212657D01*
X-8215Y-212676D01*
X-8204Y-212693D01*
X-8199Y-212704D01*
X-8196Y-212706D01*
X-8152Y-212765D01*
X-8096Y-212828D01*
X-8038Y-212892D01*
X-7972Y-212959D01*
X-7905Y-213028D01*
X-7833Y-213094D01*
X-7764Y-213161D01*
X-7692Y-213224D01*
X-7626Y-213285D01*
X-7562Y-213341D01*
X-7506Y-213393D01*
X-7454Y-213435D01*
X-7412Y-213471D01*
X-7396Y-213485D01*
X-7382Y-213499D01*
X-7371Y-213507D01*
X-7362Y-213515D01*
X-7357Y-213518D01*
X-7354Y-213521D01*
X-7282Y-213582D01*
X-7213Y-213640D01*
X-7149Y-213695D01*
X-7088Y-213748D01*
X-7033Y-213801D01*
X-6983Y-213848D01*
X-6938Y-213892D01*
X-6897Y-213934D01*
X-6858Y-213970D01*
X-6828Y-214003D01*
X-6800Y-214031D01*
X-6778Y-214055D01*
X-6761Y-214075D01*
X-6750Y-214089D01*
X-6742Y-214097D01*
X-6739Y-214100D01*
X-6664Y-214194D01*
X-6601Y-214285D01*
X-6548Y-214371D01*
X-6523Y-214410D01*
X-6504Y-214449D01*
X-6487Y-214482D01*
X-6470Y-214512D01*
X-6457Y-214540D01*
X-6448Y-214565D01*
X-6440Y-214584D01*
X-6434Y-214598D01*
X-6429Y-214607D01*
Y-214609D01*
X-6409Y-214668D01*
X-6396Y-214726D01*
X-6387Y-214781D01*
X-6382Y-214828D01*
X-6379Y-214873D01*
X-6376Y-214889D01*
Y-214906D01*
Y-214917D01*
Y-214925D01*
Y-214931D01*
Y-214933D01*
X-8908D01*
Y-214482D01*
X-7030D01*
X-7060Y-214435D01*
X-7094Y-214388D01*
X-7127Y-214346D01*
X-7157Y-214307D01*
X-7185Y-214277D01*
X-7207Y-214252D01*
X-7221Y-214235D01*
X-7227Y-214230D01*
X-7252Y-214202D01*
X-7285Y-214172D01*
X-7321Y-214139D01*
X-7362Y-214100D01*
X-7407Y-214061D01*
X-7451Y-214019D01*
X-7545Y-213939D01*
X-7589Y-213900D01*
X-7631Y-213864D01*
X-7667Y-213831D01*
X-7703Y-213803D01*
X-7731Y-213778D01*
X-7750Y-213762D01*
X-7764Y-213748D01*
X-7769Y-213745D01*
X-7861Y-213668D01*
X-7947Y-213593D01*
X-8024Y-213524D01*
X-8096Y-213460D01*
X-8163Y-213399D01*
X-8221Y-213344D01*
X-8276Y-213294D01*
X-8324Y-213249D01*
X-8365Y-213208D01*
X-8398Y-213172D01*
X-8429Y-213141D01*
X-8454Y-213116D01*
X-8473Y-213097D01*
X-8484Y-213083D01*
X-8493Y-213075D01*
X-8495Y-213072D01*
X-8534Y-213025D01*
X-8573Y-212981D01*
X-8606Y-212936D01*
X-8637Y-212895D01*
X-8692Y-212814D01*
X-8714Y-212778D01*
X-8733Y-212745D01*
X-8753Y-212715D01*
X-8767Y-212687D01*
X-8781Y-212662D01*
X-8789Y-212643D01*
X-8797Y-212626D01*
X-8803Y-212615D01*
X-8808Y-212607D01*
Y-212604D01*
X-8839Y-212521D01*
X-8864Y-212440D01*
X-8880Y-212363D01*
X-8891Y-212294D01*
X-8894Y-212263D01*
X-8897Y-212235D01*
X-8900Y-212213D01*
X-8902Y-212191D01*
Y-212175D01*
Y-212163D01*
Y-212155D01*
Y-212152D01*
X-8900Y-212069D01*
X-8889Y-211989D01*
X-8872Y-211914D01*
X-8853Y-211842D01*
X-8828Y-211776D01*
X-8800Y-211712D01*
X-8770Y-211654D01*
X-8742Y-211601D01*
X-8711Y-211554D01*
X-8681Y-211513D01*
X-8653Y-211477D01*
X-8628Y-211449D01*
X-8609Y-211424D01*
X-8592Y-211407D01*
X-8581Y-211396D01*
X-8578Y-211393D01*
X-8515Y-211338D01*
X-8448Y-211291D01*
X-8379Y-211252D01*
X-8307Y-211216D01*
X-8235Y-211186D01*
X-8160Y-211161D01*
X-8091Y-211141D01*
X-8022Y-211125D01*
X-7958Y-211111D01*
X-7897Y-211103D01*
X-7844Y-211094D01*
X-7797Y-211091D01*
X-7758Y-211089D01*
X-7731Y-211086D01*
X-7706D01*
X-7606Y-211089D01*
D02*
G37*
G36*
X5792D02*
X5864Y-211094D01*
X5934Y-211105D01*
X6000Y-211122D01*
X6061Y-211139D01*
X6119Y-211158D01*
X6172Y-211177D01*
X6219Y-211197D01*
X6263Y-211219D01*
X6299Y-211238D01*
X6333Y-211258D01*
X6360Y-211274D01*
X6382Y-211288D01*
X6396Y-211299D01*
X6407Y-211308D01*
X6410Y-211310D01*
X6460Y-211355D01*
X6507Y-211402D01*
X6551Y-211452D01*
X6593Y-211504D01*
X6629Y-211557D01*
X6662Y-211612D01*
X6695Y-211665D01*
X6720Y-211715D01*
X6745Y-211762D01*
X6767Y-211806D01*
X6784Y-211848D01*
X6801Y-211881D01*
X6812Y-211912D01*
X6820Y-211931D01*
X6823Y-211945D01*
X6826Y-211950D01*
X6850Y-212031D01*
X6870Y-212116D01*
X6889Y-212205D01*
X6906Y-212297D01*
X6931Y-212479D01*
X6939Y-212568D01*
X6948Y-212654D01*
X6953Y-212734D01*
X6956Y-212809D01*
X6959Y-212875D01*
X6961Y-212931D01*
Y-212956D01*
X6964Y-212978D01*
Y-212997D01*
Y-213014D01*
Y-213028D01*
Y-213036D01*
Y-213042D01*
Y-213044D01*
Y-213144D01*
X6959Y-213241D01*
X6956Y-213333D01*
X6948Y-213421D01*
X6939Y-213507D01*
X6928Y-213590D01*
X6917Y-213668D01*
X6906Y-213742D01*
X6892Y-213817D01*
X6875Y-213884D01*
X6862Y-213950D01*
X6845Y-214011D01*
X6828Y-214072D01*
X6812Y-214127D01*
X6792Y-214180D01*
X6776Y-214230D01*
X6759Y-214274D01*
X6740Y-214319D01*
X6723Y-214357D01*
X6707Y-214396D01*
X6690Y-214429D01*
X6676Y-214460D01*
X6659Y-214488D01*
X6645Y-214512D01*
X6634Y-214535D01*
X6623Y-214551D01*
X6612Y-214568D01*
X6604Y-214582D01*
X6596Y-214590D01*
X6590Y-214598D01*
X6587Y-214601D01*
Y-214604D01*
X6526Y-214673D01*
X6460Y-214734D01*
X6391Y-214787D01*
X6319Y-214831D01*
X6244Y-214870D01*
X6172Y-214900D01*
X6103Y-214928D01*
X6033Y-214947D01*
X5967Y-214964D01*
X5909Y-214975D01*
X5853Y-214986D01*
X5806Y-214992D01*
X5767Y-214995D01*
X5740Y-214997D01*
X5715D01*
X5637Y-214995D01*
X5565Y-214986D01*
X5496Y-214975D01*
X5429Y-214961D01*
X5369Y-214945D01*
X5313Y-214925D01*
X5260Y-214906D01*
X5211Y-214884D01*
X5169Y-214864D01*
X5130Y-214845D01*
X5100Y-214826D01*
X5072Y-214809D01*
X5050Y-214792D01*
X5036Y-214781D01*
X5025Y-214776D01*
X5022Y-214773D01*
X4972Y-214728D01*
X4925Y-214681D01*
X4881Y-214632D01*
X4840Y-214579D01*
X4803Y-214524D01*
X4770Y-214471D01*
X4737Y-214418D01*
X4709Y-214368D01*
X4687Y-214321D01*
X4665Y-214277D01*
X4648Y-214235D01*
X4632Y-214202D01*
X4621Y-214172D01*
X4612Y-214152D01*
X4610Y-214139D01*
X4607Y-214133D01*
X4582Y-214053D01*
X4560Y-213967D01*
X4540Y-213878D01*
X4524Y-213787D01*
X4499Y-213607D01*
X4490Y-213518D01*
X4482Y-213432D01*
X4477Y-213352D01*
X4474Y-213280D01*
X4471Y-213213D01*
X4468Y-213155D01*
Y-213130D01*
X4465Y-213108D01*
Y-213089D01*
Y-213075D01*
Y-213061D01*
Y-213053D01*
Y-213047D01*
Y-213044D01*
Y-212939D01*
X4468Y-212842D01*
X4474Y-212748D01*
X4479Y-212662D01*
X4485Y-212582D01*
X4493Y-212507D01*
X4502Y-212438D01*
X4510Y-212377D01*
X4518Y-212321D01*
X4527Y-212274D01*
X4535Y-212233D01*
X4540Y-212199D01*
X4546Y-212172D01*
X4551Y-212155D01*
X4554Y-212141D01*
Y-212139D01*
X4571Y-212078D01*
X4590Y-212017D01*
X4607Y-211961D01*
X4626Y-211909D01*
X4648Y-211859D01*
X4668Y-211812D01*
X4687Y-211767D01*
X4707Y-211729D01*
X4723Y-211693D01*
X4740Y-211662D01*
X4754Y-211634D01*
X4767Y-211612D01*
X4778Y-211596D01*
X4787Y-211582D01*
X4790Y-211574D01*
X4792Y-211571D01*
X4851Y-211488D01*
X4914Y-211416D01*
X4978Y-211352D01*
X5039Y-211302D01*
X5067Y-211280D01*
X5094Y-211263D01*
X5116Y-211247D01*
X5136Y-211233D01*
X5153Y-211225D01*
X5164Y-211216D01*
X5172Y-211211D01*
X5175D01*
X5219Y-211189D01*
X5263Y-211169D01*
X5358Y-211139D01*
X5449Y-211117D01*
X5532Y-211103D01*
X5571Y-211097D01*
X5604Y-211091D01*
X5637Y-211089D01*
X5662D01*
X5684Y-211086D01*
X5715D01*
X5792Y-211089D01*
D02*
G37*
G36*
X-4628D02*
X-4556Y-211094D01*
X-4487Y-211105D01*
X-4421Y-211122D01*
X-4360Y-211139D01*
X-4301Y-211158D01*
X-4249Y-211177D01*
X-4202Y-211197D01*
X-4157Y-211219D01*
X-4121Y-211238D01*
X-4088Y-211258D01*
X-4061Y-211274D01*
X-4038Y-211288D01*
X-4025Y-211299D01*
X-4013Y-211308D01*
X-4011Y-211310D01*
X-3961Y-211355D01*
X-3914Y-211402D01*
X-3869Y-211452D01*
X-3828Y-211504D01*
X-3792Y-211557D01*
X-3759Y-211612D01*
X-3725Y-211665D01*
X-3700Y-211715D01*
X-3675Y-211762D01*
X-3653Y-211806D01*
X-3637Y-211848D01*
X-3620Y-211881D01*
X-3609Y-211912D01*
X-3601Y-211931D01*
X-3598Y-211945D01*
X-3595Y-211950D01*
X-3570Y-212031D01*
X-3551Y-212116D01*
X-3531Y-212205D01*
X-3515Y-212297D01*
X-3490Y-212479D01*
X-3482Y-212568D01*
X-3473Y-212654D01*
X-3468Y-212734D01*
X-3465Y-212809D01*
X-3462Y-212875D01*
X-3459Y-212931D01*
Y-212956D01*
X-3457Y-212978D01*
Y-212997D01*
Y-213014D01*
Y-213028D01*
Y-213036D01*
Y-213042D01*
Y-213044D01*
Y-213144D01*
X-3462Y-213241D01*
X-3465Y-213333D01*
X-3473Y-213421D01*
X-3482Y-213507D01*
X-3493Y-213590D01*
X-3504Y-213668D01*
X-3515Y-213742D01*
X-3529Y-213817D01*
X-3545Y-213884D01*
X-3559Y-213950D01*
X-3576Y-214011D01*
X-3592Y-214072D01*
X-3609Y-214127D01*
X-3628Y-214180D01*
X-3645Y-214230D01*
X-3662Y-214274D01*
X-3681Y-214319D01*
X-3698Y-214357D01*
X-3714Y-214396D01*
X-3731Y-214429D01*
X-3745Y-214460D01*
X-3761Y-214488D01*
X-3775Y-214512D01*
X-3786Y-214535D01*
X-3797Y-214551D01*
X-3808Y-214568D01*
X-3817Y-214582D01*
X-3825Y-214590D01*
X-3831Y-214598D01*
X-3833Y-214601D01*
Y-214604D01*
X-3894Y-214673D01*
X-3961Y-214734D01*
X-4030Y-214787D01*
X-4102Y-214831D01*
X-4177Y-214870D01*
X-4249Y-214900D01*
X-4318Y-214928D01*
X-4387Y-214947D01*
X-4454Y-214964D01*
X-4512Y-214975D01*
X-4567Y-214986D01*
X-4614Y-214992D01*
X-4653Y-214995D01*
X-4681Y-214997D01*
X-4706D01*
X-4783Y-214995D01*
X-4856Y-214986D01*
X-4925Y-214975D01*
X-4991Y-214961D01*
X-5052Y-214945D01*
X-5108Y-214925D01*
X-5160Y-214906D01*
X-5210Y-214884D01*
X-5252Y-214864D01*
X-5290Y-214845D01*
X-5321Y-214826D01*
X-5349Y-214809D01*
X-5371Y-214792D01*
X-5385Y-214781D01*
X-5396Y-214776D01*
X-5398Y-214773D01*
X-5448Y-214728D01*
X-5495Y-214681D01*
X-5540Y-214632D01*
X-5581Y-214579D01*
X-5617Y-214524D01*
X-5650Y-214471D01*
X-5684Y-214418D01*
X-5711Y-214368D01*
X-5734Y-214321D01*
X-5756Y-214277D01*
X-5772Y-214235D01*
X-5789Y-214202D01*
X-5800Y-214172D01*
X-5808Y-214152D01*
X-5811Y-214139D01*
X-5814Y-214133D01*
X-5839Y-214053D01*
X-5861Y-213967D01*
X-5880Y-213878D01*
X-5897Y-213787D01*
X-5922Y-213607D01*
X-5930Y-213518D01*
X-5939Y-213432D01*
X-5944Y-213352D01*
X-5947Y-213280D01*
X-5950Y-213213D01*
X-5952Y-213155D01*
Y-213130D01*
X-5955Y-213108D01*
Y-213089D01*
Y-213075D01*
Y-213061D01*
Y-213053D01*
Y-213047D01*
Y-213044D01*
Y-212939D01*
X-5952Y-212842D01*
X-5947Y-212748D01*
X-5941Y-212662D01*
X-5936Y-212582D01*
X-5928Y-212507D01*
X-5919Y-212438D01*
X-5911Y-212377D01*
X-5903Y-212321D01*
X-5894Y-212274D01*
X-5886Y-212233D01*
X-5880Y-212199D01*
X-5875Y-212172D01*
X-5869Y-212155D01*
X-5867Y-212141D01*
Y-212139D01*
X-5850Y-212078D01*
X-5831Y-212017D01*
X-5814Y-211961D01*
X-5794Y-211909D01*
X-5772Y-211859D01*
X-5753Y-211812D01*
X-5734Y-211767D01*
X-5714Y-211729D01*
X-5698Y-211693D01*
X-5681Y-211662D01*
X-5667Y-211634D01*
X-5653Y-211612D01*
X-5642Y-211596D01*
X-5634Y-211582D01*
X-5631Y-211574D01*
X-5628Y-211571D01*
X-5570Y-211488D01*
X-5506Y-211416D01*
X-5443Y-211352D01*
X-5382Y-211302D01*
X-5354Y-211280D01*
X-5326Y-211263D01*
X-5304Y-211247D01*
X-5285Y-211233D01*
X-5268Y-211225D01*
X-5257Y-211216D01*
X-5249Y-211211D01*
X-5246D01*
X-5202Y-211189D01*
X-5157Y-211169D01*
X-5063Y-211139D01*
X-4972Y-211117D01*
X-4889Y-211103D01*
X-4850Y-211097D01*
X-4817Y-211091D01*
X-4783Y-211089D01*
X-4759D01*
X-4736Y-211086D01*
X-4706D01*
X-4628Y-211089D01*
D02*
G37*
G36*
X-1748Y-215000D02*
X-2124D01*
X-3235Y-211036D01*
X-2858D01*
X-1748Y-215000D01*
D02*
G37*
%LPC*%
G36*
X-20325Y-69904D02*
X-20427D01*
X-20482Y-69913D01*
X-20547D01*
X-20630Y-69922D01*
X-20713D01*
X-20917Y-69950D01*
X-21139Y-69978D01*
X-21398Y-70024D01*
X-21675Y-70079D01*
X-21971Y-70153D01*
X-22286Y-70246D01*
X-22600Y-70357D01*
X-22924Y-70496D01*
X-23239Y-70653D01*
X-23553Y-70838D01*
X-23849Y-71051D01*
X-24136Y-71300D01*
X-24145Y-71310D01*
X-24173Y-71337D01*
X-24219Y-71384D01*
X-24275Y-71448D01*
X-24349Y-71532D01*
X-24432Y-71643D01*
X-24524Y-71763D01*
X-24626Y-71902D01*
X-24728Y-72059D01*
X-24839Y-72235D01*
X-24950Y-72429D01*
X-25061Y-72632D01*
X-25163Y-72864D01*
X-25264Y-73104D01*
X-25366Y-73372D01*
X-25449Y-73650D01*
X-22887Y-74260D01*
Y-74251D01*
X-22878Y-74214D01*
X-22859Y-74168D01*
X-22841Y-74094D01*
X-22813Y-74011D01*
X-22776Y-73918D01*
X-22730Y-73807D01*
X-22684Y-73696D01*
X-22554Y-73446D01*
X-22471Y-73317D01*
X-22388Y-73187D01*
X-22295Y-73058D01*
X-22184Y-72928D01*
X-22064Y-72808D01*
X-21934Y-72697D01*
X-21925Y-72688D01*
X-21907Y-72669D01*
X-21860Y-72642D01*
X-21805Y-72605D01*
X-21740Y-72558D01*
X-21657Y-72512D01*
X-21555Y-72457D01*
X-21453Y-72401D01*
X-21324Y-72355D01*
X-21194Y-72299D01*
X-21046Y-72253D01*
X-20898Y-72207D01*
X-20732Y-72170D01*
X-20556Y-72142D01*
X-20380Y-72124D01*
X-20186Y-72114D01*
X-20121D01*
X-20047Y-72124D01*
X-19955Y-72133D01*
X-19835Y-72142D01*
X-19696Y-72170D01*
X-19539Y-72198D01*
X-19372Y-72244D01*
X-19187Y-72299D01*
X-19002Y-72364D01*
X-18808Y-72447D01*
X-18614Y-72549D01*
X-18429Y-72669D01*
X-18234Y-72799D01*
X-18059Y-72956D01*
X-17883Y-73141D01*
X-17874Y-73150D01*
X-17846Y-73187D01*
X-17800Y-73252D01*
X-17744Y-73335D01*
X-17679Y-73446D01*
X-17605Y-73585D01*
X-17522Y-73742D01*
X-17448Y-73937D01*
X-17365Y-74149D01*
X-17282Y-74399D01*
X-17208Y-74667D01*
X-17143Y-74963D01*
X-17087Y-75296D01*
X-17041Y-75648D01*
X-17013Y-76036D01*
X-17004Y-76453D01*
Y-76462D01*
Y-76480D01*
Y-76517D01*
Y-76554D01*
Y-76619D01*
X-17013Y-76684D01*
Y-76758D01*
X-17023Y-76850D01*
X-17032Y-77045D01*
X-17050Y-77276D01*
X-17078Y-77526D01*
X-17115Y-77794D01*
X-17161Y-78071D01*
X-17217Y-78358D01*
X-17291Y-78645D01*
X-17374Y-78932D01*
X-17467Y-79200D01*
X-17587Y-79459D01*
X-17716Y-79690D01*
X-17874Y-79903D01*
X-17883Y-79912D01*
X-17911Y-79949D01*
X-17966Y-79995D01*
X-18031Y-80060D01*
X-18114Y-80143D01*
X-18225Y-80227D01*
X-18345Y-80319D01*
X-18484Y-80412D01*
X-18641Y-80513D01*
X-18808Y-80606D01*
X-18993Y-80689D01*
X-19196Y-80772D01*
X-19409Y-80837D01*
X-19640Y-80883D01*
X-19881Y-80920D01*
X-20140Y-80930D01*
X-20242D01*
X-20316Y-80920D01*
X-20399Y-80911D01*
X-20501Y-80893D01*
X-20621Y-80874D01*
X-20750Y-80846D01*
X-20880Y-80819D01*
X-21019Y-80772D01*
X-21167Y-80717D01*
X-21315Y-80652D01*
X-21472Y-80578D01*
X-21620Y-80495D01*
X-21768Y-80393D01*
X-21907Y-80282D01*
X-21916Y-80273D01*
X-21944Y-80254D01*
X-21981Y-80208D01*
X-22027Y-80153D01*
X-22092Y-80088D01*
X-22166Y-79995D01*
X-22240Y-79894D01*
X-22323Y-79773D01*
X-22406Y-79644D01*
X-22499Y-79487D01*
X-22591Y-79320D01*
X-22674Y-79135D01*
X-22758Y-78922D01*
X-22841Y-78710D01*
X-22915Y-78469D01*
X-22980Y-78210D01*
X-25486Y-79006D01*
Y-79015D01*
X-25477Y-79033D01*
X-25468Y-79061D01*
X-25459Y-79098D01*
X-25440Y-79144D01*
X-25422Y-79209D01*
X-25375Y-79348D01*
X-25311Y-79524D01*
X-25227Y-79727D01*
X-25135Y-79949D01*
X-25024Y-80180D01*
X-24904Y-80430D01*
X-24765Y-80689D01*
X-24608Y-80948D01*
X-24432Y-81207D01*
X-24238Y-81457D01*
X-24034Y-81697D01*
X-23803Y-81919D01*
X-23562Y-82123D01*
X-23544Y-82132D01*
X-23498Y-82169D01*
X-23424Y-82215D01*
X-23322Y-82280D01*
X-23192Y-82354D01*
X-23035Y-82447D01*
X-22850Y-82539D01*
X-22637Y-82632D01*
X-22406Y-82724D01*
X-22147Y-82817D01*
X-21870Y-82900D01*
X-21564Y-82983D01*
X-21250Y-83048D01*
X-20908Y-83094D01*
X-20547Y-83131D01*
X-20168Y-83140D01*
X-20057D01*
X-19992Y-83131D01*
X-19918D01*
X-19835Y-83122D01*
X-19742Y-83113D01*
X-19640Y-83103D01*
X-19529Y-83085D01*
X-19270Y-83048D01*
X-18993Y-82992D01*
X-18688Y-82918D01*
X-18364Y-82835D01*
X-18022Y-82715D01*
X-17679Y-82576D01*
X-17319Y-82410D01*
X-16976Y-82206D01*
X-16625Y-81975D01*
X-16458Y-81845D01*
X-16292Y-81707D01*
X-16135Y-81559D01*
X-15977Y-81401D01*
Y-81392D01*
X-15959Y-81383D01*
X-15940Y-81355D01*
X-15903Y-81318D01*
X-15866Y-81272D01*
X-15829Y-81216D01*
X-15774Y-81152D01*
X-15718Y-81078D01*
X-15663Y-80994D01*
X-15598Y-80902D01*
X-15533Y-80800D01*
X-15459Y-80689D01*
X-15311Y-80439D01*
X-15163Y-80153D01*
X-15006Y-79829D01*
X-14858Y-79477D01*
X-14719Y-79080D01*
X-14599Y-78654D01*
X-14488Y-78201D01*
X-14414Y-77711D01*
X-14359Y-77193D01*
X-14349Y-76915D01*
X-14340Y-76638D01*
Y-76499D01*
X-14349Y-76425D01*
Y-76332D01*
X-14359Y-76231D01*
X-14368Y-76110D01*
X-14377Y-75981D01*
X-14386Y-75842D01*
X-14405Y-75694D01*
X-14423Y-75537D01*
X-14479Y-75195D01*
X-14544Y-74825D01*
X-14636Y-74427D01*
X-14738Y-74020D01*
X-14877Y-73613D01*
X-15034Y-73197D01*
X-15228Y-72790D01*
X-15441Y-72401D01*
X-15700Y-72022D01*
X-15839Y-71846D01*
X-15987Y-71680D01*
X-15996Y-71670D01*
X-16005Y-71661D01*
X-16033Y-71633D01*
X-16061Y-71606D01*
X-16153Y-71513D01*
X-16283Y-71402D01*
X-16449Y-71263D01*
X-16653Y-71115D01*
X-16884Y-70958D01*
X-17143Y-70792D01*
X-17439Y-70625D01*
X-17772Y-70468D01*
X-18123Y-70311D01*
X-18512Y-70181D01*
X-18928Y-70070D01*
X-19363Y-69978D01*
X-19835Y-69922D01*
X-20075Y-69913D01*
X-20325Y-69904D01*
D02*
G37*
G36*
X14020Y-70116D02*
X4530D01*
Y-72281D01*
X11440D01*
Y-75121D01*
X5011D01*
Y-77285D01*
X11440D01*
Y-80754D01*
X4289D01*
Y-82918D01*
X14020D01*
Y-70116D01*
D02*
G37*
G36*
X-9743D02*
X-12324D01*
Y-82918D01*
X-9743D01*
Y-70116D01*
D02*
G37*
G36*
X21476Y-69904D02*
X21309D01*
X21245Y-69913D01*
X21171D01*
X21078Y-69922D01*
X20875Y-69931D01*
X20643Y-69959D01*
X20394Y-69996D01*
X20116Y-70033D01*
X19829Y-70089D01*
X19533Y-70163D01*
X19228Y-70246D01*
X18923Y-70348D01*
X18636Y-70477D01*
X18349Y-70616D01*
X18090Y-70782D01*
X17850Y-70967D01*
X17831Y-70977D01*
X17794Y-71014D01*
X17739Y-71078D01*
X17656Y-71162D01*
X17563Y-71263D01*
X17461Y-71393D01*
X17350Y-71541D01*
X17230Y-71717D01*
X17110Y-71902D01*
X16999Y-72114D01*
X16888Y-72346D01*
X16795Y-72595D01*
X16703Y-72864D01*
X16638Y-73150D01*
X16592Y-73456D01*
X16564Y-73779D01*
X19145Y-73890D01*
Y-73881D01*
X19154Y-73844D01*
X19163Y-73798D01*
X19182Y-73733D01*
X19200Y-73650D01*
X19228Y-73557D01*
X19256Y-73456D01*
X19293Y-73345D01*
X19395Y-73113D01*
X19515Y-72882D01*
X19672Y-72660D01*
X19755Y-72558D01*
X19857Y-72475D01*
X19866Y-72466D01*
X19885Y-72457D01*
X19913Y-72438D01*
X19959Y-72410D01*
X20014Y-72373D01*
X20088Y-72336D01*
X20172Y-72299D01*
X20264Y-72253D01*
X20375Y-72216D01*
X20495Y-72179D01*
X20634Y-72142D01*
X20782Y-72105D01*
X20939Y-72077D01*
X21106Y-72059D01*
X21300Y-72040D01*
X21605D01*
X21679Y-72050D01*
X21772Y-72059D01*
X21883Y-72068D01*
X22003Y-72077D01*
X22142Y-72096D01*
X22419Y-72151D01*
X22715Y-72235D01*
X22863Y-72290D01*
X23002Y-72355D01*
X23132Y-72429D01*
X23261Y-72512D01*
X23280Y-72521D01*
X23326Y-72568D01*
X23391Y-72632D01*
X23465Y-72725D01*
X23539Y-72836D01*
X23603Y-72965D01*
X23650Y-73123D01*
X23659Y-73206D01*
X23668Y-73298D01*
Y-73308D01*
Y-73317D01*
X23659Y-73372D01*
X23650Y-73456D01*
X23622Y-73567D01*
X23576Y-73687D01*
X23511Y-73816D01*
X23418Y-73946D01*
X23289Y-74075D01*
X23280D01*
X23261Y-74094D01*
X23233Y-74112D01*
X23178Y-74149D01*
X23113Y-74186D01*
X23030Y-74233D01*
X22928Y-74279D01*
X22808Y-74334D01*
X22660Y-74399D01*
X22493Y-74464D01*
X22299Y-74538D01*
X22077Y-74612D01*
X21827Y-74695D01*
X21559Y-74769D01*
X21245Y-74852D01*
X20912Y-74936D01*
X20902D01*
X20893Y-74945D01*
X20865D01*
X20828Y-74954D01*
X20736Y-74982D01*
X20606Y-75010D01*
X20449Y-75056D01*
X20264Y-75102D01*
X20070Y-75158D01*
X19857Y-75213D01*
X19635Y-75287D01*
X19404Y-75352D01*
X18941Y-75509D01*
X18719Y-75592D01*
X18507Y-75685D01*
X18303Y-75768D01*
X18127Y-75861D01*
X18118Y-75870D01*
X18090Y-75879D01*
X18044Y-75907D01*
X17979Y-75944D01*
X17905Y-75999D01*
X17813Y-76055D01*
X17720Y-76120D01*
X17609Y-76203D01*
X17498Y-76286D01*
X17387Y-76388D01*
X17267Y-76490D01*
X17147Y-76610D01*
X16916Y-76869D01*
X16814Y-77017D01*
X16712Y-77165D01*
X16703Y-77174D01*
X16694Y-77202D01*
X16666Y-77248D01*
X16629Y-77313D01*
X16592Y-77396D01*
X16546Y-77489D01*
X16499Y-77600D01*
X16453Y-77729D01*
X16407Y-77868D01*
X16361Y-78025D01*
X16314Y-78192D01*
X16277Y-78367D01*
X16240Y-78562D01*
X16213Y-78765D01*
X16203Y-78978D01*
X16194Y-79200D01*
Y-79311D01*
X16203Y-79385D01*
X16213Y-79487D01*
X16231Y-79598D01*
X16250Y-79727D01*
X16268Y-79866D01*
X16305Y-80023D01*
X16342Y-80190D01*
X16398Y-80356D01*
X16453Y-80532D01*
X16527Y-80717D01*
X16610Y-80902D01*
X16703Y-81078D01*
X16814Y-81263D01*
X16823Y-81272D01*
X16842Y-81300D01*
X16879Y-81355D01*
X16925Y-81420D01*
X16990Y-81494D01*
X17064Y-81586D01*
X17156Y-81688D01*
X17258Y-81799D01*
X17378Y-81910D01*
X17508Y-82030D01*
X17646Y-82151D01*
X17804Y-82262D01*
X17970Y-82382D01*
X18146Y-82493D01*
X18340Y-82595D01*
X18544Y-82687D01*
X18553Y-82696D01*
X18590Y-82706D01*
X18655Y-82733D01*
X18747Y-82761D01*
X18849Y-82798D01*
X18978Y-82835D01*
X19136Y-82872D01*
X19302Y-82918D01*
X19496Y-82965D01*
X19709Y-83002D01*
X19940Y-83039D01*
X20181Y-83076D01*
X20440Y-83103D01*
X20717Y-83131D01*
X21013Y-83140D01*
X21319Y-83150D01*
X21485D01*
X21550Y-83140D01*
X21633D01*
X21716Y-83131D01*
X21920Y-83113D01*
X22160Y-83094D01*
X22419Y-83057D01*
X22697Y-83011D01*
X22993Y-82946D01*
X23298Y-82872D01*
X23613Y-82789D01*
X23918Y-82678D01*
X24223Y-82548D01*
X24519Y-82400D01*
X24797Y-82225D01*
X25056Y-82030D01*
X25074Y-82021D01*
X25111Y-81975D01*
X25176Y-81910D01*
X25259Y-81818D01*
X25361Y-81707D01*
X25481Y-81559D01*
X25601Y-81392D01*
X25731Y-81198D01*
X25870Y-80985D01*
X25999Y-80735D01*
X26129Y-80467D01*
X26249Y-80180D01*
X26369Y-79857D01*
X26462Y-79514D01*
X26545Y-79144D01*
X26600Y-78756D01*
X24084Y-78515D01*
Y-78534D01*
X24075Y-78571D01*
X24057Y-78636D01*
X24038Y-78719D01*
X24010Y-78830D01*
X23973Y-78950D01*
X23936Y-79080D01*
X23890Y-79218D01*
X23761Y-79524D01*
X23687Y-79681D01*
X23603Y-79838D01*
X23511Y-79986D01*
X23409Y-80125D01*
X23289Y-80254D01*
X23169Y-80375D01*
X23159Y-80384D01*
X23132Y-80402D01*
X23095Y-80430D01*
X23039Y-80467D01*
X22974Y-80513D01*
X22882Y-80560D01*
X22789Y-80615D01*
X22669Y-80671D01*
X22549Y-80726D01*
X22401Y-80782D01*
X22253Y-80828D01*
X22086Y-80874D01*
X21901Y-80911D01*
X21707Y-80939D01*
X21504Y-80957D01*
X21291Y-80967D01*
X21171D01*
X21087Y-80957D01*
X20986Y-80948D01*
X20865Y-80939D01*
X20727Y-80920D01*
X20588Y-80902D01*
X20283Y-80837D01*
X20125Y-80791D01*
X19968Y-80745D01*
X19820Y-80680D01*
X19672Y-80615D01*
X19533Y-80532D01*
X19413Y-80439D01*
X19404Y-80430D01*
X19385Y-80412D01*
X19358Y-80384D01*
X19311Y-80347D01*
X19265Y-80291D01*
X19210Y-80236D01*
X19154Y-80162D01*
X19089Y-80088D01*
X18978Y-79903D01*
X18877Y-79699D01*
X18830Y-79579D01*
X18803Y-79468D01*
X18784Y-79339D01*
X18775Y-79209D01*
Y-79200D01*
Y-79191D01*
Y-79135D01*
X18784Y-79052D01*
X18812Y-78941D01*
X18840Y-78821D01*
X18886Y-78691D01*
X18951Y-78562D01*
X19043Y-78441D01*
X19052Y-78423D01*
X19099Y-78386D01*
X19163Y-78330D01*
X19256Y-78247D01*
X19385Y-78164D01*
X19552Y-78062D01*
X19746Y-77970D01*
X19857Y-77923D01*
X19977Y-77877D01*
X19987D01*
X19996Y-77868D01*
X20033Y-77859D01*
X20070Y-77849D01*
X20135Y-77831D01*
X20209Y-77803D01*
X20301Y-77775D01*
X20403Y-77748D01*
X20532Y-77711D01*
X20680Y-77674D01*
X20847Y-77627D01*
X21041Y-77572D01*
X21254Y-77516D01*
X21494Y-77461D01*
X21763Y-77396D01*
X22049Y-77322D01*
X22059D01*
X22077Y-77313D01*
X22105D01*
X22142Y-77294D01*
X22188Y-77285D01*
X22244Y-77267D01*
X22382Y-77230D01*
X22558Y-77183D01*
X22752Y-77119D01*
X22965Y-77045D01*
X23187Y-76971D01*
X23428Y-76878D01*
X23668Y-76786D01*
X23918Y-76684D01*
X24149Y-76573D01*
X24380Y-76453D01*
X24593Y-76323D01*
X24787Y-76194D01*
X24963Y-76055D01*
X24972Y-76046D01*
X25009Y-76009D01*
X25074Y-75944D01*
X25148Y-75870D01*
X25231Y-75768D01*
X25333Y-75639D01*
X25444Y-75500D01*
X25546Y-75333D01*
X25657Y-75158D01*
X25768Y-74963D01*
X25870Y-74751D01*
X25953Y-74529D01*
X26027Y-74288D01*
X26092Y-74029D01*
X26129Y-73761D01*
X26138Y-73483D01*
Y-73474D01*
Y-73437D01*
Y-73391D01*
X26129Y-73317D01*
X26119Y-73234D01*
X26110Y-73132D01*
X26092Y-73012D01*
X26073Y-72882D01*
X26036Y-72753D01*
X26008Y-72605D01*
X25962Y-72457D01*
X25907Y-72299D01*
X25842Y-72133D01*
X25768Y-71976D01*
X25685Y-71809D01*
X25592Y-71652D01*
X25583Y-71643D01*
X25564Y-71615D01*
X25537Y-71569D01*
X25490Y-71513D01*
X25435Y-71439D01*
X25361Y-71356D01*
X25278Y-71273D01*
X25185Y-71171D01*
X25074Y-71069D01*
X24954Y-70958D01*
X24824Y-70856D01*
X24686Y-70745D01*
X24528Y-70644D01*
X24362Y-70542D01*
X24186Y-70440D01*
X23992Y-70357D01*
X23983Y-70348D01*
X23946Y-70338D01*
X23881Y-70311D01*
X23807Y-70283D01*
X23705Y-70255D01*
X23585Y-70209D01*
X23446Y-70172D01*
X23289Y-70126D01*
X23113Y-70089D01*
X22919Y-70042D01*
X22715Y-70005D01*
X22493Y-69978D01*
X22253Y-69941D01*
X22003Y-69922D01*
X21744Y-69913D01*
X21476Y-69904D01*
D02*
G37*
G36*
X-2371D02*
X-2537D01*
X-2602Y-69913D01*
X-2676D01*
X-2768Y-69922D01*
X-2972Y-69931D01*
X-3203Y-69959D01*
X-3453Y-69996D01*
X-3730Y-70033D01*
X-4017Y-70089D01*
X-4313Y-70163D01*
X-4618Y-70246D01*
X-4924Y-70348D01*
X-5210Y-70477D01*
X-5497Y-70616D01*
X-5756Y-70782D01*
X-5997Y-70967D01*
X-6015Y-70977D01*
X-6052Y-71014D01*
X-6108Y-71078D01*
X-6191Y-71162D01*
X-6283Y-71263D01*
X-6385Y-71393D01*
X-6496Y-71541D01*
X-6616Y-71717D01*
X-6737Y-71902D01*
X-6848Y-72114D01*
X-6959Y-72346D01*
X-7051Y-72595D01*
X-7144Y-72864D01*
X-7208Y-73150D01*
X-7255Y-73456D01*
X-7282Y-73779D01*
X-4702Y-73890D01*
Y-73881D01*
X-4692Y-73844D01*
X-4683Y-73798D01*
X-4665Y-73733D01*
X-4646Y-73650D01*
X-4618Y-73557D01*
X-4591Y-73456D01*
X-4554Y-73345D01*
X-4452Y-73113D01*
X-4332Y-72882D01*
X-4174Y-72660D01*
X-4091Y-72558D01*
X-3989Y-72475D01*
X-3980Y-72466D01*
X-3962Y-72457D01*
X-3934Y-72438D01*
X-3888Y-72410D01*
X-3832Y-72373D01*
X-3758Y-72336D01*
X-3675Y-72299D01*
X-3582Y-72253D01*
X-3471Y-72216D01*
X-3351Y-72179D01*
X-3212Y-72142D01*
X-3064Y-72105D01*
X-2907Y-72077D01*
X-2741Y-72059D01*
X-2546Y-72040D01*
X-2241D01*
X-2167Y-72050D01*
X-2075Y-72059D01*
X-1964Y-72068D01*
X-1843Y-72077D01*
X-1705Y-72096D01*
X-1427Y-72151D01*
X-1131Y-72235D01*
X-983Y-72290D01*
X-844Y-72355D01*
X-715Y-72429D01*
X-585Y-72512D01*
X-567Y-72521D01*
X-521Y-72568D01*
X-456Y-72632D01*
X-382Y-72725D01*
X-308Y-72836D01*
X-243Y-72965D01*
X-197Y-73123D01*
X-188Y-73206D01*
X-178Y-73298D01*
Y-73308D01*
Y-73317D01*
X-188Y-73372D01*
X-197Y-73456D01*
X-225Y-73567D01*
X-271Y-73687D01*
X-336Y-73816D01*
X-428Y-73946D01*
X-558Y-74075D01*
X-567D01*
X-585Y-74094D01*
X-613Y-74112D01*
X-669Y-74149D01*
X-733Y-74186D01*
X-817Y-74233D01*
X-918Y-74279D01*
X-1039Y-74334D01*
X-1187Y-74399D01*
X-1353Y-74464D01*
X-1547Y-74538D01*
X-1769Y-74612D01*
X-2019Y-74695D01*
X-2287Y-74769D01*
X-2602Y-74852D01*
X-2935Y-74936D01*
X-2944D01*
X-2953Y-74945D01*
X-2981D01*
X-3018Y-74954D01*
X-3111Y-74982D01*
X-3240Y-75010D01*
X-3397Y-75056D01*
X-3582Y-75102D01*
X-3777Y-75158D01*
X-3989Y-75213D01*
X-4211Y-75287D01*
X-4443Y-75352D01*
X-4905Y-75509D01*
X-5127Y-75592D01*
X-5340Y-75685D01*
X-5543Y-75768D01*
X-5719Y-75861D01*
X-5728Y-75870D01*
X-5756Y-75879D01*
X-5802Y-75907D01*
X-5867Y-75944D01*
X-5941Y-75999D01*
X-6034Y-76055D01*
X-6126Y-76120D01*
X-6237Y-76203D01*
X-6348Y-76286D01*
X-6459Y-76388D01*
X-6579Y-76490D01*
X-6700Y-76610D01*
X-6931Y-76869D01*
X-7033Y-77017D01*
X-7134Y-77165D01*
X-7144Y-77174D01*
X-7153Y-77202D01*
X-7181Y-77248D01*
X-7218Y-77313D01*
X-7255Y-77396D01*
X-7301Y-77489D01*
X-7347Y-77600D01*
X-7393Y-77729D01*
X-7440Y-77868D01*
X-7486Y-78025D01*
X-7532Y-78192D01*
X-7569Y-78367D01*
X-7606Y-78562D01*
X-7634Y-78765D01*
X-7643Y-78978D01*
X-7652Y-79200D01*
Y-79311D01*
X-7643Y-79385D01*
X-7634Y-79487D01*
X-7615Y-79598D01*
X-7597Y-79727D01*
X-7578Y-79866D01*
X-7541Y-80023D01*
X-7504Y-80190D01*
X-7449Y-80356D01*
X-7393Y-80532D01*
X-7319Y-80717D01*
X-7236Y-80902D01*
X-7144Y-81078D01*
X-7033Y-81263D01*
X-7023Y-81272D01*
X-7005Y-81300D01*
X-6968Y-81355D01*
X-6922Y-81420D01*
X-6857Y-81494D01*
X-6783Y-81586D01*
X-6690Y-81688D01*
X-6589Y-81799D01*
X-6468Y-81910D01*
X-6339Y-82030D01*
X-6200Y-82151D01*
X-6043Y-82262D01*
X-5876Y-82382D01*
X-5701Y-82493D01*
X-5506Y-82595D01*
X-5303Y-82687D01*
X-5294Y-82696D01*
X-5257Y-82706D01*
X-5192Y-82733D01*
X-5099Y-82761D01*
X-4998Y-82798D01*
X-4868Y-82835D01*
X-4711Y-82872D01*
X-4544Y-82918D01*
X-4350Y-82965D01*
X-4137Y-83002D01*
X-3906Y-83039D01*
X-3666Y-83076D01*
X-3407Y-83103D01*
X-3129Y-83131D01*
X-2833Y-83140D01*
X-2528Y-83150D01*
X-2361D01*
X-2297Y-83140D01*
X-2213D01*
X-2130Y-83131D01*
X-1927Y-83113D01*
X-1686Y-83094D01*
X-1427Y-83057D01*
X-1150Y-83011D01*
X-854Y-82946D01*
X-548Y-82872D01*
X-234Y-82789D01*
X71Y-82678D01*
X377Y-82548D01*
X673Y-82400D01*
X950Y-82225D01*
X1209Y-82030D01*
X1228Y-82021D01*
X1265Y-81975D01*
X1329Y-81910D01*
X1413Y-81818D01*
X1514Y-81707D01*
X1635Y-81559D01*
X1755Y-81392D01*
X1884Y-81198D01*
X2023Y-80985D01*
X2153Y-80735D01*
X2282Y-80467D01*
X2402Y-80180D01*
X2523Y-79857D01*
X2615Y-79514D01*
X2698Y-79144D01*
X2754Y-78756D01*
X238Y-78515D01*
Y-78534D01*
X229Y-78571D01*
X210Y-78636D01*
X192Y-78719D01*
X164Y-78830D01*
X127Y-78950D01*
X90Y-79080D01*
X44Y-79218D01*
X-86Y-79524D01*
X-160Y-79681D01*
X-243Y-79838D01*
X-336Y-79986D01*
X-437Y-80125D01*
X-558Y-80254D01*
X-678Y-80375D01*
X-687Y-80384D01*
X-715Y-80402D01*
X-752Y-80430D01*
X-807Y-80467D01*
X-872Y-80513D01*
X-965Y-80560D01*
X-1057Y-80615D01*
X-1177Y-80671D01*
X-1298Y-80726D01*
X-1446Y-80782D01*
X-1594Y-80828D01*
X-1760Y-80874D01*
X-1945Y-80911D01*
X-2139Y-80939D01*
X-2343Y-80957D01*
X-2556Y-80967D01*
X-2676D01*
X-2759Y-80957D01*
X-2861Y-80948D01*
X-2981Y-80939D01*
X-3120Y-80920D01*
X-3259Y-80902D01*
X-3564Y-80837D01*
X-3721Y-80791D01*
X-3878Y-80745D01*
X-4026Y-80680D01*
X-4174Y-80615D01*
X-4313Y-80532D01*
X-4433Y-80439D01*
X-4443Y-80430D01*
X-4461Y-80412D01*
X-4489Y-80384D01*
X-4535Y-80347D01*
X-4581Y-80291D01*
X-4637Y-80236D01*
X-4692Y-80162D01*
X-4757Y-80088D01*
X-4868Y-79903D01*
X-4970Y-79699D01*
X-5016Y-79579D01*
X-5044Y-79468D01*
X-5062Y-79339D01*
X-5072Y-79209D01*
Y-79200D01*
Y-79191D01*
Y-79135D01*
X-5062Y-79052D01*
X-5035Y-78941D01*
X-5007Y-78821D01*
X-4961Y-78691D01*
X-4896Y-78562D01*
X-4803Y-78441D01*
X-4794Y-78423D01*
X-4748Y-78386D01*
X-4683Y-78330D01*
X-4591Y-78247D01*
X-4461Y-78164D01*
X-4295Y-78062D01*
X-4100Y-77970D01*
X-3989Y-77923D01*
X-3869Y-77877D01*
X-3860D01*
X-3851Y-77868D01*
X-3814Y-77859D01*
X-3777Y-77849D01*
X-3712Y-77831D01*
X-3638Y-77803D01*
X-3545Y-77775D01*
X-3444Y-77748D01*
X-3314Y-77711D01*
X-3166Y-77674D01*
X-3000Y-77627D01*
X-2805Y-77572D01*
X-2593Y-77516D01*
X-2352Y-77461D01*
X-2084Y-77396D01*
X-1797Y-77322D01*
X-1788D01*
X-1769Y-77313D01*
X-1742D01*
X-1705Y-77294D01*
X-1658Y-77285D01*
X-1603Y-77267D01*
X-1464Y-77230D01*
X-1288Y-77183D01*
X-1094Y-77119D01*
X-881Y-77045D01*
X-659Y-76971D01*
X-419Y-76878D01*
X-178Y-76786D01*
X71Y-76684D01*
X303Y-76573D01*
X534Y-76453D01*
X747Y-76323D01*
X941Y-76194D01*
X1117Y-76055D01*
X1126Y-76046D01*
X1163Y-76009D01*
X1228Y-75944D01*
X1302Y-75870D01*
X1385Y-75768D01*
X1487Y-75639D01*
X1598Y-75500D01*
X1699Y-75333D01*
X1810Y-75158D01*
X1921Y-74963D01*
X2023Y-74751D01*
X2106Y-74529D01*
X2180Y-74288D01*
X2245Y-74029D01*
X2282Y-73761D01*
X2291Y-73483D01*
Y-73474D01*
Y-73437D01*
Y-73391D01*
X2282Y-73317D01*
X2273Y-73234D01*
X2264Y-73132D01*
X2245Y-73012D01*
X2227Y-72882D01*
X2190Y-72753D01*
X2162Y-72605D01*
X2116Y-72457D01*
X2060Y-72299D01*
X1995Y-72133D01*
X1921Y-71976D01*
X1838Y-71809D01*
X1746Y-71652D01*
X1736Y-71643D01*
X1718Y-71615D01*
X1690Y-71569D01*
X1644Y-71513D01*
X1588Y-71439D01*
X1514Y-71356D01*
X1431Y-71273D01*
X1339Y-71171D01*
X1228Y-71069D01*
X1107Y-70958D01*
X978Y-70856D01*
X839Y-70745D01*
X682Y-70644D01*
X515Y-70542D01*
X340Y-70440D01*
X145Y-70357D01*
X136Y-70348D01*
X99Y-70338D01*
X34Y-70311D01*
X-40Y-70283D01*
X-141Y-70255D01*
X-262Y-70209D01*
X-400Y-70172D01*
X-558Y-70126D01*
X-733Y-70089D01*
X-928Y-70042D01*
X-1131Y-70005D01*
X-1353Y-69978D01*
X-1594Y-69941D01*
X-1843Y-69922D01*
X-2102Y-69913D01*
X-2371Y-69904D01*
D02*
G37*
G36*
X5460Y-85852D02*
X5429D01*
X5413Y-85855D01*
X5393D01*
X5368Y-85858D01*
X5343D01*
X5282Y-85866D01*
X5216Y-85874D01*
X5138Y-85888D01*
X5055Y-85905D01*
X4967Y-85927D01*
X4872Y-85955D01*
X4778Y-85988D01*
X4681Y-86029D01*
X4587Y-86077D01*
X4493Y-86132D01*
X4404Y-86196D01*
X4318Y-86270D01*
X4316Y-86273D01*
X4307Y-86282D01*
X4293Y-86295D01*
X4277Y-86315D01*
X4255Y-86340D01*
X4230Y-86373D01*
X4202Y-86409D01*
X4172Y-86451D01*
X4141Y-86498D01*
X4108Y-86550D01*
X4075Y-86608D01*
X4041Y-86669D01*
X4011Y-86739D01*
X3980Y-86811D01*
X3950Y-86891D01*
X3925Y-86974D01*
X4692Y-87157D01*
Y-87154D01*
X4695Y-87143D01*
X4701Y-87129D01*
X4706Y-87107D01*
X4715Y-87082D01*
X4726Y-87054D01*
X4739Y-87021D01*
X4753Y-86988D01*
X4792Y-86913D01*
X4817Y-86874D01*
X4842Y-86836D01*
X4870Y-86797D01*
X4903Y-86758D01*
X4939Y-86722D01*
X4978Y-86689D01*
X4981Y-86686D01*
X4986Y-86681D01*
X5000Y-86672D01*
X5017Y-86661D01*
X5036Y-86647D01*
X5061Y-86633D01*
X5091Y-86617D01*
X5122Y-86600D01*
X5161Y-86586D01*
X5199Y-86570D01*
X5244Y-86556D01*
X5288Y-86542D01*
X5338Y-86531D01*
X5390Y-86523D01*
X5443Y-86517D01*
X5501Y-86514D01*
X5521D01*
X5543Y-86517D01*
X5570Y-86520D01*
X5607Y-86523D01*
X5648Y-86531D01*
X5695Y-86539D01*
X5745Y-86553D01*
X5800Y-86570D01*
X5856Y-86589D01*
X5914Y-86614D01*
X5972Y-86645D01*
X6027Y-86681D01*
X6086Y-86719D01*
X6138Y-86766D01*
X6191Y-86822D01*
X6194Y-86825D01*
X6202Y-86836D01*
X6216Y-86855D01*
X6233Y-86880D01*
X6252Y-86913D01*
X6274Y-86955D01*
X6299Y-87002D01*
X6321Y-87060D01*
X6346Y-87124D01*
X6371Y-87199D01*
X6393Y-87279D01*
X6413Y-87367D01*
X6429Y-87467D01*
X6443Y-87572D01*
X6451Y-87689D01*
X6454Y-87813D01*
Y-87816D01*
Y-87822D01*
Y-87833D01*
Y-87844D01*
Y-87863D01*
X6451Y-87883D01*
Y-87905D01*
X6449Y-87932D01*
X6446Y-87991D01*
X6440Y-88060D01*
X6432Y-88135D01*
X6421Y-88215D01*
X6407Y-88298D01*
X6390Y-88384D01*
X6368Y-88470D01*
X6343Y-88556D01*
X6316Y-88636D01*
X6280Y-88714D01*
X6241Y-88783D01*
X6194Y-88847D01*
X6191Y-88849D01*
X6183Y-88860D01*
X6166Y-88874D01*
X6147Y-88894D01*
X6122Y-88919D01*
X6089Y-88944D01*
X6053Y-88971D01*
X6011Y-88999D01*
X5964Y-89029D01*
X5914Y-89057D01*
X5859Y-89082D01*
X5798Y-89107D01*
X5734Y-89126D01*
X5665Y-89140D01*
X5593Y-89151D01*
X5515Y-89154D01*
X5485D01*
X5462Y-89151D01*
X5438Y-89149D01*
X5407Y-89143D01*
X5371Y-89138D01*
X5332Y-89129D01*
X5294Y-89121D01*
X5252Y-89107D01*
X5208Y-89090D01*
X5163Y-89071D01*
X5116Y-89049D01*
X5072Y-89024D01*
X5028Y-88993D01*
X4986Y-88960D01*
X4983Y-88957D01*
X4975Y-88952D01*
X4964Y-88938D01*
X4950Y-88921D01*
X4931Y-88902D01*
X4908Y-88874D01*
X4886Y-88844D01*
X4861Y-88808D01*
X4836Y-88769D01*
X4809Y-88722D01*
X4781Y-88672D01*
X4756Y-88617D01*
X4731Y-88553D01*
X4706Y-88489D01*
X4684Y-88417D01*
X4665Y-88340D01*
X3914Y-88578D01*
Y-88581D01*
X3917Y-88586D01*
X3920Y-88595D01*
X3922Y-88606D01*
X3928Y-88620D01*
X3933Y-88639D01*
X3947Y-88680D01*
X3967Y-88733D01*
X3992Y-88794D01*
X4019Y-88860D01*
X4053Y-88930D01*
X4089Y-89004D01*
X4130Y-89082D01*
X4177Y-89160D01*
X4230Y-89237D01*
X4288Y-89312D01*
X4349Y-89384D01*
X4418Y-89451D01*
X4490Y-89511D01*
X4496Y-89514D01*
X4510Y-89525D01*
X4532Y-89539D01*
X4562Y-89559D01*
X4601Y-89581D01*
X4648Y-89608D01*
X4704Y-89636D01*
X4767Y-89664D01*
X4836Y-89692D01*
X4914Y-89719D01*
X4997Y-89744D01*
X5088Y-89769D01*
X5183Y-89788D01*
X5285Y-89802D01*
X5393Y-89813D01*
X5507Y-89816D01*
X5540D01*
X5559Y-89813D01*
X5582D01*
X5607Y-89811D01*
X5634Y-89808D01*
X5665Y-89805D01*
X5698Y-89799D01*
X5776Y-89788D01*
X5859Y-89772D01*
X5950Y-89750D01*
X6047Y-89725D01*
X6149Y-89689D01*
X6252Y-89647D01*
X6360Y-89597D01*
X6462Y-89536D01*
X6568Y-89467D01*
X6617Y-89428D01*
X6667Y-89387D01*
X6714Y-89342D01*
X6762Y-89295D01*
Y-89293D01*
X6767Y-89290D01*
X6773Y-89281D01*
X6784Y-89270D01*
X6795Y-89257D01*
X6806Y-89240D01*
X6822Y-89221D01*
X6839Y-89198D01*
X6856Y-89174D01*
X6875Y-89146D01*
X6894Y-89115D01*
X6917Y-89082D01*
X6961Y-89007D01*
X7005Y-88921D01*
X7052Y-88824D01*
X7097Y-88719D01*
X7138Y-88600D01*
X7174Y-88473D01*
X7208Y-88337D01*
X7230Y-88190D01*
X7246Y-88035D01*
X7249Y-87952D01*
X7252Y-87869D01*
Y-87827D01*
X7249Y-87805D01*
Y-87777D01*
X7246Y-87747D01*
X7244Y-87711D01*
X7241Y-87672D01*
X7238Y-87631D01*
X7232Y-87586D01*
X7227Y-87539D01*
X7210Y-87437D01*
X7191Y-87326D01*
X7163Y-87207D01*
X7133Y-87085D01*
X7091Y-86963D01*
X7044Y-86838D01*
X6986Y-86717D01*
X6922Y-86600D01*
X6845Y-86487D01*
X6803Y-86434D01*
X6759Y-86384D01*
X6756Y-86381D01*
X6753Y-86379D01*
X6745Y-86370D01*
X6737Y-86362D01*
X6709Y-86334D01*
X6670Y-86301D01*
X6620Y-86260D01*
X6559Y-86215D01*
X6490Y-86168D01*
X6413Y-86118D01*
X6324Y-86068D01*
X6224Y-86021D01*
X6119Y-85974D01*
X6003Y-85935D01*
X5878Y-85902D01*
X5748Y-85874D01*
X5607Y-85858D01*
X5534Y-85855D01*
X5460Y-85852D01*
D02*
G37*
G36*
X-13700Y-85916D02*
X-14473D01*
Y-87994D01*
Y-87999D01*
Y-88016D01*
Y-88041D01*
Y-88074D01*
Y-88113D01*
X-14476Y-88157D01*
Y-88207D01*
Y-88259D01*
X-14479Y-88367D01*
X-14481Y-88423D01*
X-14484Y-88473D01*
X-14487Y-88522D01*
X-14493Y-88567D01*
X-14495Y-88606D01*
X-14501Y-88636D01*
Y-88639D01*
X-14504Y-88647D01*
X-14506Y-88658D01*
X-14512Y-88675D01*
X-14518Y-88694D01*
X-14526Y-88719D01*
X-14548Y-88772D01*
X-14581Y-88833D01*
X-14620Y-88894D01*
X-14645Y-88924D01*
X-14673Y-88955D01*
X-14703Y-88985D01*
X-14736Y-89013D01*
X-14739Y-89016D01*
X-14745Y-89018D01*
X-14756Y-89027D01*
X-14770Y-89035D01*
X-14789Y-89046D01*
X-14814Y-89057D01*
X-14839Y-89071D01*
X-14872Y-89082D01*
X-14905Y-89096D01*
X-14944Y-89110D01*
X-14986Y-89121D01*
X-15033Y-89132D01*
X-15083Y-89140D01*
X-15133Y-89149D01*
X-15191Y-89151D01*
X-15249Y-89154D01*
X-15279D01*
X-15304Y-89151D01*
X-15329D01*
X-15362Y-89146D01*
X-15396Y-89143D01*
X-15434Y-89138D01*
X-15515Y-89121D01*
X-15598Y-89099D01*
X-15675Y-89065D01*
X-15711Y-89043D01*
X-15745Y-89021D01*
X-15747Y-89018D01*
X-15753Y-89016D01*
X-15761Y-89007D01*
X-15772Y-88996D01*
X-15800Y-88968D01*
X-15833Y-88930D01*
X-15869Y-88880D01*
X-15903Y-88824D01*
X-15927Y-88761D01*
X-15939Y-88727D01*
X-15947Y-88692D01*
Y-88689D01*
X-15950Y-88683D01*
Y-88669D01*
X-15952Y-88653D01*
X-15955Y-88631D01*
X-15958Y-88606D01*
X-15961Y-88572D01*
X-15966Y-88536D01*
X-15969Y-88492D01*
X-15972Y-88445D01*
X-15975Y-88392D01*
X-15977Y-88331D01*
X-15980Y-88268D01*
Y-88196D01*
X-15983Y-88121D01*
Y-88038D01*
Y-85916D01*
X-16756D01*
Y-88043D01*
X-16753Y-88102D01*
Y-88165D01*
X-16750Y-88237D01*
X-16747Y-88312D01*
X-16745Y-88392D01*
X-16739Y-88473D01*
X-16736Y-88556D01*
X-16728Y-88636D01*
X-16723Y-88711D01*
X-16714Y-88783D01*
X-16703Y-88849D01*
X-16692Y-88908D01*
Y-88910D01*
X-16689Y-88921D01*
X-16687Y-88935D01*
X-16678Y-88955D01*
X-16673Y-88980D01*
X-16664Y-89007D01*
X-16653Y-89040D01*
X-16639Y-89074D01*
X-16606Y-89151D01*
X-16567Y-89232D01*
X-16518Y-89312D01*
X-16459Y-89389D01*
X-16457Y-89392D01*
X-16451Y-89398D01*
X-16443Y-89409D01*
X-16429Y-89423D01*
X-16412Y-89437D01*
X-16393Y-89456D01*
X-16368Y-89478D01*
X-16340Y-89500D01*
X-16310Y-89525D01*
X-16276Y-89550D01*
X-16240Y-89575D01*
X-16199Y-89603D01*
X-16157Y-89628D01*
X-16110Y-89653D01*
X-16063Y-89678D01*
X-16011Y-89700D01*
X-16008D01*
X-15997Y-89705D01*
X-15983Y-89711D01*
X-15961Y-89719D01*
X-15930Y-89727D01*
X-15897Y-89736D01*
X-15858Y-89747D01*
X-15814Y-89758D01*
X-15761Y-89769D01*
X-15706Y-89780D01*
X-15645Y-89788D01*
X-15581Y-89797D01*
X-15509Y-89805D01*
X-15437Y-89811D01*
X-15357Y-89813D01*
X-15274Y-89816D01*
X-15221D01*
X-15182Y-89813D01*
X-15138D01*
X-15085Y-89811D01*
X-15027Y-89805D01*
X-14964Y-89799D01*
X-14897Y-89794D01*
X-14828Y-89786D01*
X-14689Y-89763D01*
X-14623Y-89750D01*
X-14556Y-89733D01*
X-14495Y-89714D01*
X-14440Y-89692D01*
X-14437Y-89689D01*
X-14429Y-89686D01*
X-14412Y-89678D01*
X-14393Y-89669D01*
X-14371Y-89656D01*
X-14343Y-89642D01*
X-14313Y-89622D01*
X-14279Y-89603D01*
X-14207Y-89556D01*
X-14132Y-89498D01*
X-14058Y-89434D01*
X-13991Y-89362D01*
X-13988Y-89359D01*
X-13983Y-89354D01*
X-13975Y-89342D01*
X-13966Y-89326D01*
X-13952Y-89309D01*
X-13936Y-89287D01*
X-13919Y-89259D01*
X-13903Y-89232D01*
X-13867Y-89168D01*
X-13831Y-89096D01*
X-13800Y-89018D01*
X-13775Y-88935D01*
Y-88933D01*
X-13772Y-88919D01*
X-13770Y-88899D01*
X-13764Y-88874D01*
X-13759Y-88838D01*
X-13750Y-88797D01*
X-13745Y-88747D01*
X-13739Y-88689D01*
X-13731Y-88625D01*
X-13725Y-88553D01*
X-13717Y-88473D01*
X-13712Y-88387D01*
X-13709Y-88293D01*
X-13703Y-88190D01*
X-13700Y-88079D01*
Y-85916D01*
D02*
G37*
G36*
X23479D02*
X22127D01*
X22069Y-85919D01*
X22005D01*
X21936Y-85922D01*
X21861Y-85924D01*
X21706Y-85930D01*
X21628Y-85935D01*
X21553Y-85941D01*
X21484Y-85946D01*
X21420Y-85955D01*
X21365Y-85963D01*
X21343Y-85969D01*
X21321Y-85974D01*
X21318D01*
X21307Y-85980D01*
X21287Y-85985D01*
X21265Y-85991D01*
X21238Y-86002D01*
X21204Y-86016D01*
X21168Y-86032D01*
X21127Y-86054D01*
X21085Y-86077D01*
X21041Y-86104D01*
X20997Y-86135D01*
X20949Y-86168D01*
X20902Y-86207D01*
X20855Y-86251D01*
X20811Y-86298D01*
X20770Y-86351D01*
X20767Y-86354D01*
X20758Y-86365D01*
X20747Y-86381D01*
X20733Y-86404D01*
X20717Y-86431D01*
X20697Y-86467D01*
X20678Y-86506D01*
X20656Y-86553D01*
X20637Y-86603D01*
X20617Y-86658D01*
X20598Y-86719D01*
X20581Y-86786D01*
X20564Y-86858D01*
X20553Y-86933D01*
X20548Y-87013D01*
X20545Y-87096D01*
Y-87129D01*
X20548Y-87154D01*
Y-87185D01*
X20551Y-87221D01*
X20556Y-87259D01*
X20562Y-87304D01*
X20567Y-87348D01*
X20576Y-87398D01*
X20601Y-87498D01*
X20631Y-87597D01*
X20653Y-87644D01*
X20675Y-87691D01*
X20678Y-87694D01*
X20681Y-87703D01*
X20689Y-87714D01*
X20697Y-87730D01*
X20711Y-87750D01*
X20725Y-87775D01*
X20764Y-87827D01*
X20811Y-87888D01*
X20866Y-87952D01*
X20930Y-88013D01*
X20999Y-88068D01*
X21002Y-88071D01*
X21008Y-88074D01*
X21019Y-88082D01*
X21033Y-88090D01*
X21052Y-88102D01*
X21071Y-88115D01*
X21096Y-88129D01*
X21124Y-88143D01*
X21185Y-88174D01*
X21251Y-88204D01*
X21324Y-88232D01*
X21401Y-88251D01*
X21404D01*
X21415Y-88254D01*
X21429Y-88257D01*
X21454Y-88259D01*
X21481Y-88262D01*
X21517Y-88268D01*
X21556Y-88273D01*
X21606Y-88276D01*
X21659Y-88282D01*
X21717Y-88287D01*
X21783Y-88293D01*
X21855Y-88295D01*
X21933Y-88298D01*
X22016Y-88301D01*
X22107Y-88304D01*
X22706D01*
Y-89750D01*
X23479D01*
Y-85916D01*
D02*
G37*
G36*
X19908D02*
X17066D01*
Y-86564D01*
X19135D01*
Y-87414D01*
X17210D01*
Y-88063D01*
X19135D01*
Y-89101D01*
X16994D01*
Y-89750D01*
X19908D01*
Y-85916D01*
D02*
G37*
G36*
X16335D02*
X14650D01*
X14609Y-85919D01*
X14556D01*
X14498Y-85922D01*
X14435Y-85924D01*
X14365Y-85930D01*
X14293Y-85935D01*
X14221Y-85941D01*
X14072Y-85960D01*
X14002Y-85971D01*
X13936Y-85985D01*
X13872Y-86002D01*
X13817Y-86021D01*
X13814D01*
X13806Y-86027D01*
X13789Y-86032D01*
X13770Y-86041D01*
X13747Y-86052D01*
X13720Y-86068D01*
X13689Y-86085D01*
X13656Y-86104D01*
X13620Y-86129D01*
X13584Y-86157D01*
X13548Y-86187D01*
X13509Y-86221D01*
X13473Y-86257D01*
X13437Y-86298D01*
X13404Y-86343D01*
X13371Y-86390D01*
X13368Y-86392D01*
X13363Y-86401D01*
X13354Y-86417D01*
X13343Y-86437D01*
X13332Y-86462D01*
X13318Y-86489D01*
X13302Y-86525D01*
X13285Y-86564D01*
X13271Y-86606D01*
X13254Y-86653D01*
X13241Y-86703D01*
X13227Y-86755D01*
X13218Y-86811D01*
X13210Y-86869D01*
X13205Y-86927D01*
X13202Y-86991D01*
Y-86996D01*
Y-87010D01*
X13205Y-87032D01*
Y-87063D01*
X13210Y-87099D01*
X13216Y-87143D01*
X13224Y-87190D01*
X13232Y-87243D01*
X13246Y-87298D01*
X13263Y-87356D01*
X13285Y-87414D01*
X13310Y-87476D01*
X13338Y-87534D01*
X13374Y-87595D01*
X13412Y-87650D01*
X13457Y-87705D01*
X13459Y-87708D01*
X13468Y-87717D01*
X13484Y-87730D01*
X13504Y-87750D01*
X13532Y-87772D01*
X13562Y-87797D01*
X13601Y-87824D01*
X13645Y-87855D01*
X13698Y-87885D01*
X13753Y-87913D01*
X13814Y-87944D01*
X13883Y-87971D01*
X13958Y-87999D01*
X14038Y-88021D01*
X14124Y-88041D01*
X14216Y-88057D01*
X14213Y-88060D01*
X14205Y-88063D01*
X14191Y-88071D01*
X14174Y-88082D01*
X14152Y-88096D01*
X14127Y-88113D01*
X14099Y-88132D01*
X14069Y-88151D01*
X14002Y-88201D01*
X13933Y-88257D01*
X13864Y-88318D01*
X13800Y-88381D01*
X13797Y-88384D01*
X13792Y-88390D01*
X13783Y-88401D01*
X13770Y-88415D01*
X13753Y-88434D01*
X13734Y-88459D01*
X13712Y-88489D01*
X13684Y-88525D01*
X13653Y-88564D01*
X13620Y-88608D01*
X13584Y-88661D01*
X13545Y-88716D01*
X13504Y-88780D01*
X13459Y-88847D01*
X13410Y-88921D01*
X13360Y-89002D01*
X12892Y-89750D01*
X13819D01*
X14376Y-88916D01*
X14379Y-88910D01*
X14390Y-88897D01*
X14404Y-88874D01*
X14423Y-88844D01*
X14448Y-88808D01*
X14476Y-88769D01*
X14506Y-88725D01*
X14540Y-88678D01*
X14609Y-88583D01*
X14642Y-88536D01*
X14675Y-88489D01*
X14706Y-88448D01*
X14736Y-88412D01*
X14764Y-88379D01*
X14786Y-88354D01*
X14792Y-88348D01*
X14806Y-88334D01*
X14828Y-88315D01*
X14855Y-88290D01*
X14891Y-88262D01*
X14930Y-88237D01*
X14972Y-88212D01*
X15019Y-88193D01*
X15024Y-88190D01*
X15033Y-88187D01*
X15041Y-88185D01*
X15055Y-88182D01*
X15072Y-88179D01*
X15091Y-88174D01*
X15113Y-88171D01*
X15138Y-88165D01*
X15166Y-88162D01*
X15199Y-88160D01*
X15235Y-88154D01*
X15271Y-88151D01*
X15313D01*
X15360Y-88149D01*
X15562D01*
Y-89750D01*
X16335D01*
Y-85916D01*
D02*
G37*
G36*
X11537Y-85852D02*
X11484D01*
X11454Y-85855D01*
X11421Y-85858D01*
X11385Y-85861D01*
X11343Y-85863D01*
X11299Y-85869D01*
X11249Y-85874D01*
X11146Y-85891D01*
X11036Y-85916D01*
X10922Y-85946D01*
X11022Y-86459D01*
X11025D01*
X11030Y-86456D01*
X11039Y-86453D01*
X11052Y-86451D01*
X11066Y-86448D01*
X11086Y-86445D01*
X11130Y-86437D01*
X11180Y-86428D01*
X11238Y-86420D01*
X11299Y-86417D01*
X11360Y-86415D01*
X11385D01*
X11412Y-86417D01*
X11448Y-86423D01*
X11484Y-86434D01*
X11523Y-86445D01*
X11556Y-86464D01*
X11587Y-86489D01*
X11590Y-86492D01*
X11598Y-86503D01*
X11609Y-86525D01*
X11620Y-86553D01*
X11634Y-86592D01*
X11639Y-86617D01*
X11645Y-86642D01*
X11651Y-86672D01*
X11653Y-86703D01*
X11656Y-86739D01*
Y-86777D01*
Y-86971D01*
X11108D01*
Y-87550D01*
X11656D01*
Y-89750D01*
X12390D01*
Y-87550D01*
X12797D01*
Y-86971D01*
X12390D01*
Y-86764D01*
Y-86761D01*
Y-86747D01*
Y-86730D01*
Y-86705D01*
X12387Y-86678D01*
Y-86645D01*
X12385Y-86608D01*
X12382Y-86567D01*
X12374Y-86484D01*
X12360Y-86395D01*
X12343Y-86315D01*
X12332Y-86276D01*
X12318Y-86243D01*
Y-86240D01*
X12315Y-86234D01*
X12310Y-86226D01*
X12304Y-86215D01*
X12285Y-86182D01*
X12254Y-86143D01*
X12218Y-86099D01*
X12171Y-86052D01*
X12144Y-86029D01*
X12113Y-86007D01*
X12080Y-85985D01*
X12044Y-85963D01*
X12041D01*
X12036Y-85957D01*
X12025Y-85952D01*
X12008Y-85946D01*
X11989Y-85938D01*
X11964Y-85927D01*
X11936Y-85919D01*
X11906Y-85908D01*
X11869Y-85897D01*
X11831Y-85888D01*
X11789Y-85877D01*
X11745Y-85869D01*
X11698Y-85863D01*
X11645Y-85858D01*
X11537Y-85852D01*
D02*
G37*
G36*
X10687Y-85916D02*
X7845D01*
Y-86564D01*
X9914D01*
Y-87414D01*
X7989D01*
Y-88063D01*
X9914D01*
Y-89101D01*
X7773D01*
Y-89750D01*
X10687D01*
Y-85916D01*
D02*
G37*
G36*
X3521D02*
X474D01*
Y-86564D01*
X1609D01*
Y-89750D01*
X2382D01*
Y-86564D01*
X3521D01*
Y-85916D01*
D02*
G37*
G36*
X-1512D02*
X-3158D01*
X-3199Y-85919D01*
X-3246D01*
X-3299Y-85922D01*
X-3410Y-85924D01*
X-3521Y-85933D01*
X-3576Y-85935D01*
X-3629Y-85941D01*
X-3676Y-85949D01*
X-3720Y-85955D01*
X-3723D01*
X-3731Y-85957D01*
X-3742Y-85960D01*
X-3759Y-85963D01*
X-3778Y-85969D01*
X-3800Y-85974D01*
X-3825Y-85980D01*
X-3856Y-85988D01*
X-3917Y-86010D01*
X-3983Y-86038D01*
X-4053Y-86074D01*
X-4122Y-86115D01*
X-4124D01*
X-4130Y-86121D01*
X-4138Y-86127D01*
X-4152Y-86138D01*
X-4183Y-86163D01*
X-4224Y-86199D01*
X-4271Y-86246D01*
X-4321Y-86301D01*
X-4368Y-86362D01*
X-4415Y-86434D01*
X-4418Y-86437D01*
X-4421Y-86442D01*
X-4426Y-86453D01*
X-4435Y-86470D01*
X-4443Y-86487D01*
X-4454Y-86509D01*
X-4465Y-86537D01*
X-4476Y-86564D01*
X-4487Y-86597D01*
X-4496Y-86631D01*
X-4515Y-86708D01*
X-4529Y-86791D01*
X-4535Y-86836D01*
Y-86883D01*
Y-86885D01*
Y-86894D01*
Y-86908D01*
X-4532Y-86927D01*
X-4529Y-86952D01*
X-4526Y-86980D01*
X-4523Y-87010D01*
X-4515Y-87046D01*
X-4499Y-87121D01*
X-4473Y-87204D01*
X-4457Y-87246D01*
X-4437Y-87290D01*
X-4413Y-87334D01*
X-4388Y-87376D01*
X-4385Y-87379D01*
X-4382Y-87387D01*
X-4374Y-87398D01*
X-4363Y-87412D01*
X-4346Y-87431D01*
X-4329Y-87453D01*
X-4307Y-87476D01*
X-4285Y-87503D01*
X-4258Y-87528D01*
X-4230Y-87556D01*
X-4163Y-87614D01*
X-4086Y-87667D01*
X-3997Y-87714D01*
X-4000D01*
X-4014Y-87719D01*
X-4030Y-87725D01*
X-4055Y-87733D01*
X-4083Y-87744D01*
X-4116Y-87758D01*
X-4155Y-87775D01*
X-4197Y-87794D01*
X-4238Y-87816D01*
X-4282Y-87841D01*
X-4327Y-87872D01*
X-4371Y-87902D01*
X-4415Y-87935D01*
X-4457Y-87974D01*
X-4499Y-88016D01*
X-4535Y-88060D01*
X-4537Y-88063D01*
X-4543Y-88071D01*
X-4551Y-88085D01*
X-4565Y-88104D01*
X-4579Y-88126D01*
X-4595Y-88154D01*
X-4612Y-88187D01*
X-4629Y-88223D01*
X-4645Y-88265D01*
X-4665Y-88309D01*
X-4679Y-88356D01*
X-4692Y-88409D01*
X-4706Y-88462D01*
X-4715Y-88520D01*
X-4720Y-88578D01*
X-4723Y-88639D01*
Y-88664D01*
X-4720Y-88683D01*
Y-88708D01*
X-4717Y-88733D01*
X-4712Y-88766D01*
X-4709Y-88800D01*
X-4701Y-88838D01*
X-4692Y-88877D01*
X-4670Y-88963D01*
X-4642Y-89054D01*
X-4623Y-89101D01*
X-4601Y-89149D01*
Y-89151D01*
X-4595Y-89160D01*
X-4587Y-89174D01*
X-4579Y-89190D01*
X-4568Y-89210D01*
X-4551Y-89234D01*
X-4515Y-89290D01*
X-4465Y-89354D01*
X-4410Y-89420D01*
X-4343Y-89484D01*
X-4269Y-89545D01*
X-4266Y-89547D01*
X-4260Y-89550D01*
X-4246Y-89559D01*
X-4230Y-89567D01*
X-4210Y-89581D01*
X-4185Y-89592D01*
X-4158Y-89608D01*
X-4124Y-89622D01*
X-4089Y-89639D01*
X-4050Y-89653D01*
X-4005Y-89669D01*
X-3961Y-89683D01*
X-3911Y-89697D01*
X-3859Y-89708D01*
X-3748Y-89725D01*
X-3740D01*
X-3726Y-89727D01*
X-3706D01*
X-3681Y-89730D01*
X-3648Y-89733D01*
X-3609D01*
X-3559Y-89736D01*
X-3501Y-89739D01*
X-3435Y-89741D01*
X-3360D01*
X-3274Y-89744D01*
X-3227D01*
X-3177Y-89747D01*
X-3066D01*
X-3008Y-89750D01*
X-1512D01*
Y-85916D01*
D02*
G37*
G36*
X-5396Y-85949D02*
X-6169D01*
Y-89101D01*
X-8094D01*
Y-89750D01*
X-5396D01*
Y-85949D01*
D02*
G37*
G36*
X-8648Y-85916D02*
X-11490D01*
Y-86564D01*
X-9421D01*
Y-87414D01*
X-11346D01*
Y-88063D01*
X-9421D01*
Y-89101D01*
X-11562D01*
Y-89750D01*
X-8648D01*
Y-85916D01*
D02*
G37*
G36*
X-21146D02*
X-22792D01*
X-22833Y-85919D01*
X-22880D01*
X-22933Y-85922D01*
X-23044Y-85924D01*
X-23154Y-85933D01*
X-23210Y-85935D01*
X-23262Y-85941D01*
X-23310Y-85949D01*
X-23354Y-85955D01*
X-23357D01*
X-23365Y-85957D01*
X-23376Y-85960D01*
X-23393Y-85963D01*
X-23412Y-85969D01*
X-23434Y-85974D01*
X-23459Y-85980D01*
X-23490Y-85988D01*
X-23550Y-86010D01*
X-23617Y-86038D01*
X-23686Y-86074D01*
X-23755Y-86115D01*
X-23758D01*
X-23764Y-86121D01*
X-23772Y-86127D01*
X-23786Y-86138D01*
X-23817Y-86163D01*
X-23858Y-86199D01*
X-23905Y-86246D01*
X-23955Y-86301D01*
X-24002Y-86362D01*
X-24049Y-86434D01*
X-24052Y-86437D01*
X-24055Y-86442D01*
X-24060Y-86453D01*
X-24069Y-86470D01*
X-24077Y-86487D01*
X-24088Y-86509D01*
X-24099Y-86537D01*
X-24110Y-86564D01*
X-24121Y-86597D01*
X-24129Y-86631D01*
X-24149Y-86708D01*
X-24163Y-86791D01*
X-24168Y-86836D01*
Y-86883D01*
Y-86885D01*
Y-86894D01*
Y-86908D01*
X-24166Y-86927D01*
X-24163Y-86952D01*
X-24160Y-86980D01*
X-24157Y-87010D01*
X-24149Y-87046D01*
X-24132Y-87121D01*
X-24107Y-87204D01*
X-24091Y-87246D01*
X-24071Y-87290D01*
X-24046Y-87334D01*
X-24021Y-87376D01*
X-24019Y-87379D01*
X-24016Y-87387D01*
X-24008Y-87398D01*
X-23997Y-87412D01*
X-23980Y-87431D01*
X-23963Y-87453D01*
X-23941Y-87476D01*
X-23919Y-87503D01*
X-23891Y-87528D01*
X-23864Y-87556D01*
X-23797Y-87614D01*
X-23720Y-87667D01*
X-23631Y-87714D01*
X-23634D01*
X-23648Y-87719D01*
X-23664Y-87725D01*
X-23689Y-87733D01*
X-23717Y-87744D01*
X-23750Y-87758D01*
X-23789Y-87775D01*
X-23830Y-87794D01*
X-23872Y-87816D01*
X-23916Y-87841D01*
X-23960Y-87872D01*
X-24005Y-87902D01*
X-24049Y-87935D01*
X-24091Y-87974D01*
X-24132Y-88016D01*
X-24168Y-88060D01*
X-24171Y-88063D01*
X-24177Y-88071D01*
X-24185Y-88085D01*
X-24199Y-88104D01*
X-24213Y-88126D01*
X-24229Y-88154D01*
X-24246Y-88187D01*
X-24262Y-88223D01*
X-24279Y-88265D01*
X-24298Y-88309D01*
X-24312Y-88356D01*
X-24326Y-88409D01*
X-24340Y-88462D01*
X-24348Y-88520D01*
X-24354Y-88578D01*
X-24357Y-88639D01*
Y-88664D01*
X-24354Y-88683D01*
Y-88708D01*
X-24351Y-88733D01*
X-24345Y-88766D01*
X-24343Y-88800D01*
X-24334Y-88838D01*
X-24326Y-88877D01*
X-24304Y-88963D01*
X-24276Y-89054D01*
X-24257Y-89101D01*
X-24235Y-89149D01*
Y-89151D01*
X-24229Y-89160D01*
X-24221Y-89174D01*
X-24213Y-89190D01*
X-24202Y-89210D01*
X-24185Y-89234D01*
X-24149Y-89290D01*
X-24099Y-89354D01*
X-24044Y-89420D01*
X-23977Y-89484D01*
X-23902Y-89545D01*
X-23900Y-89547D01*
X-23894Y-89550D01*
X-23880Y-89559D01*
X-23864Y-89567D01*
X-23844Y-89581D01*
X-23819Y-89592D01*
X-23791Y-89608D01*
X-23758Y-89622D01*
X-23722Y-89639D01*
X-23684Y-89653D01*
X-23639Y-89669D01*
X-23595Y-89683D01*
X-23545Y-89697D01*
X-23492Y-89708D01*
X-23382Y-89725D01*
X-23373D01*
X-23359Y-89727D01*
X-23340D01*
X-23315Y-89730D01*
X-23282Y-89733D01*
X-23243D01*
X-23193Y-89736D01*
X-23135Y-89739D01*
X-23068Y-89741D01*
X-22994D01*
X-22908Y-89744D01*
X-22861D01*
X-22811Y-89747D01*
X-22700D01*
X-22642Y-89750D01*
X-21146D01*
Y-85916D01*
D02*
G37*
G36*
X-12767Y-85852D02*
X-13321D01*
X-12360Y-89816D01*
X-11817D01*
X-12767Y-85852D01*
D02*
G37*
G36*
X-18911D02*
X-18961D01*
X-18980Y-85855D01*
X-19002D01*
X-19030Y-85858D01*
X-19091Y-85861D01*
X-19160Y-85869D01*
X-19235Y-85880D01*
X-19318Y-85891D01*
X-19404Y-85908D01*
X-19492Y-85930D01*
X-19584Y-85955D01*
X-19675Y-85985D01*
X-19761Y-86024D01*
X-19847Y-86066D01*
X-19925Y-86115D01*
X-19997Y-86171D01*
X-20002Y-86174D01*
X-20013Y-86185D01*
X-20030Y-86204D01*
X-20055Y-86229D01*
X-20083Y-86260D01*
X-20113Y-86298D01*
X-20146Y-86343D01*
X-20182Y-86395D01*
X-20218Y-86451D01*
X-20252Y-86514D01*
X-20285Y-86584D01*
X-20312Y-86658D01*
X-20340Y-86739D01*
X-20359Y-86825D01*
X-20373Y-86916D01*
X-20382Y-87013D01*
X-19609Y-87046D01*
Y-87043D01*
X-19606Y-87032D01*
X-19603Y-87018D01*
X-19598Y-86999D01*
X-19592Y-86974D01*
X-19584Y-86946D01*
X-19576Y-86916D01*
X-19565Y-86883D01*
X-19534Y-86813D01*
X-19498Y-86744D01*
X-19451Y-86678D01*
X-19426Y-86647D01*
X-19396Y-86622D01*
X-19393Y-86620D01*
X-19387Y-86617D01*
X-19379Y-86611D01*
X-19365Y-86603D01*
X-19348Y-86592D01*
X-19326Y-86581D01*
X-19301Y-86570D01*
X-19274Y-86556D01*
X-19240Y-86545D01*
X-19204Y-86534D01*
X-19163Y-86523D01*
X-19118Y-86511D01*
X-19071Y-86503D01*
X-19022Y-86498D01*
X-18963Y-86492D01*
X-18872D01*
X-18850Y-86495D01*
X-18822Y-86498D01*
X-18789Y-86500D01*
X-18753Y-86503D01*
X-18711Y-86509D01*
X-18628Y-86525D01*
X-18540Y-86550D01*
X-18495Y-86567D01*
X-18454Y-86586D01*
X-18415Y-86608D01*
X-18376Y-86633D01*
X-18371Y-86636D01*
X-18357Y-86650D01*
X-18337Y-86669D01*
X-18315Y-86697D01*
X-18293Y-86730D01*
X-18274Y-86769D01*
X-18260Y-86816D01*
X-18257Y-86841D01*
X-18254Y-86869D01*
Y-86872D01*
Y-86874D01*
X-18257Y-86891D01*
X-18260Y-86916D01*
X-18268Y-86949D01*
X-18282Y-86985D01*
X-18301Y-87024D01*
X-18329Y-87063D01*
X-18368Y-87102D01*
X-18371D01*
X-18376Y-87107D01*
X-18384Y-87113D01*
X-18401Y-87124D01*
X-18420Y-87135D01*
X-18445Y-87149D01*
X-18476Y-87163D01*
X-18512Y-87179D01*
X-18556Y-87199D01*
X-18606Y-87218D01*
X-18664Y-87240D01*
X-18731Y-87262D01*
X-18805Y-87287D01*
X-18886Y-87309D01*
X-18980Y-87334D01*
X-19080Y-87359D01*
X-19083D01*
X-19085Y-87362D01*
X-19094D01*
X-19105Y-87365D01*
X-19132Y-87373D01*
X-19171Y-87381D01*
X-19218Y-87395D01*
X-19274Y-87409D01*
X-19332Y-87426D01*
X-19396Y-87442D01*
X-19462Y-87464D01*
X-19531Y-87484D01*
X-19670Y-87531D01*
X-19736Y-87556D01*
X-19800Y-87584D01*
X-19861Y-87608D01*
X-19914Y-87636D01*
X-19916Y-87639D01*
X-19925Y-87642D01*
X-19939Y-87650D01*
X-19958Y-87661D01*
X-19980Y-87678D01*
X-20008Y-87694D01*
X-20035Y-87714D01*
X-20069Y-87739D01*
X-20102Y-87764D01*
X-20135Y-87794D01*
X-20171Y-87824D01*
X-20207Y-87861D01*
X-20276Y-87938D01*
X-20307Y-87982D01*
X-20337Y-88027D01*
X-20340Y-88029D01*
X-20343Y-88038D01*
X-20351Y-88052D01*
X-20362Y-88071D01*
X-20373Y-88096D01*
X-20387Y-88124D01*
X-20401Y-88157D01*
X-20415Y-88196D01*
X-20429Y-88237D01*
X-20443Y-88284D01*
X-20456Y-88334D01*
X-20468Y-88387D01*
X-20479Y-88445D01*
X-20487Y-88506D01*
X-20490Y-88570D01*
X-20492Y-88636D01*
Y-88669D01*
X-20490Y-88692D01*
X-20487Y-88722D01*
X-20481Y-88755D01*
X-20476Y-88794D01*
X-20470Y-88836D01*
X-20459Y-88883D01*
X-20448Y-88933D01*
X-20432Y-88982D01*
X-20415Y-89035D01*
X-20393Y-89090D01*
X-20368Y-89146D01*
X-20340Y-89198D01*
X-20307Y-89254D01*
X-20304Y-89257D01*
X-20299Y-89265D01*
X-20288Y-89281D01*
X-20274Y-89301D01*
X-20254Y-89323D01*
X-20232Y-89351D01*
X-20204Y-89381D01*
X-20174Y-89415D01*
X-20138Y-89448D01*
X-20099Y-89484D01*
X-20058Y-89520D01*
X-20010Y-89553D01*
X-19961Y-89589D01*
X-19908Y-89622D01*
X-19850Y-89653D01*
X-19789Y-89680D01*
X-19786Y-89683D01*
X-19775Y-89686D01*
X-19756Y-89694D01*
X-19728Y-89703D01*
X-19697Y-89714D01*
X-19659Y-89725D01*
X-19612Y-89736D01*
X-19562Y-89750D01*
X-19504Y-89763D01*
X-19440Y-89775D01*
X-19371Y-89786D01*
X-19299Y-89797D01*
X-19221Y-89805D01*
X-19138Y-89813D01*
X-19049Y-89816D01*
X-18958Y-89819D01*
X-18908D01*
X-18889Y-89816D01*
X-18864D01*
X-18839Y-89813D01*
X-18778Y-89808D01*
X-18706Y-89802D01*
X-18628Y-89791D01*
X-18545Y-89777D01*
X-18456Y-89758D01*
X-18365Y-89736D01*
X-18271Y-89711D01*
X-18180Y-89678D01*
X-18088Y-89639D01*
X-17999Y-89595D01*
X-17916Y-89542D01*
X-17839Y-89484D01*
X-17833Y-89481D01*
X-17822Y-89467D01*
X-17803Y-89448D01*
X-17778Y-89420D01*
X-17747Y-89387D01*
X-17711Y-89342D01*
X-17675Y-89293D01*
X-17637Y-89234D01*
X-17595Y-89171D01*
X-17556Y-89096D01*
X-17517Y-89016D01*
X-17481Y-88930D01*
X-17445Y-88833D01*
X-17418Y-88730D01*
X-17393Y-88620D01*
X-17376Y-88503D01*
X-18130Y-88431D01*
Y-88437D01*
X-18132Y-88448D01*
X-18138Y-88467D01*
X-18144Y-88492D01*
X-18152Y-88525D01*
X-18163Y-88561D01*
X-18174Y-88600D01*
X-18188Y-88642D01*
X-18227Y-88733D01*
X-18249Y-88780D01*
X-18274Y-88827D01*
X-18301Y-88872D01*
X-18332Y-88913D01*
X-18368Y-88952D01*
X-18404Y-88988D01*
X-18407Y-88991D01*
X-18415Y-88996D01*
X-18426Y-89004D01*
X-18443Y-89016D01*
X-18462Y-89029D01*
X-18490Y-89043D01*
X-18517Y-89060D01*
X-18553Y-89077D01*
X-18589Y-89093D01*
X-18634Y-89110D01*
X-18678Y-89124D01*
X-18728Y-89138D01*
X-18783Y-89149D01*
X-18842Y-89157D01*
X-18902Y-89162D01*
X-18966Y-89165D01*
X-19002D01*
X-19027Y-89162D01*
X-19058Y-89160D01*
X-19094Y-89157D01*
X-19135Y-89151D01*
X-19177Y-89146D01*
X-19268Y-89126D01*
X-19315Y-89113D01*
X-19362Y-89099D01*
X-19407Y-89079D01*
X-19451Y-89060D01*
X-19492Y-89035D01*
X-19529Y-89007D01*
X-19531Y-89004D01*
X-19537Y-88999D01*
X-19545Y-88991D01*
X-19559Y-88980D01*
X-19573Y-88963D01*
X-19589Y-88946D01*
X-19606Y-88924D01*
X-19625Y-88902D01*
X-19659Y-88847D01*
X-19689Y-88786D01*
X-19703Y-88750D01*
X-19711Y-88716D01*
X-19717Y-88678D01*
X-19720Y-88639D01*
Y-88636D01*
Y-88633D01*
Y-88617D01*
X-19717Y-88592D01*
X-19708Y-88559D01*
X-19700Y-88522D01*
X-19686Y-88484D01*
X-19667Y-88445D01*
X-19639Y-88409D01*
X-19636Y-88403D01*
X-19623Y-88392D01*
X-19603Y-88376D01*
X-19576Y-88351D01*
X-19537Y-88326D01*
X-19487Y-88295D01*
X-19429Y-88268D01*
X-19396Y-88254D01*
X-19360Y-88240D01*
X-19357D01*
X-19354Y-88237D01*
X-19343Y-88235D01*
X-19332Y-88232D01*
X-19312Y-88226D01*
X-19290Y-88218D01*
X-19263Y-88209D01*
X-19232Y-88201D01*
X-19193Y-88190D01*
X-19149Y-88179D01*
X-19099Y-88165D01*
X-19041Y-88149D01*
X-18977Y-88132D01*
X-18905Y-88115D01*
X-18825Y-88096D01*
X-18739Y-88074D01*
X-18736D01*
X-18731Y-88071D01*
X-18722D01*
X-18711Y-88065D01*
X-18698Y-88063D01*
X-18681Y-88057D01*
X-18639Y-88046D01*
X-18587Y-88032D01*
X-18529Y-88013D01*
X-18465Y-87991D01*
X-18398Y-87968D01*
X-18326Y-87941D01*
X-18254Y-87913D01*
X-18180Y-87883D01*
X-18110Y-87849D01*
X-18041Y-87813D01*
X-17977Y-87775D01*
X-17919Y-87736D01*
X-17866Y-87694D01*
X-17864Y-87691D01*
X-17853Y-87681D01*
X-17833Y-87661D01*
X-17811Y-87639D01*
X-17786Y-87608D01*
X-17756Y-87570D01*
X-17722Y-87528D01*
X-17692Y-87478D01*
X-17659Y-87426D01*
X-17626Y-87367D01*
X-17595Y-87304D01*
X-17570Y-87237D01*
X-17548Y-87165D01*
X-17529Y-87088D01*
X-17517Y-87007D01*
X-17515Y-86924D01*
Y-86922D01*
Y-86910D01*
Y-86897D01*
X-17517Y-86874D01*
X-17520Y-86849D01*
X-17523Y-86819D01*
X-17529Y-86783D01*
X-17534Y-86744D01*
X-17545Y-86705D01*
X-17553Y-86661D01*
X-17567Y-86617D01*
X-17584Y-86570D01*
X-17603Y-86520D01*
X-17626Y-86473D01*
X-17650Y-86423D01*
X-17678Y-86376D01*
X-17681Y-86373D01*
X-17686Y-86365D01*
X-17695Y-86351D01*
X-17709Y-86334D01*
X-17725Y-86312D01*
X-17747Y-86287D01*
X-17772Y-86262D01*
X-17800Y-86232D01*
X-17833Y-86201D01*
X-17869Y-86168D01*
X-17908Y-86138D01*
X-17950Y-86104D01*
X-17997Y-86074D01*
X-18046Y-86043D01*
X-18099Y-86013D01*
X-18157Y-85988D01*
X-18160Y-85985D01*
X-18171Y-85982D01*
X-18191Y-85974D01*
X-18213Y-85966D01*
X-18243Y-85957D01*
X-18279Y-85944D01*
X-18321Y-85933D01*
X-18368Y-85919D01*
X-18420Y-85908D01*
X-18479Y-85894D01*
X-18540Y-85883D01*
X-18606Y-85874D01*
X-18678Y-85863D01*
X-18753Y-85858D01*
X-18830Y-85855D01*
X-18911Y-85852D01*
D02*
G37*
%LPD*%
G36*
X22706Y-87656D02*
X22210D01*
X22174Y-87653D01*
X22132D01*
X22085Y-87650D01*
X22038Y-87647D01*
X21936Y-87642D01*
X21836Y-87631D01*
X21789Y-87625D01*
X21745Y-87617D01*
X21709Y-87608D01*
X21675Y-87597D01*
X21673D01*
X21667Y-87595D01*
X21661Y-87592D01*
X21650Y-87586D01*
X21623Y-87572D01*
X21587Y-87550D01*
X21548Y-87525D01*
X21506Y-87492D01*
X21467Y-87453D01*
X21431Y-87409D01*
Y-87406D01*
X21429Y-87404D01*
X21423Y-87395D01*
X21418Y-87387D01*
X21404Y-87359D01*
X21387Y-87323D01*
X21371Y-87279D01*
X21357Y-87229D01*
X21346Y-87171D01*
X21343Y-87110D01*
Y-87107D01*
Y-87102D01*
Y-87090D01*
X21346Y-87074D01*
Y-87057D01*
X21348Y-87035D01*
X21360Y-86988D01*
X21373Y-86933D01*
X21396Y-86874D01*
X21426Y-86816D01*
X21445Y-86788D01*
X21467Y-86764D01*
Y-86761D01*
X21473Y-86758D01*
X21490Y-86741D01*
X21515Y-86719D01*
X21551Y-86689D01*
X21598Y-86661D01*
X21650Y-86633D01*
X21711Y-86608D01*
X21778Y-86592D01*
X21783D01*
X21794Y-86589D01*
X21805Y-86586D01*
X21822D01*
X21844Y-86584D01*
X21869Y-86581D01*
X21900Y-86578D01*
X21936Y-86575D01*
X21974Y-86572D01*
X22019Y-86570D01*
X22071D01*
X22127Y-86567D01*
X22190Y-86564D01*
X22706D01*
Y-87656D01*
D02*
G37*
G36*
X15562Y-87536D02*
X14903D01*
X14858Y-87534D01*
X14753D01*
X14695Y-87531D01*
X14576Y-87525D01*
X14518Y-87523D01*
X14462Y-87517D01*
X14412Y-87511D01*
X14365Y-87506D01*
X14326Y-87500D01*
X14296Y-87492D01*
X14293D01*
X14290Y-87489D01*
X14274Y-87484D01*
X14249Y-87470D01*
X14216Y-87453D01*
X14182Y-87431D01*
X14146Y-87404D01*
X14110Y-87370D01*
X14080Y-87329D01*
X14077Y-87323D01*
X14066Y-87306D01*
X14055Y-87282D01*
X14038Y-87248D01*
X14025Y-87207D01*
X14011Y-87157D01*
X14002Y-87102D01*
X14000Y-87041D01*
Y-87038D01*
Y-87032D01*
Y-87021D01*
X14002Y-87007D01*
Y-86991D01*
X14005Y-86974D01*
X14013Y-86930D01*
X14025Y-86880D01*
X14044Y-86827D01*
X14069Y-86777D01*
X14105Y-86730D01*
Y-86728D01*
X14110Y-86725D01*
X14124Y-86711D01*
X14146Y-86692D01*
X14180Y-86667D01*
X14221Y-86642D01*
X14271Y-86617D01*
X14329Y-86595D01*
X14396Y-86578D01*
X14407D01*
X14418Y-86575D01*
X14432D01*
X14451Y-86572D01*
X14473D01*
X14501Y-86570D01*
X14576D01*
X14620Y-86567D01*
X14673D01*
X14734Y-86564D01*
X15562D01*
Y-87536D01*
D02*
G37*
G36*
X-2285Y-87440D02*
X-2986D01*
X-3033Y-87437D01*
X-3174D01*
X-3219Y-87434D01*
X-3260D01*
X-3299Y-87431D01*
X-3330D01*
X-3354Y-87428D01*
X-3363D01*
X-3374Y-87426D01*
X-3388Y-87423D01*
X-3404Y-87420D01*
X-3424Y-87414D01*
X-3468Y-87401D01*
X-3518Y-87384D01*
X-3568Y-87359D01*
X-3618Y-87329D01*
X-3665Y-87290D01*
X-3670Y-87284D01*
X-3684Y-87270D01*
X-3701Y-87243D01*
X-3723Y-87210D01*
X-3745Y-87168D01*
X-3762Y-87115D01*
X-3776Y-87057D01*
X-3781Y-86991D01*
Y-86988D01*
Y-86982D01*
Y-86974D01*
X-3778Y-86960D01*
X-3776Y-86930D01*
X-3770Y-86888D01*
X-3756Y-86841D01*
X-3740Y-86794D01*
X-3715Y-86747D01*
X-3681Y-86703D01*
X-3676Y-86697D01*
X-3662Y-86686D01*
X-3640Y-86667D01*
X-3609Y-86645D01*
X-3568Y-86620D01*
X-3518Y-86597D01*
X-3460Y-86581D01*
X-3390Y-86567D01*
X-3377D01*
X-3363Y-86564D01*
X-3346D01*
X-3324Y-86561D01*
X-3296D01*
X-3263Y-86559D01*
X-3177D01*
X-3125Y-86556D01*
X-3061D01*
X-2992Y-86553D01*
X-2285D01*
Y-87440D01*
D02*
G37*
G36*
Y-89101D02*
X-3141D01*
X-3183Y-89099D01*
X-3227D01*
X-3316Y-89096D01*
X-3360Y-89093D01*
X-3404D01*
X-3443Y-89090D01*
X-3479Y-89088D01*
X-3510Y-89082D01*
X-3534Y-89079D01*
X-3537D01*
X-3543Y-89077D01*
X-3551D01*
X-3562Y-89074D01*
X-3596Y-89063D01*
X-3634Y-89049D01*
X-3678Y-89029D01*
X-3726Y-89002D01*
X-3770Y-88968D01*
X-3814Y-88927D01*
Y-88924D01*
X-3820Y-88921D01*
X-3831Y-88905D01*
X-3850Y-88877D01*
X-3870Y-88841D01*
X-3889Y-88794D01*
X-3909Y-88739D01*
X-3920Y-88672D01*
X-3925Y-88600D01*
Y-88597D01*
Y-88592D01*
Y-88583D01*
Y-88572D01*
X-3920Y-88539D01*
X-3914Y-88500D01*
X-3903Y-88453D01*
X-3889Y-88406D01*
X-3867Y-88356D01*
X-3839Y-88309D01*
Y-88306D01*
X-3836Y-88304D01*
X-3823Y-88290D01*
X-3806Y-88268D01*
X-3778Y-88240D01*
X-3745Y-88212D01*
X-3703Y-88182D01*
X-3654Y-88154D01*
X-3598Y-88132D01*
X-3596D01*
X-3590Y-88129D01*
X-3582Y-88126D01*
X-3565Y-88124D01*
X-3546Y-88118D01*
X-3521Y-88115D01*
X-3490Y-88110D01*
X-3454Y-88104D01*
X-3410Y-88099D01*
X-3360Y-88093D01*
X-3305Y-88090D01*
X-3241Y-88085D01*
X-3172Y-88082D01*
X-3094Y-88079D01*
X-3005Y-88077D01*
X-2285D01*
Y-89101D01*
D02*
G37*
G36*
X-21919Y-87440D02*
X-22620D01*
X-22667Y-87437D01*
X-22808D01*
X-22852Y-87434D01*
X-22894D01*
X-22933Y-87431D01*
X-22963D01*
X-22988Y-87428D01*
X-22997D01*
X-23008Y-87426D01*
X-23021Y-87423D01*
X-23038Y-87420D01*
X-23057Y-87414D01*
X-23102Y-87401D01*
X-23152Y-87384D01*
X-23201Y-87359D01*
X-23251Y-87329D01*
X-23299Y-87290D01*
X-23304Y-87284D01*
X-23318Y-87270D01*
X-23335Y-87243D01*
X-23357Y-87210D01*
X-23379Y-87168D01*
X-23395Y-87115D01*
X-23409Y-87057D01*
X-23415Y-86991D01*
Y-86988D01*
Y-86982D01*
Y-86974D01*
X-23412Y-86960D01*
X-23409Y-86930D01*
X-23404Y-86888D01*
X-23390Y-86841D01*
X-23373Y-86794D01*
X-23348Y-86747D01*
X-23315Y-86703D01*
X-23310Y-86697D01*
X-23296Y-86686D01*
X-23273Y-86667D01*
X-23243Y-86645D01*
X-23201Y-86620D01*
X-23152Y-86597D01*
X-23094Y-86581D01*
X-23024Y-86567D01*
X-23010D01*
X-22997Y-86564D01*
X-22980D01*
X-22958Y-86561D01*
X-22930D01*
X-22897Y-86559D01*
X-22811D01*
X-22758Y-86556D01*
X-22695D01*
X-22625Y-86553D01*
X-21919D01*
Y-87440D01*
D02*
G37*
G36*
Y-89101D02*
X-22775D01*
X-22817Y-89099D01*
X-22861D01*
X-22949Y-89096D01*
X-22994Y-89093D01*
X-23038D01*
X-23077Y-89090D01*
X-23113Y-89088D01*
X-23143Y-89082D01*
X-23168Y-89079D01*
X-23171D01*
X-23177Y-89077D01*
X-23185D01*
X-23196Y-89074D01*
X-23229Y-89063D01*
X-23268Y-89049D01*
X-23312Y-89029D01*
X-23359Y-89002D01*
X-23404Y-88968D01*
X-23448Y-88927D01*
Y-88924D01*
X-23454Y-88921D01*
X-23465Y-88905D01*
X-23484Y-88877D01*
X-23503Y-88841D01*
X-23523Y-88794D01*
X-23542Y-88739D01*
X-23553Y-88672D01*
X-23559Y-88600D01*
Y-88597D01*
Y-88592D01*
Y-88583D01*
Y-88572D01*
X-23553Y-88539D01*
X-23548Y-88500D01*
X-23537Y-88453D01*
X-23523Y-88406D01*
X-23501Y-88356D01*
X-23473Y-88309D01*
Y-88306D01*
X-23470Y-88304D01*
X-23456Y-88290D01*
X-23440Y-88268D01*
X-23412Y-88240D01*
X-23379Y-88212D01*
X-23337Y-88182D01*
X-23287Y-88154D01*
X-23232Y-88132D01*
X-23229D01*
X-23224Y-88129D01*
X-23215Y-88126D01*
X-23199Y-88124D01*
X-23179Y-88118D01*
X-23154Y-88115D01*
X-23124Y-88110D01*
X-23088Y-88104D01*
X-23044Y-88099D01*
X-22994Y-88093D01*
X-22938Y-88090D01*
X-22875Y-88085D01*
X-22805Y-88082D01*
X-22728Y-88079D01*
X-22639Y-88077D01*
X-21919D01*
Y-89101D01*
D02*
G37*
%LPC*%
G36*
X-652Y-206985D02*
X-682D01*
X-748Y-206988D01*
X-809Y-206996D01*
X-870Y-207010D01*
X-926Y-207026D01*
X-978Y-207049D01*
X-1025Y-207071D01*
X-1070Y-207096D01*
X-1109Y-207121D01*
X-1145Y-207146D01*
X-1178Y-207171D01*
X-1203Y-207193D01*
X-1225Y-207215D01*
X-1244Y-207231D01*
X-1255Y-207245D01*
X-1264Y-207254D01*
X-1266Y-207256D01*
X-1291Y-207290D01*
X-1316Y-207328D01*
X-1358Y-207412D01*
X-1388Y-207497D01*
X-1410Y-207583D01*
X-1422Y-207622D01*
X-1427Y-207661D01*
X-1436Y-207694D01*
X-1438Y-207722D01*
X-1444Y-207747D01*
Y-207763D01*
X-1447Y-207777D01*
Y-207780D01*
X107D01*
X102Y-207713D01*
X91Y-207652D01*
X77Y-207592D01*
X60Y-207539D01*
X41Y-207486D01*
X21Y-207439D01*
X-1Y-207395D01*
X-23Y-207356D01*
X-45Y-207323D01*
X-64Y-207292D01*
X-84Y-207265D01*
X-100Y-207242D01*
X-117Y-207226D01*
X-128Y-207215D01*
X-134Y-207207D01*
X-136Y-207204D01*
X-178Y-207165D01*
X-222Y-207132D01*
X-269Y-207101D01*
X-316Y-207076D01*
X-361Y-207057D01*
X-408Y-207037D01*
X-449Y-207024D01*
X-494Y-207013D01*
X-532Y-207004D01*
X-569Y-206996D01*
X-599Y-206990D01*
X-629Y-206988D01*
X-652Y-206985D01*
D02*
G37*
G36*
X-6901Y-206985D02*
X-6931D01*
X-6998Y-206988D01*
X-7059Y-206996D01*
X-7119Y-207010D01*
X-7175Y-207026D01*
X-7227Y-207049D01*
X-7275Y-207071D01*
X-7319Y-207096D01*
X-7358Y-207121D01*
X-7394Y-207146D01*
X-7427Y-207171D01*
X-7452Y-207193D01*
X-7474Y-207215D01*
X-7493Y-207231D01*
X-7505Y-207245D01*
X-7513Y-207254D01*
X-7516Y-207256D01*
X-7541Y-207290D01*
X-7565Y-207328D01*
X-7607Y-207412D01*
X-7638Y-207497D01*
X-7660Y-207583D01*
X-7671Y-207622D01*
X-7676Y-207661D01*
X-7685Y-207694D01*
X-7687Y-207722D01*
X-7693Y-207747D01*
Y-207763D01*
X-7696Y-207777D01*
Y-207780D01*
X-6142D01*
X-6147Y-207713D01*
X-6158Y-207652D01*
X-6172Y-207592D01*
X-6189Y-207539D01*
X-6208Y-207486D01*
X-6228Y-207439D01*
X-6250Y-207395D01*
X-6272Y-207356D01*
X-6294Y-207323D01*
X-6313Y-207292D01*
X-6333Y-207265D01*
X-6350Y-207242D01*
X-6366Y-207226D01*
X-6377Y-207215D01*
X-6383Y-207207D01*
X-6385Y-207204D01*
X-6427Y-207165D01*
X-6471Y-207132D01*
X-6518Y-207101D01*
X-6566Y-207076D01*
X-6610Y-207057D01*
X-6657Y-207037D01*
X-6699Y-207024D01*
X-6743Y-207013D01*
X-6782Y-207004D01*
X-6818Y-206996D01*
X-6848Y-206990D01*
X-6878Y-206988D01*
X-6901Y-206985D01*
D02*
G37*
G36*
X-18205Y-206988D02*
X-18222D01*
X-18285Y-206990D01*
X-18346Y-206999D01*
X-18405Y-207013D01*
X-18460Y-207029D01*
X-18512Y-207049D01*
X-18560Y-207071D01*
X-18604Y-207096D01*
X-18643Y-207121D01*
X-18679Y-207146D01*
X-18712Y-207171D01*
X-18740Y-207193D01*
X-18762Y-207212D01*
X-18778Y-207229D01*
X-18792Y-207242D01*
X-18801Y-207251D01*
X-18803Y-207254D01*
X-18845Y-207306D01*
X-18881Y-207364D01*
X-18911Y-207425D01*
X-18939Y-207486D01*
X-18961Y-207553D01*
X-18981Y-207616D01*
X-18997Y-207680D01*
X-19008Y-207741D01*
X-19019Y-207802D01*
X-19028Y-207855D01*
X-19030Y-207905D01*
X-19036Y-207949D01*
Y-207982D01*
X-19039Y-208010D01*
Y-208026D01*
Y-208029D01*
Y-208032D01*
X-19036Y-208132D01*
X-19028Y-208223D01*
X-19017Y-208309D01*
X-19003Y-208389D01*
X-18986Y-208461D01*
X-18964Y-208528D01*
X-18945Y-208589D01*
X-18923Y-208641D01*
X-18900Y-208688D01*
X-18881Y-208730D01*
X-18861Y-208766D01*
X-18842Y-208794D01*
X-18828Y-208816D01*
X-18817Y-208830D01*
X-18809Y-208841D01*
X-18806Y-208844D01*
X-18762Y-208891D01*
X-18715Y-208932D01*
X-18665Y-208965D01*
X-18618Y-208996D01*
X-18568Y-209024D01*
X-18518Y-209046D01*
X-18471Y-209062D01*
X-18427Y-209076D01*
X-18385Y-209087D01*
X-18346Y-209096D01*
X-18310Y-209101D01*
X-18280Y-209104D01*
X-18255Y-209107D01*
X-18238Y-209109D01*
X-18222D01*
X-18158Y-209107D01*
X-18097Y-209098D01*
X-18036Y-209085D01*
X-17981Y-209068D01*
X-17931Y-209049D01*
X-17881Y-209026D01*
X-17837Y-209001D01*
X-17798Y-208977D01*
X-17762Y-208954D01*
X-17729Y-208929D01*
X-17701Y-208907D01*
X-17679Y-208888D01*
X-17662Y-208871D01*
X-17648Y-208857D01*
X-17640Y-208849D01*
X-17637Y-208846D01*
X-17596Y-208794D01*
X-17562Y-208735D01*
X-17532Y-208675D01*
X-17504Y-208608D01*
X-17482Y-208544D01*
X-17463Y-208478D01*
X-17449Y-208411D01*
X-17435Y-208348D01*
X-17427Y-208287D01*
X-17418Y-208231D01*
X-17416Y-208179D01*
X-17410Y-208134D01*
Y-208098D01*
X-17407Y-208071D01*
Y-208062D01*
Y-208054D01*
Y-208051D01*
Y-208049D01*
X-17410Y-207952D01*
X-17418Y-207863D01*
X-17429Y-207777D01*
X-17443Y-207699D01*
X-17460Y-207628D01*
X-17479Y-207564D01*
X-17502Y-207506D01*
X-17524Y-207450D01*
X-17543Y-207406D01*
X-17565Y-207364D01*
X-17585Y-207331D01*
X-17601Y-207303D01*
X-17615Y-207281D01*
X-17626Y-207265D01*
X-17634Y-207256D01*
X-17637Y-207254D01*
X-17682Y-207207D01*
X-17729Y-207165D01*
X-17778Y-207129D01*
X-17826Y-207099D01*
X-17875Y-207073D01*
X-17925Y-207051D01*
X-17972Y-207035D01*
X-18017Y-207021D01*
X-18058Y-207010D01*
X-18097Y-207001D01*
X-18133Y-206996D01*
X-18164Y-206990D01*
X-18188D01*
X-18205Y-206988D01*
D02*
G37*
G36*
X2268Y-206965D02*
X2254D01*
X2199Y-206968D01*
X2146Y-206977D01*
X2094Y-206990D01*
X2046Y-207007D01*
X1999Y-207026D01*
X1958Y-207049D01*
X1916Y-207073D01*
X1880Y-207098D01*
X1847Y-207123D01*
X1819Y-207148D01*
X1794Y-207171D01*
X1772Y-207190D01*
X1756Y-207207D01*
X1744Y-207220D01*
X1736Y-207229D01*
X1733Y-207231D01*
X1695Y-207284D01*
X1661Y-207342D01*
X1631Y-207403D01*
X1606Y-207467D01*
X1587Y-207531D01*
X1567Y-207597D01*
X1553Y-207663D01*
X1542Y-207727D01*
X1534Y-207785D01*
X1526Y-207844D01*
X1520Y-207893D01*
X1517Y-207938D01*
X1515Y-207974D01*
Y-208001D01*
Y-208010D01*
Y-208018D01*
Y-208021D01*
Y-208024D01*
X1517Y-208123D01*
X1523Y-208218D01*
X1534Y-208306D01*
X1551Y-208386D01*
X1567Y-208461D01*
X1587Y-208528D01*
X1606Y-208589D01*
X1625Y-208644D01*
X1647Y-208691D01*
X1667Y-208733D01*
X1686Y-208769D01*
X1703Y-208797D01*
X1717Y-208819D01*
X1728Y-208833D01*
X1736Y-208843D01*
X1739Y-208846D01*
X1781Y-208893D01*
X1825Y-208932D01*
X1869Y-208968D01*
X1916Y-208999D01*
X1960Y-209024D01*
X2005Y-209046D01*
X2049Y-209062D01*
X2088Y-209076D01*
X2127Y-209087D01*
X2163Y-209096D01*
X2193Y-209101D01*
X2221Y-209104D01*
X2243Y-209107D01*
X2260Y-209109D01*
X2273D01*
X2329Y-209107D01*
X2384Y-209098D01*
X2437Y-209085D01*
X2484Y-209071D01*
X2531Y-209051D01*
X2575Y-209029D01*
X2614Y-209007D01*
X2650Y-208982D01*
X2684Y-208957D01*
X2711Y-208935D01*
X2736Y-208913D01*
X2758Y-208893D01*
X2775Y-208877D01*
X2786Y-208866D01*
X2794Y-208857D01*
X2797Y-208855D01*
X2836Y-208805D01*
X2869Y-208747D01*
X2897Y-208686D01*
X2922Y-208622D01*
X2944Y-208558D01*
X2960Y-208492D01*
X2974Y-208425D01*
X2985Y-208362D01*
X2994Y-208303D01*
X3002Y-208245D01*
X3008Y-208195D01*
X3010Y-208151D01*
Y-208112D01*
X3013Y-208085D01*
Y-208076D01*
Y-208068D01*
Y-208065D01*
Y-208062D01*
X3010Y-207965D01*
X3002Y-207874D01*
X2991Y-207788D01*
X2977Y-207711D01*
X2960Y-207636D01*
X2941Y-207569D01*
X2919Y-207508D01*
X2897Y-207456D01*
X2877Y-207406D01*
X2855Y-207364D01*
X2836Y-207328D01*
X2819Y-207301D01*
X2805Y-207278D01*
X2794Y-207262D01*
X2786Y-207251D01*
X2783Y-207248D01*
X2739Y-207198D01*
X2695Y-207154D01*
X2650Y-207118D01*
X2603Y-207085D01*
X2559Y-207057D01*
X2514Y-207035D01*
X2473Y-207015D01*
X2431Y-207001D01*
X2395Y-206990D01*
X2362Y-206979D01*
X2332Y-206974D01*
X2304Y-206971D01*
X2282Y-206968D01*
X2268Y-206965D01*
D02*
G37*
G36*
X5734Y-211477D02*
X5720D01*
X5659Y-211479D01*
X5601Y-211490D01*
X5549Y-211504D01*
X5496Y-211526D01*
X5446Y-211549D01*
X5402Y-211576D01*
X5360Y-211604D01*
X5322Y-211632D01*
X5288Y-211662D01*
X5258Y-211690D01*
X5233Y-211718D01*
X5211Y-211740D01*
X5194Y-211762D01*
X5183Y-211776D01*
X5175Y-211787D01*
X5172Y-211790D01*
X5153Y-211820D01*
X5133Y-211856D01*
X5116Y-211892D01*
X5100Y-211934D01*
X5069Y-212019D01*
X5045Y-212116D01*
X5022Y-212219D01*
X5003Y-212324D01*
X4989Y-212429D01*
X4978Y-212532D01*
X4970Y-212634D01*
X4961Y-212729D01*
X4956Y-212814D01*
Y-212856D01*
X4953Y-212892D01*
Y-212925D01*
X4950Y-212956D01*
Y-212981D01*
Y-213003D01*
Y-213019D01*
Y-213033D01*
Y-213042D01*
Y-213044D01*
Y-213130D01*
X4953Y-213213D01*
X4956Y-213294D01*
X4959Y-213369D01*
X4964Y-213440D01*
X4970Y-213510D01*
X4978Y-213576D01*
X4984Y-213637D01*
X4992Y-213698D01*
X5003Y-213754D01*
X5011Y-213806D01*
X5020Y-213856D01*
X5031Y-213903D01*
X5042Y-213945D01*
X5050Y-213986D01*
X5061Y-214025D01*
X5080Y-214094D01*
X5103Y-214150D01*
X5119Y-214197D01*
X5136Y-214235D01*
X5153Y-214263D01*
X5164Y-214283D01*
X5169Y-214296D01*
X5172Y-214299D01*
X5213Y-214355D01*
X5258Y-214402D01*
X5305Y-214443D01*
X5349Y-214479D01*
X5396Y-214510D01*
X5441Y-214535D01*
X5485Y-214554D01*
X5526Y-214571D01*
X5565Y-214584D01*
X5601Y-214593D01*
X5635Y-214601D01*
X5662Y-214604D01*
X5684Y-214607D01*
X5701Y-214609D01*
X5715D01*
X5773Y-214607D01*
X5831Y-214596D01*
X5886Y-214582D01*
X5936Y-214560D01*
X5986Y-214537D01*
X6031Y-214512D01*
X6072Y-214482D01*
X6108Y-214454D01*
X6144Y-214427D01*
X6172Y-214396D01*
X6200Y-214371D01*
X6222Y-214346D01*
X6238Y-214327D01*
X6249Y-214313D01*
X6258Y-214302D01*
X6261Y-214299D01*
X6280Y-214269D01*
X6299Y-214233D01*
X6316Y-214197D01*
X6333Y-214155D01*
X6363Y-214069D01*
X6388Y-213972D01*
X6407Y-213870D01*
X6427Y-213765D01*
X6441Y-213659D01*
X6452Y-213554D01*
X6460Y-213454D01*
X6468Y-213360D01*
X6474Y-213271D01*
Y-213233D01*
X6477Y-213197D01*
Y-213163D01*
Y-213133D01*
X6479Y-213108D01*
Y-213086D01*
Y-213067D01*
Y-213055D01*
Y-213047D01*
Y-213044D01*
Y-212959D01*
X6477Y-212875D01*
X6474Y-212795D01*
X6468Y-212718D01*
X6463Y-212646D01*
X6457Y-212576D01*
X6449Y-212510D01*
X6441Y-212446D01*
X6432Y-212385D01*
X6424Y-212327D01*
X6413Y-212271D01*
X6402Y-212222D01*
X6393Y-212172D01*
X6382Y-212127D01*
X6371Y-212083D01*
X6357Y-212044D01*
X6335Y-211972D01*
X6313Y-211912D01*
X6294Y-211862D01*
X6277Y-211820D01*
X6261Y-211790D01*
X6249Y-211767D01*
X6241Y-211754D01*
X6238Y-211751D01*
X6200Y-211704D01*
X6161Y-211659D01*
X6119Y-211623D01*
X6075Y-211593D01*
X6033Y-211565D01*
X5989Y-211543D01*
X5948Y-211526D01*
X5906Y-211510D01*
X5867Y-211499D01*
X5834Y-211490D01*
X5801Y-211485D01*
X5773Y-211482D01*
X5751Y-211479D01*
X5734Y-211477D01*
D02*
G37*
G36*
X-4687D02*
X-4700D01*
X-4761Y-211479D01*
X-4820Y-211490D01*
X-4872Y-211504D01*
X-4925Y-211526D01*
X-4975Y-211549D01*
X-5019Y-211576D01*
X-5060Y-211604D01*
X-5099Y-211632D01*
X-5133Y-211662D01*
X-5163Y-211690D01*
X-5188Y-211718D01*
X-5210Y-211740D01*
X-5227Y-211762D01*
X-5238Y-211776D01*
X-5246Y-211787D01*
X-5249Y-211790D01*
X-5268Y-211820D01*
X-5288Y-211856D01*
X-5304Y-211892D01*
X-5321Y-211934D01*
X-5351Y-212019D01*
X-5376Y-212116D01*
X-5398Y-212219D01*
X-5418Y-212324D01*
X-5432Y-212429D01*
X-5443Y-212532D01*
X-5451Y-212634D01*
X-5459Y-212729D01*
X-5465Y-212814D01*
Y-212856D01*
X-5468Y-212892D01*
Y-212925D01*
X-5471Y-212956D01*
Y-212981D01*
Y-213003D01*
Y-213019D01*
Y-213033D01*
Y-213042D01*
Y-213044D01*
Y-213130D01*
X-5468Y-213213D01*
X-5465Y-213294D01*
X-5462Y-213369D01*
X-5457Y-213440D01*
X-5451Y-213510D01*
X-5443Y-213576D01*
X-5437Y-213637D01*
X-5429Y-213698D01*
X-5418Y-213754D01*
X-5410Y-213806D01*
X-5401Y-213856D01*
X-5390Y-213903D01*
X-5379Y-213945D01*
X-5371Y-213986D01*
X-5360Y-214025D01*
X-5340Y-214094D01*
X-5318Y-214150D01*
X-5302Y-214197D01*
X-5285Y-214235D01*
X-5268Y-214263D01*
X-5257Y-214283D01*
X-5252Y-214296D01*
X-5249Y-214299D01*
X-5207Y-214355D01*
X-5163Y-214402D01*
X-5116Y-214443D01*
X-5072Y-214479D01*
X-5024Y-214510D01*
X-4980Y-214535D01*
X-4936Y-214554D01*
X-4894Y-214571D01*
X-4856Y-214584D01*
X-4820Y-214593D01*
X-4786Y-214601D01*
X-4759Y-214604D01*
X-4736Y-214607D01*
X-4720Y-214609D01*
X-4706D01*
X-4648Y-214607D01*
X-4590Y-214596D01*
X-4534Y-214582D01*
X-4484Y-214560D01*
X-4434Y-214537D01*
X-4390Y-214512D01*
X-4349Y-214482D01*
X-4313Y-214454D01*
X-4277Y-214427D01*
X-4249Y-214396D01*
X-4221Y-214371D01*
X-4199Y-214346D01*
X-4182Y-214327D01*
X-4171Y-214313D01*
X-4163Y-214302D01*
X-4160Y-214299D01*
X-4141Y-214269D01*
X-4121Y-214233D01*
X-4105Y-214197D01*
X-4088Y-214155D01*
X-4058Y-214069D01*
X-4033Y-213972D01*
X-4013Y-213870D01*
X-3994Y-213765D01*
X-3980Y-213659D01*
X-3969Y-213554D01*
X-3961Y-213454D01*
X-3952Y-213360D01*
X-3947Y-213271D01*
Y-213233D01*
X-3944Y-213197D01*
Y-213163D01*
Y-213133D01*
X-3941Y-213108D01*
Y-213086D01*
Y-213067D01*
Y-213055D01*
Y-213047D01*
Y-213044D01*
Y-212959D01*
X-3944Y-212875D01*
X-3947Y-212795D01*
X-3952Y-212718D01*
X-3958Y-212646D01*
X-3964Y-212576D01*
X-3972Y-212510D01*
X-3980Y-212446D01*
X-3988Y-212385D01*
X-3997Y-212327D01*
X-4008Y-212271D01*
X-4019Y-212222D01*
X-4027Y-212172D01*
X-4038Y-212127D01*
X-4049Y-212083D01*
X-4063Y-212044D01*
X-4086Y-211972D01*
X-4108Y-211912D01*
X-4127Y-211862D01*
X-4144Y-211820D01*
X-4160Y-211790D01*
X-4171Y-211767D01*
X-4180Y-211754D01*
X-4182Y-211751D01*
X-4221Y-211704D01*
X-4260Y-211659D01*
X-4301Y-211623D01*
X-4346Y-211593D01*
X-4387Y-211565D01*
X-4432Y-211543D01*
X-4473Y-211526D01*
X-4515Y-211510D01*
X-4554Y-211499D01*
X-4587Y-211490D01*
X-4620Y-211485D01*
X-4648Y-211482D01*
X-4670Y-211479D01*
X-4687Y-211477D01*
D02*
G37*
%LPD*%
M02*
