G04*
G04 #@! TF.GenerationSoftware,Altium Limited,Altium Designer,20.2.6 (244)*
G04*
G04 Layer_Color=16711935*
%FSLAX25Y25*%
%MOIN*%
G70*
G04*
G04 #@! TF.SameCoordinates,311AA1CE-0284-405A-9FC1-4CD4DC225AB5*
G04*
G04*
G04 #@! TF.FilePolarity,Positive*
G04*
G01*
G75*
%ADD11C,0.00787*%
%ADD84C,0.00394*%
%ADD85C,0.00100*%
D11*
X-17323Y-46945D02*
G03*
X-17323Y-46945I-394J0D01*
G01*
D84*
X33465Y-36315D02*
Y-15449D01*
X-33465D02*
X33465D01*
X-33465Y-36315D02*
Y-15449D01*
Y-36315D02*
X33465D01*
X18185Y-168248D02*
X28815D01*
Y-161752D01*
X18185D02*
X28815D01*
X18185Y-168248D02*
Y-161752D01*
X-30110Y-140087D02*
X-28929Y-141268D01*
X-29717Y-139299D02*
X-28535Y-140480D01*
X-26500Y-142075D02*
Y-138925D01*
X-28075Y-141287D02*
X-24925D01*
X-26500D02*
X-24925Y-139713D01*
X-28075D02*
X-26500Y-141287D01*
X-28075Y-139713D02*
X-24925D01*
X25390Y-210587D02*
X26571Y-211768D01*
X25784Y-209799D02*
X26965Y-210980D01*
X29000Y-212575D02*
Y-209425D01*
X27425Y-211787D02*
X30575D01*
X29000D02*
X30575Y-210213D01*
X27425D02*
X29000Y-211787D01*
X27425Y-210213D02*
X30575D01*
X16898Y-173457D02*
X29102D01*
X16898Y-180543D02*
X29102D01*
Y-173457D01*
X16898Y-180543D02*
Y-173457D01*
X-6768Y-171571D02*
X-5587Y-170390D01*
X-5980Y-171965D02*
X-4799Y-170783D01*
X-7575Y-174000D02*
X-4425D01*
X-6787Y-175575D02*
Y-172425D01*
Y-174000D02*
X-5213Y-175575D01*
X-6787Y-174000D02*
X-5213Y-172425D01*
Y-175575D02*
Y-172425D01*
D85*
X2079Y-175425D02*
X11921D01*
X2079Y-178575D02*
Y-175425D01*
Y-178575D02*
X11921D01*
Y-175425D01*
X28181Y-196693D02*
Y-193543D01*
X18339Y-196693D02*
X28181D01*
X18339D02*
Y-193543D01*
X28181D01*
M02*
