M48
;Layer_Color=9474304
;FILE_FORMAT=2:5
INCH,LZ
;TYPE=PLATED
T1F00S00C0.01550
T2F00S00C0.01968
T3F00S00C0.03543
T4F00S00C0.08563
%
T01
X0026Y-021575
X002Y-02045
X00235Y-02005
X0036
X00455Y-01855
X0045Y-0181
X0031387Y-0175387
X00265Y-01765
X0028097Y-0153537
X-0013Y-0181
X-00305Y-0178
X-00365Y-017
X-0035Y-016
X-00405Y-0147
X-00475
X-0062375Y-0148273
X-00605Y-016
X-00645Y-01805
X-00525Y-01785
X-0049Y-0186
X-003173Y-0195641
X-001473Y-0204499
T02
X-00665Y-02035
X-0049Y-01725
Y-0161
X-0018653Y-0173153
X-00125Y-0168
X-00135Y-00345
X-0006
X0006
X0012
X0029Y-00875
X0023153Y-012741
T03
X0051Y-02085
X0061
X0057Y-0142
X0067
X-0058
X-0068
Y-0132
X-0058
Y-0122
X-0068
Y-0112
X-0058
Y-0102
X-0068
Y-0092
X-0058
Y-0082
X-0068
Y-0072
X-0058
Y-0062
X-0068
Y-0052
X-0058
X-00455
X-00355
X-00255
X-00155
X-00055
X00045
X00145
X00245
X00345
X00445
X0057
Y-0062
Y-0072
X0067
Y-0062
Y-0052
Y-0082
X0057
Y-0092
X0067
Y-0102
X0057
Y-0112
X0067
Y-0122
X0057
Y-0132
X0067
T04
X-0059181Y-0037039
X0058417
M30
